<?xml version="1.0" encoding="utf-8" standalone="no"?>
<!DOCTYPE svg PUBLIC "-//W3C//DTD SVG 1.1//EN"
  "http://www.w3.org/Graphics/SVG/1.1/DTD/svg11.dtd">
<!-- Created with matplotlib (https://matplotlib.org/) -->
<svg height="255.11811pt" version="1.1" viewBox="0 0 453.543307 255.11811" width="453.543307pt" xmlns="http://www.w3.org/2000/svg" xmlns:xlink="http://www.w3.org/1999/xlink">
 <metadata>
  <rdf:RDF xmlns:cc="http://creativecommons.org/ns#" xmlns:dc="http://purl.org/dc/elements/1.1/" xmlns:rdf="http://www.w3.org/1999/02/22-rdf-syntax-ns#">
   <cc:Work>
    <dc:type rdf:resource="http://purl.org/dc/dcmitype/StillImage"/>
    <dc:date>2021-01-02T13:45:05.531494</dc:date>
    <dc:format>image/svg+xml</dc:format>
    <dc:creator>
     <cc:Agent>
      <dc:title>Matplotlib v3.3.3, https://matplotlib.org/</dc:title>
     </cc:Agent>
    </dc:creator>
   </cc:Work>
  </rdf:RDF>
 </metadata>
 <defs>
  <style type="text/css">*{stroke-linecap:butt;stroke-linejoin:round;}</style>
 </defs>
 <g id="figure_1">
  <g id="patch_1">
   <path d="M 0 255.11811 
L 453.543307 255.11811 
L 453.543307 0 
L 0 0 
z
" style="fill:#ffffff;"/>
  </g>
  <g id="axes_1">
   <g id="patch_2">
    <path d="M 45.57786 82.088367 
L 219.877325 82.088367 
L 219.877325 25.8 
L 45.57786 25.8 
z
" style="fill:#ffffff;"/>
   </g>
   <g id="matplotlib.axis_1">
    <g id="xtick_1">
     <g id="line2d_1">
      <defs>
       <path d="M 0 0 
L 0 3.5 
" id="m3d158e77f3" style="stroke:#000000;stroke-width:0.8;"/>
      </defs>
      <g>
       <use style="stroke:#000000;stroke-width:0.8;" x="53.500563" xlink:href="#m3d158e77f3" y="82.088367"/>
      </g>
     </g>
     <g id="text_1">
      <!-- $\mathdefault{0}$ -->
      <g transform="translate(51.009895 96.006865)scale(0.1 -0.1)">
       <defs>
        <path d="M 42 31.84375 
C 42 37.96875 41.90625 48.421875 37.703125 56.453125 
C 34 63.484375 28.09375 66 22.90625 66 
C 18.09375 66 12 63.78125 8.203125 56.5625 
C 4.203125 49.015625 3.796875 39.671875 3.796875 31.84375 
C 3.796875 26.109375 3.90625 17.375 7 9.734375 
C 11.296875 -0.609375 19 -2 22.90625 -2 
C 27.5 -2 34.5 -0.109375 38.59375 9.4375 
C 41.59375 16.375 42 24.5 42 31.84375 
z
M 22.90625 -0.40625 
C 16.5 -0.40625 12.703125 5.125 11.296875 12.75 
C 10.203125 18.6875 10.203125 27.328125 10.203125 32.953125 
C 10.203125 40.6875 10.203125 47.109375 11.5 53.234375 
C 13.40625 61.78125 19 64.390625 22.90625 64.390625 
C 27 64.390625 32.296875 61.671875 34.203125 53.4375 
C 35.5 47.71875 35.59375 40.984375 35.59375 32.953125 
C 35.59375 26.421875 35.59375 18.375 34.40625 12.453125 
C 32.296875 1.5 26.40625 -0.40625 22.90625 -0.40625 
z
" id="CMR17-48"/>
       </defs>
       <use transform="scale(0.996264)" xlink:href="#CMR17-48"/>
      </g>
     </g>
    </g>
    <g id="xtick_2">
     <g id="line2d_2">
      <g>
       <use style="stroke:#000000;stroke-width:0.8;" x="118.707995" xlink:href="#m3d158e77f3" y="82.088367"/>
      </g>
     </g>
     <g id="text_2">
      <!-- $\mathdefault{1}$ -->
      <g transform="translate(116.217327 96.006865)scale(0.1 -0.1)">
       <defs>
        <path d="M 26.59375 63.796875 
C 26.59375 65.890625 26.5 66 25.09375 66 
C 21.203125 61.359375 15.296875 59.890625 9.703125 59.6875 
C 9.40625 59.6875 8.90625 59.6875 8.796875 59.5 
C 8.703125 59.296875 8.703125 59.09375 8.703125 57 
C 11.796875 57 17 57.59375 21 59.984375 
L 21 7.296875 
C 21 3.796875 20.796875 2.59375 12.203125 2.59375 
L 9.203125 2.59375 
L 9.203125 0 
C 14 0.09375 19 0.1875 23.796875 0.1875 
C 28.59375 0.1875 33.59375 0.09375 38.40625 0 
L 38.40625 2.59375 
L 35.40625 2.59375 
C 26.796875 2.59375 26.59375 3.6875 26.59375 7.296875 
z
" id="CMR17-49"/>
       </defs>
       <use transform="scale(0.996264)" xlink:href="#CMR17-49"/>
      </g>
     </g>
    </g>
    <g id="xtick_3">
     <g id="line2d_3">
      <g>
       <use style="stroke:#000000;stroke-width:0.8;" x="183.915427" xlink:href="#m3d158e77f3" y="82.088367"/>
      </g>
     </g>
     <g id="text_3">
      <!-- $\mathdefault{2}$ -->
      <g transform="translate(181.424759 96.006865)scale(0.1 -0.1)">
       <defs>
        <path d="M 41.703125 15.46875 
L 39.90625 15.46875 
C 38.90625 8.390625 38.09375 7.1875 37.703125 6.59375 
C 37.203125 5.796875 30 5.796875 28.59375 5.796875 
L 9.40625 5.796875 
C 13 9.6875 20 16.765625 28.5 24.9375 
C 34.59375 30.71875 41.703125 37.5 41.703125 47.390625 
C 41.703125 59.1875 32.296875 66 21.796875 66 
C 10.796875 66 4.09375 56.296875 4.09375 47.296875 
C 4.09375 43.390625 7 42.890625 8.203125 42.890625 
C 9.203125 42.890625 12.203125 43.484375 12.203125 46.984375 
C 12.203125 50.09375 9.59375 51 8.203125 51 
C 7.59375 51 7 50.890625 6.59375 50.6875 
C 8.5 59.1875 14.296875 63.390625 20.40625 63.390625 
C 29.09375 63.390625 34.796875 56.5 34.796875 47.390625 
C 34.796875 38.703125 29.703125 31.21875 24 24.734375 
L 4.09375 2.296875 
L 4.09375 0 
L 39.296875 0 
z
" id="CMR17-50"/>
       </defs>
       <use transform="scale(0.996264)" xlink:href="#CMR17-50"/>
      </g>
     </g>
    </g>
   </g>
   <g id="matplotlib.axis_2">
    <g id="ytick_1">
     <g id="line2d_4">
      <defs>
       <path d="M 0 0 
L -3.5 0 
" id="mc66646910e" style="stroke:#000000;stroke-width:0.8;"/>
      </defs>
      <g>
       <use style="stroke:#000000;stroke-width:0.8;" x="45.57786" xlink:href="#mc66646910e" y="79.529805"/>
      </g>
     </g>
     <g id="text_4">
      <!-- $\mathdefault{0.0000}$ -->
      <g transform="translate(10.903775 82.989054)scale(0.1 -0.1)">
       <defs>
        <path d="M 18.40625 4.796875 
C 18.40625 7.6875 16 9.6875 13.59375 9.6875 
C 10.703125 9.6875 8.703125 7.296875 8.703125 4.890625 
C 8.703125 2 11.09375 0 13.5 0 
C 16.40625 0 18.40625 2.390625 18.40625 4.796875 
z
" id="CMMI12-58"/>
       </defs>
       <use transform="scale(0.996264)" xlink:href="#CMR17-48"/>
       <use transform="translate(45.690477 0)scale(0.996264)" xlink:href="#CMMI12-58"/>
       <use transform="translate(72.787654 0)scale(0.996264)" xlink:href="#CMR17-48"/>
       <use transform="translate(118.478131 0)scale(0.996264)" xlink:href="#CMR17-48"/>
       <use transform="translate(164.168608 0)scale(0.996264)" xlink:href="#CMR17-48"/>
       <use transform="translate(209.859086 0)scale(0.996264)" xlink:href="#CMR17-48"/>
      </g>
     </g>
    </g>
    <g id="ytick_2">
     <g id="line2d_5">
      <g>
       <use style="stroke:#000000;stroke-width:0.8;" x="45.57786" xlink:href="#mc66646910e" y="45.415643"/>
      </g>
     </g>
     <g id="text_5">
      <!-- $\mathdefault{0.0001}$ -->
      <g transform="translate(10.903775 48.874892)scale(0.1 -0.1)">
       <use transform="scale(0.996264)" xlink:href="#CMR17-48"/>
       <use transform="translate(45.690477 0)scale(0.996264)" xlink:href="#CMMI12-58"/>
       <use transform="translate(72.787654 0)scale(0.996264)" xlink:href="#CMR17-48"/>
       <use transform="translate(118.478131 0)scale(0.996264)" xlink:href="#CMR17-48"/>
       <use transform="translate(164.168608 0)scale(0.996264)" xlink:href="#CMR17-48"/>
       <use transform="translate(209.859086 0)scale(0.996264)" xlink:href="#CMR17-49"/>
      </g>
     </g>
    </g>
   </g>
   <g id="line2d_6">
    <path clip-path="url(#p7c4d3817f5)" d="M 53.500563 79.529805 
L 55.456786 28.358562 
L 57.413009 51.101337 
L 59.369232 60.482731 
L 61.325455 65.233702 
L 63.281678 68.090716 
L 65.237901 69.996601 
L 67.194124 71.358263 
L 69.150347 72.379613 
L 71.10657 73.174036 
L 73.062793 73.809591 
L 75.019015 74.329599 
L 76.975238 74.762942 
L 78.931461 75.12962 
L 80.887684 75.443916 
L 82.843907 75.716307 
L 84.80013 75.95465 
L 86.756353 76.164952 
L 88.712576 76.351888 
L 90.668799 76.519146 
L 92.625022 76.669679 
L 94.581245 76.805875 
L 96.537468 76.92969 
L 98.493691 77.042738 
L 100.449914 77.146366 
L 102.406137 77.241704 
L 104.36236 77.329707 
L 106.318583 77.411192 
L 108.274806 77.486857 
L 110.231029 77.557304 
L 112.187252 77.623054 
L 114.143475 77.684562 
L 116.099698 77.742225 
L 118.055921 77.796395 
L 120.012144 77.847377 
L 121.968366 77.895446 
L 123.924589 77.940845 
L 125.880812 77.98379 
L 127.837035 78.024475 
L 129.793258 78.063073 
L 131.749481 78.099741 
L 133.705704 78.134621 
L 135.661927 78.167839 
L 137.61815 78.199513 
L 139.574373 78.229747 
L 141.530596 78.258637 
L 143.486819 78.286271 
L 145.443042 78.312729 
L 147.399265 78.338085 
L 149.355488 78.362406 
L 151.311711 78.385754 
L 153.267934 78.408186 
L 155.224157 78.429756 
L 157.18038 78.450511 
L 159.136603 78.470498 
L 161.092826 78.489758 
L 163.049049 78.508331 
L 165.005272 78.526251 
L 166.961494 78.543554 
L 168.917717 78.56027 
L 170.87394 78.576429 
L 172.830163 78.592058 
L 174.786386 78.607183 
L 176.742609 78.621828 
L 178.698832 78.636015 
L 180.655055 78.649766 
L 182.611278 78.6631 
L 184.567501 78.676035 
L 186.523724 78.688591 
L 188.479947 78.700782 
L 190.43617 78.712626 
L 192.392393 78.724135 
L 194.348616 78.735325 
L 196.304839 78.746208 
L 198.261062 78.756797 
L 200.217285 78.767104 
L 202.173508 78.77714 
L 204.129731 78.786915 
L 206.085954 78.796439 
L 208.042177 78.805722 
L 209.9984 78.814773 
L 211.954622 78.8236 
" style="fill:none;stroke:#000000;stroke-dasharray:5.55,2.4;stroke-dashoffset:0;stroke-width:1.5;"/>
   </g>
   <g id="patch_3">
    <path d="M 45.57786 82.088367 
L 45.57786 25.8 
" style="fill:none;stroke:#000000;stroke-linecap:square;stroke-linejoin:miter;stroke-width:0.8;"/>
   </g>
   <g id="patch_4">
    <path d="M 219.877325 82.088367 
L 219.877325 25.8 
" style="fill:none;stroke:#000000;stroke-linecap:square;stroke-linejoin:miter;stroke-width:0.8;"/>
   </g>
   <g id="patch_5">
    <path d="M 45.57786 82.088367 
L 219.877325 82.088367 
" style="fill:none;stroke:#000000;stroke-linecap:square;stroke-linejoin:miter;stroke-width:0.8;"/>
   </g>
   <g id="patch_6">
    <path d="M 45.57786 25.8 
L 219.877325 25.8 
" style="fill:none;stroke:#000000;stroke-linecap:square;stroke-linejoin:miter;stroke-width:0.8;"/>
   </g>
   <g id="text_6">
    <!-- Difference $\Delta=\theta_{calc}-\theta_{exct}$ -->
    <g transform="translate(64.634196 19.8)scale(0.12 -0.12)">
     <defs>
      <path d="M 5.203125 68 
L 5.203125 65.390625 
C 12.09375 65.390625 13.203125 65.390625 13.203125 60.90625 
L 13.203125 7.078125 
C 13.203125 2.59375 12.09375 2.59375 5.203125 2.59375 
L 5.203125 0 
L 37 0 
C 53.09375 0 66 14.734375 66 33.4375 
C 66 52.25 53.296875 68 37 68 
z
M 23.796875 2.59375 
C 19.796875 2.59375 19.59375 3.09375 19.59375 6.46875 
L 19.59375 61.5 
C 19.59375 64.890625 19.796875 65.390625 23.796875 65.390625 
L 35 65.390625 
C 43.296875 65.390625 58.59375 60.515625 58.59375 33.4375 
C 58.59375 19.40625 54.5 13.734375 52.59375 11.046875 
C 50.203125 7.96875 44.5 2.59375 35 2.59375 
z
" id="CMR17-68"/>
      <path d="M 15.5 61.890625 
C 15.5 64.09375 13.703125 66 11.40625 66 
C 9.203125 66 7.296875 64.1875 7.296875 61.890625 
C 7.296875 59.6875 9.09375 57.796875 11.40625 57.796875 
C 13.59375 57.796875 15.5 59.59375 15.5 61.890625 
z
M 3.796875 42.890625 
L 3.796875 40.296875 
C 9.40625 40.296875 10.203125 39.6875 10.203125 34.859375 
L 10.203125 6.921875 
C 10.203125 3.09375 9.796875 2.59375 3.40625 2.59375 
L 3.40625 0 
C 5.796875 0.1875 10.09375 0.1875 12.59375 0.1875 
C 15 0.1875 19.09375 0.1875 21.40625 0 
L 21.40625 2.59375 
C 15.5 2.59375 15.296875 3.203125 15.296875 6.8125 
L 15.296875 44 
z
" id="CMR17-105"/>
      <path d="M 39.90625 40.390625 
L 51.296875 40.390625 
L 51.296875 43 
L 39.703125 43 
L 39.703125 55 
C 39.703125 63.234375 43.90625 68.390625 48.203125 68.390625 
C 49.5 68.390625 51 68 52 67.296875 
C 51.203125 67.09375 49.09375 66.40625 49.09375 63.921875 
C 49.09375 61.34375 51.09375 60.546875 52.5 60.546875 
C 53.90625 60.546875 55.90625 61.34375 55.90625 63.921875 
C 55.90625 67.703125 52.296875 70 48.296875 70 
C 44.40625 70 41.203125 68.09375 38.703125 65.71875 
C 36.40625 68.984375 32.59375 70 28.703125 70 
C 20.90625 70 9.90625 65.515625 9.90625 54.59375 
L 9.90625 43 
L 1.90625 43 
L 1.90625 40.390625 
L 9.90625 40.390625 
L 9.90625 6.890625 
C 9.90625 3.09375 9.5 2.59375 3.09375 2.59375 
L 3.09375 0 
C 5.5 0.1875 9.90625 0.1875 12.40625 0.1875 
C 15 0.1875 19.40625 0.1875 21.796875 0 
L 21.796875 2.59375 
C 15.40625 2.59375 15 3 15 6.890625 
L 15 40.390625 
L 34.796875 40.390625 
L 34.796875 6.890625 
C 34.796875 3.09375 34.40625 2.59375 28 2.59375 
L 28 0 
C 30.40625 0.1875 35 0.1875 37.59375 0.1875 
C 40.5 0.1875 45.59375 0.1875 48.296875 0 
L 48.296875 2.59375 
C 41.09375 2.59375 39.90625 2.59375 39.90625 7.09375 
z
M 14.796875 43 
L 14.796875 54.59375 
C 14.796875 63.625 21.796875 68.390625 28.5 68.390625 
C 30 68.390625 33.90625 68.09375 36.296875 65.90625 
C 34.5 65.8125 32.796875 65.015625 32.796875 62.53125 
C 32.796875 59.953125 35.09375 59.265625 35.296875 59.265625 
C 34.796875 57.484375 34.796875 55.5 34.796875 54.796875 
L 34.796875 43 
z
" id="CMR17-11"/>
      <path d="M 38.09375 23.484375 
C 38.5 23.890625 38.5 24.09375 38.5 25.09375 
C 38.5 35.171875 33.09375 44 21.703125 44 
C 11.09375 44 2.703125 33.984375 2.703125 21.78125 
C 2.703125 8.65625 12.203125 -1 22.796875 -1 
C 34 -1 38.40625 9.671875 38.40625 11.796875 
C 38.40625 12.5 37.796875 12.5 37.59375 12.5 
C 36.90625 12.5 36.796875 12.296875 36.40625 11.078125 
C 34.203125 4.21875 28.703125 0.796875 23.5 0.796875 
C 19.203125 0.796875 14.90625 3.21875 12.203125 7.65625 
C 9.09375 12.796875 9.09375 18.75 9.09375 23.484375 
z
M 9.203125 25 
C 9.90625 39.234375 17.59375 42.390625 21.59375 42.390625 
C 28.40625 42.390625 33 36.0625 33.09375 25 
z
" id="CMR17-101"/>
      <path d="M 15 23.703125 
C 15 33.34375 19.09375 42.390625 26.59375 42.390625 
C 27.296875 42.390625 28 42.296875 28.703125 41.984375 
C 28.703125 41.984375 26.5 41.28125 26.5 38.671875 
C 26.5 36.265625 28.40625 35.265625 29.90625 35.265625 
C 31.09375 35.265625 33.296875 35.96875 33.296875 38.78125 
C 33.296875 41.984375 30.09375 44 26.703125 44 
C 19.09375 44 15.796875 36.5625 14.796875 33.046875 
L 14.703125 33.046875 
L 14.703125 44 
L 3.09375 42.890625 
L 3.09375 40.28125 
C 9 40.28125 9.90625 39.6875 9.90625 34.859375 
L 9.90625 6.921875 
C 9.90625 3.09375 9.5 2.59375 3.09375 2.59375 
L 3.09375 0 
C 5.5 0.1875 10.09375 0.1875 12.703125 0.1875 
C 15.59375 0.1875 20.703125 0.1875 23.40625 0 
L 23.40625 2.59375 
C 16.203125 2.59375 15 2.59375 15 7.109375 
z
" id="CMR17-114"/>
      <path d="M 41.5 30.53125 
C 41.5 35.65625 40.5 44 28.703125 44 
C 20.796875 44 16.703125 37.875 15.203125 33.84375 
L 15.09375 33.84375 
L 15.09375 44 
L 3.296875 42.890625 
L 3.296875 40.28125 
C 9.203125 40.28125 10.09375 39.6875 10.09375 34.859375 
L 10.09375 6.921875 
C 10.09375 3.09375 9.703125 2.59375 3.296875 2.59375 
L 3.296875 0 
C 5.703125 0.1875 10.09375 0.1875 12.703125 0.1875 
C 15.296875 0.1875 19.796875 0.1875 22.203125 0 
L 22.203125 2.59375 
C 15.796875 2.59375 15.40625 3 15.40625 6.921875 
L 15.40625 26.21875 
C 15.40625 35.453125 21 42.390625 28 42.390625 
C 35.40625 42.390625 36.203125 35.765625 36.203125 30.9375 
L 36.203125 6.921875 
C 36.203125 3.09375 35.796875 2.59375 29.40625 2.59375 
L 29.40625 0 
C 31.796875 0.1875 36.203125 0.1875 38.796875 0.1875 
C 41.40625 0.1875 45.90625 0.1875 48.296875 0 
L 48.296875 2.59375 
C 41.90625 2.59375 41.5 3 41.5 6.921875 
z
" id="CMR17-110"/>
      <path d="M 34.90625 35 
C 33 35 30.203125 35 30.203125 31.484375 
C 30.203125 28.6875 32.5 27.890625 33.796875 27.890625 
C 34.5 27.890625 37.40625 28.1875 37.40625 31.6875 
C 37.40625 38.6875 30.59375 44 22.90625 44 
C 12.296875 44 3.296875 34.390625 3.296875 21.546875 
C 3.296875 8.140625 12.703125 -1 22.90625 -1 
C 35.296875 -1 38.40625 10.5625 38.40625 11.671875 
C 38.40625 12.078125 38.296875 12.375 37.59375 12.375 
C 36.90625 12.375 36.796875 12.28125 36.40625 10.96875 
C 33.796875 2.8125 28.09375 0.796875 23.796875 0.796875 
C 17.40625 0.796875 9.703125 6.734375 9.703125 21.640625 
C 9.703125 36.84375 17.09375 42.1875 23 42.1875 
C 26.90625 42.1875 32.703125 40.34375 34.90625 35 
z
" id="CMR17-99"/>
      <path d="M 40.59375 69.296875 
C 39.796875 71 39.40625 71 38.59375 71 
C 37.40625 71 37.296875 70.796875 36.59375 69.390625 
L 4.203125 1.6875 
C 4.09375 1.5 3.703125 0.59375 3.703125 0.5 
C 3.703125 0.09375 3.796875 0 5.59375 0 
L 71.5 0 
C 73.296875 0 73.40625 0.09375 73.40625 0.5 
C 73.40625 0.59375 73 1.5 72.90625 1.6875 
z
M 36.09375 63.375 
L 63.796875 5.59375 
L 8.296875 5.59375 
z
" id="CMR17-1"/>
      <path d="M 64.296875 32 
C 65.796875 32 67.296875 32 67.296875 33.6875 
C 67.296875 35.5 65.59375 35.5 63.90625 35.5 
L 8 35.5 
C 6.296875 35.5 4.59375 35.5 4.59375 33.6875 
C 4.59375 32 6.09375 32 7.59375 32 
z
M 63.90625 14.484375 
C 65.59375 14.484375 67.296875 14.484375 67.296875 16.296875 
C 67.296875 18 65.796875 18 64.296875 18 
L 7.59375 18 
C 6.09375 18 4.59375 18 4.59375 16.296875 
C 4.59375 14.484375 6.296875 14.484375 8 14.484375 
z
" id="CMR17-61"/>
      <path d="M 44.296875 50 
C 44.296875 60.140625 41.09375 70 32.90625 70 
C 18.90625 70 4 40.859375 4 18.984375 
C 4 14.40625 5 -1 15.5 -1 
C 29.09375 -1 44.296875 27.421875 44.296875 50 
z
M 14 36 
C 15.5 41.859375 17.59375 50.203125 21.59375 57.265625 
C 24.90625 63.21875 28.40625 67.984375 32.796875 67.984375 
C 36.09375 67.984375 38.296875 65.203125 38.296875 55.671875 
C 38.296875 52.09375 38 47.125 35.09375 36 
z
M 34.40625 33 
C 31.90625 23.25 29.796875 17 26.203125 10.734375 
C 23.296875 5.65625 19.796875 1 15.59375 1 
C 12.5 1 10 3.375 10 13.21875 
C 10 19.671875 11.59375 26.4375 13.203125 33 
z
" id="CMMI12-18"/>
      <path d="M 39.09375 38 
C 37.203125 38 36.296875 38 34.90625 36.796875 
C 34.296875 36.296875 33.203125 34.796875 33.203125 33.1875 
C 33.203125 31.1875 34.703125 29.984375 36.59375 29.984375 
C 39 29.984375 41.703125 31.984375 41.703125 35.984375 
C 41.703125 40.484375 37.09375 44 30.203125 44 
C 17.09375 44 4 30.1875 4 15.796875 
C 4 6.96875 9.40625 -1 19.59375 -1 
C 33.203125 -1 41.796875 9.71875 41.796875 11.03125 
C 41.796875 11.640625 41.203125 12.140625 40.796875 12.140625 
C 40.5 12.140625 40.40625 12.046875 39.5 11.125 
C 33.09375 2.515625 23.59375 1 19.796875 1 
C 12.90625 1 10.703125 7.078125 10.703125 12.140625 
C 10.703125 15.6875 12.40625 25.53125 16 32.390625 
C 18.59375 37.09375 24 41.984375 30.296875 41.984375 
C 31.59375 41.984375 37.09375 41.8125 39.09375 38 
z
" id="CMMI12-99"/>
      <path d="M 30.09375 11.859375 
C 29.59375 10.171875 29.59375 9.96875 28.203125 8.078125 
C 26 5.28125 21.59375 1 16.90625 1 
C 12.796875 1 10.5 4.6875 10.5 10.5625 
C 10.5 16.0625 13.59375 27.234375 15.5 31.421875 
C 18.90625 38.40625 23.59375 41.984375 27.5 41.984375 
C 34.09375 41.984375 35.40625 33.8125 35.40625 33.015625 
C 35.40625 32.921875 35.09375 31.625 35 31.421875 
z
M 36.5 37.40625 
C 35.40625 40 32.703125 44 27.5 44 
C 16.203125 44 4 29.421875 4 14.65625 
C 4 4.78125 9.796875 -1 16.59375 -1 
C 22.09375 -1 26.796875 3.28125 29.59375 6.578125 
C 30.59375 0.6875 35.296875 -1 38.296875 -1 
C 41.296875 -1 43.703125 0.796875 45.5 4.375 
C 47.09375 7.75 48.5 13.828125 48.5 14.21875 
C 48.5 14.71875 48.09375 15.125 47.5 15.125 
C 46.59375 15.125 46.5 14.625 46.09375 13.125 
C 44.59375 7.265625 42.703125 1 38.59375 1 
C 35.703125 1 35.5 3.578125 35.5 5.5625 
C 35.5 7.859375 35.796875 8.953125 36.703125 12.828125 
C 37.40625 15.3125 37.90625 17.5 38.703125 20.390625 
C 42.40625 35.3125 43.296875 38.890625 43.296875 39.5 
C 43.296875 40.890625 42.203125 42 40.703125 42 
C 37.5 42 36.703125 38.5 36.5 37.3125 
z
" id="CMMI12-97"/>
      <path d="M 25.40625 66.484375 
C 25.5 66.890625 25.703125 67.484375 25.703125 67.984375 
C 25.703125 69 24.703125 69 24.5 69 
C 24.40625 69 20.796875 68.6875 19 68.484375 
C 17.296875 68.390625 15.796875 68.1875 14 68.09375 
C 11.59375 67.890625 10.90625 67.796875 10.90625 65.984375 
C 10.90625 64.984375 11.90625 64.984375 12.90625 64.984375 
C 18 64.984375 18 64.09375 18 63.109375 
C 18 62.703125 18 62.515625 17.5 60.71875 
L 5.09375 11.421875 
C 4.796875 10.328125 4.59375 9.53125 4.59375 7.953125 
C 4.59375 2.984375 8.296875 -1 13.40625 -1 
C 16.703125 -1 18.90625 1.1875 20.5 4.265625 
C 22.203125 7.546875 23.59375 13.8125 23.59375 14.203125 
C 23.59375 14.703125 23.203125 15.109375 22.59375 15.109375 
C 21.703125 15.109375 21.59375 14.609375 21.203125 13.109375 
C 19.40625 6.265625 17.59375 1 13.59375 1 
C 10.59375 1 10.59375 4.171875 10.59375 5.5625 
C 10.59375 5.96875 10.59375 8.046875 11.296875 10.828125 
z
" id="CMMI12-108"/>
      <path d="M 65.90625 23 
C 67.59375 23 69.40625 23 69.40625 25 
C 69.40625 27 67.59375 27 65.90625 27 
L 11.796875 27 
C 10.09375 27 8.296875 27 8.296875 25 
C 8.296875 23 10.09375 23 11.796875 23 
z
" id="CMSY10-0"/>
      <path d="M 17.90625 23 
C 20.59375 23 27.40625 23.1875 32.203125 25 
C 39.796875 27.90625 40.5 33.75 40.5 35.546875 
C 40.5 39.984375 36.703125 44 30.09375 44 
C 19.59375 44 4.5 34.453125 4.5 16.65625 
C 4.5 6.25 10.5 -1 19.59375 -1 
C 33.203125 -1 41.796875 9.515625 41.796875 10.796875 
C 41.796875 11.390625 41.203125 11.890625 40.796875 11.890625 
C 40.5 11.890625 40.40625 11.796875 39.5 10.90625 
C 33.09375 2.484375 23.59375 1 19.796875 1 
C 14.09375 1 11.09375 5.453125 11.09375 12.78125 
C 11.09375 14.171875 11.09375 16.65625 12.59375 23 
z
M 13.09375 25 
C 17.40625 40.484375 26.90625 41.984375 30.09375 41.984375 
C 34.5 41.984375 37.5 39.375 37.5 35.546875 
C 37.5 25 21.5 25 17.296875 25 
z
" id="CMMI12-101"/>
      <path d="M 47.40625 41 
C 44.203125 40.390625 43 37.984375 43 36.09375 
C 43 33.6875 44.90625 32.890625 46.296875 32.890625 
C 49.296875 32.890625 51.40625 35.484375 51.40625 38.1875 
C 51.40625 42.09375 46.59375 44 42.40625 44 
C 36.296875 44 32.90625 38.296875 32 36.390625 
C 29.703125 43.59375 23.5 44 21.703125 44 
C 11.5 44 6.09375 31.140625 6.09375 28.890625 
C 6.09375 28.484375 6.5 27.96875 7.203125 27.96875 
C 8 27.96875 8.203125 28.578125 8.40625 28.984375 
C 11.796875 40.1875 18.5 41.984375 21.40625 41.984375 
C 25.90625 41.984375 26.796875 38.09375 26.796875 35.6875 
C 26.796875 33.484375 26.203125 31.140625 25 26.21875 
L 21.59375 12.15625 
C 20.09375 6.09375 17.203125 1 11.90625 1 
C 11.40625 1 8.90625 1 6.796875 1.96875 
C 10.40625 2.59375 11.203125 5.59375 11.203125 6.796875 
C 11.203125 8.796875 9.703125 10 7.796875 10 
C 5.40625 10 2.796875 7.890625 2.796875 4.6875 
C 2.796875 0.890625 7.5 -1 11.796875 -1 
C 16.59375 -1 20 2.390625 22.09375 6.484375 
C 23.703125 1 28.703125 -1 32.40625 -1 
C 42.59375 -1 48 11.734375 48 14 
C 48 14.515625 47.59375 14.921875 47 14.921875 
C 46.09375 14.921875 46 14.40625 45.703125 13.59375 
C 43 4.6875 37.203125 1 32.703125 1 
C 29.203125 1 27.296875 3.1875 27.296875 7.296875 
C 27.296875 9.484375 27.703125 11.125 29.296875 17.90625 
L 32.796875 31.859375 
C 34.296875 37.890625 37.703125 41.984375 42.296875 41.984375 
C 42.5 41.984375 45.296875 41.984375 47.40625 41 
z
" id="CMMI12-120"/>
      <path d="M 20.09375 40.09375 
L 29.296875 40.09375 
C 31.203125 40.09375 32.203125 40.09375 32.203125 41.890625 
C 32.203125 43 31.59375 43 29.59375 43 
L 20.796875 43 
L 24.5 57.25 
C 24.90625 58.625 24.90625 58.8125 24.90625 59.5 
C 24.90625 61.09375 23.59375 62 22.296875 62 
C 21.5 62 19.203125 61.6875 18.40625 58.53125 
L 14.5 43 
L 5.09375 43 
C 3.09375 43 2.203125 43 2.203125 41.09375 
C 2.203125 40.09375 2.90625 40.09375 4.796875 40.09375 
L 13.703125 40.09375 
L 7.09375 13.765625 
C 6.296875 10.265625 6 9.265625 6 7.96875 
C 6 3.28125 9.296875 -1 14.90625 -1 
C 25 -1 30.40625 13.5625 30.40625 14.265625 
C 30.40625 14.859375 30 15.15625 29.40625 15.15625 
C 29.203125 15.15625 28.796875 15.15625 28.59375 14.75 
C 28.5 14.65625 28.40625 14.5625 27.703125 12.96875 
C 25.59375 7.96875 21 1 15.203125 1 
C 12.203125 1 12 3.484375 12 5.6875 
C 12 5.78125 12 7.671875 12.296875 8.875 
z
" id="CMMI12-116"/>
     </defs>
     <use transform="scale(0.996264)" xlink:href="#CMR17-68"/>
     <use transform="translate(70.393556 0)scale(0.996264)" xlink:href="#CMR17-105"/>
     <use transform="translate(95.264614 0)scale(0.996264)" xlink:href="#CMR17-11"/>
     <use transform="translate(147.609292 0)scale(0.996264)" xlink:href="#CMR17-101"/>
     <use transform="translate(188.094952 0)scale(0.996264)" xlink:href="#CMR17-114"/>
     <use transform="translate(223.37572 0)scale(0.996264)" xlink:href="#CMR17-101"/>
     <use transform="translate(263.86138 0)scale(0.996264)" xlink:href="#CMR17-110"/>
     <use transform="translate(314.75675 0)scale(0.996264)" xlink:href="#CMR17-99"/>
     <use transform="translate(355.242411 0)scale(0.996264)" xlink:href="#CMR17-101"/>
     <use transform="translate(425.804037 0)scale(0.996264)" xlink:href="#CMR17-1"/>
     <use transform="translate(530.397636 0)scale(0.996264)" xlink:href="#CMR17-61"/>
     <use transform="translate(629.786433 0)scale(0.996264)" xlink:href="#CMMI12-18"/>
     <use transform="translate(675.246223 -14.943915)scale(0.697382)" xlink:href="#CMMI12-99"/>
     <use transform="translate(704.634355 -14.943915)scale(0.697382)" xlink:href="#CMMI12-97"/>
     <use transform="translate(740.479701 -14.943915)scale(0.697382)" xlink:href="#CMMI12-108"/>
     <use transform="translate(762.353485 -14.943915)scale(0.697382)" xlink:href="#CMMI12-99"/>
     <use transform="translate(814.378956 0)scale(0.996264)" xlink:href="#CMSY10-0"/>
     <use transform="translate(914.00563 0)scale(0.996264)" xlink:href="#CMMI12-18"/>
     <use transform="translate(959.46542 -14.943915)scale(0.697382)" xlink:href="#CMMI12-101"/>
     <use transform="translate(991.113676 -14.943915)scale(0.697382)" xlink:href="#CMMI12-120"/>
     <use transform="translate(1029.917336 -14.943915)scale(0.697382)" xlink:href="#CMMI12-99"/>
     <use transform="translate(1059.305467 -14.943915)scale(0.697382)" xlink:href="#CMMI12-116"/>
    </g>
   </g>
   <g id="legend_1">
    <g id="patch_7">
     <path d="M 159.399989 48.335616 
L 212.877325 48.335616 
Q 214.877325 48.335616 214.877325 46.335616 
L 214.877325 32.8 
Q 214.877325 30.8 212.877325 30.8 
L 159.399989 30.8 
Q 157.399989 30.8 157.399989 32.8 
L 157.399989 46.335616 
Q 157.399989 48.335616 159.399989 48.335616 
z
" style="fill:#ffffff;opacity:0.8;stroke:#cccccc;stroke-linejoin:miter;"/>
    </g>
    <g id="line2d_7">
     <path d="M 161.399989 38.898438 
L 181.399989 38.898438 
" style="fill:none;stroke:#000000;stroke-dasharray:5.55,2.4;stroke-dashoffset:0;stroke-width:1.5;"/>
    </g>
    <g id="line2d_8"/>
    <g id="text_7">
     <!-- $n=$0 -->
     <g transform="translate(189.399989 42.398438)scale(0.1 -0.1)">
      <defs>
       <path d="M 20.59375 29.21875 
C 20.796875 29.828125 23.296875 34.8125 27 38 
C 29.59375 40.390625 33 41.984375 36.90625 41.984375 
C 40.90625 41.984375 42.296875 39 42.296875 35.015625 
C 42.296875 29.328125 38.203125 17.953125 36.203125 12.5625 
C 35.296875 10.171875 34.796875 8.875 34.796875 7.078125 
C 34.796875 2.59375 37.90625 -1 42.703125 -1 
C 52 -1 55.5 13.65625 55.5 14.265625 
C 55.5 14.765625 55.09375 15.15625 54.5 15.15625 
C 53.59375 15.15625 53.5 14.859375 53 13.15625 
C 50.703125 4.984375 46.90625 1 43 1 
C 42 1 40.40625 1.09375 40.40625 4.28125 
C 40.40625 6.78125 41.5 9.765625 42.09375 11.171875 
C 44.09375 16.65625 48.296875 27.828125 48.296875 33.515625 
C 48.296875 39.5 44.796875 44 37.203125 44 
C 28.296875 44 23.59375 37.703125 21.796875 35.203125 
C 21.5 40.890625 17.40625 44 13 44 
C 9.796875 44 7.59375 42.09375 5.90625 38.703125 
C 4.09375 35.109375 2.703125 29.125 2.703125 28.71875 
C 2.703125 28.328125 3.09375 27.828125 3.796875 27.828125 
C 4.59375 27.828125 4.703125 27.921875 5.296875 30.21875 
C 6.90625 36.3125 8.703125 41.984375 12.703125 41.984375 
C 15 41.984375 15.796875 40.390625 15.796875 37.40625 
C 15.796875 35.203125 14.796875 31.3125 14.09375 28.234375 
L 11.296875 17.453125 
C 10.90625 15.5625 9.796875 11.0625 9.296875 9.265625 
C 8.59375 6.671875 7.5 1.984375 7.5 1.484375 
C 7.5 0.09375 8.59375 -1 10.09375 -1 
C 11.296875 -1 12.703125 -0.40625 13.5 1.09375 
C 13.703125 1.59375 14.59375 5.078125 15.09375 7.078125 
L 17.296875 16.0625 
z
" id="CMMI12-110"/>
      </defs>
      <use transform="scale(0.996264)" xlink:href="#CMMI12-110"/>
      <use transform="translate(85.904056 0)scale(0.996264)" xlink:href="#CMR17-61"/>
      <use transform="translate(157.618844 0)scale(0.996264)" xlink:href="#CMR17-48"/>
     </g>
    </g>
   </g>
  </g>
  <g id="axes_2">
   <g id="patch_8">
    <path d="M 268.235175 82.088367 
L 442.534641 82.088367 
L 442.534641 25.8 
L 268.235175 25.8 
z
" style="fill:#ffffff;"/>
   </g>
   <g id="matplotlib.axis_3">
    <g id="xtick_4">
     <g id="line2d_9">
      <g>
       <use style="stroke:#000000;stroke-width:0.8;" x="276.157878" xlink:href="#m3d158e77f3" y="82.088367"/>
      </g>
     </g>
     <g id="text_8">
      <!-- $\mathdefault{0}$ -->
      <g transform="translate(273.667211 96.006865)scale(0.1 -0.1)">
       <use transform="scale(0.996264)" xlink:href="#CMR17-48"/>
      </g>
     </g>
    </g>
    <g id="xtick_5">
     <g id="line2d_10">
      <g>
       <use style="stroke:#000000;stroke-width:0.8;" x="341.36531" xlink:href="#m3d158e77f3" y="82.088367"/>
      </g>
     </g>
     <g id="text_9">
      <!-- $\mathdefault{1}$ -->
      <g transform="translate(338.874643 96.006865)scale(0.1 -0.1)">
       <use transform="scale(0.996264)" xlink:href="#CMR17-49"/>
      </g>
     </g>
    </g>
    <g id="xtick_6">
     <g id="line2d_11">
      <g>
       <use style="stroke:#000000;stroke-width:0.8;" x="406.572742" xlink:href="#m3d158e77f3" y="82.088367"/>
      </g>
     </g>
     <g id="text_10">
      <!-- $\mathdefault{2}$ -->
      <g transform="translate(404.082075 96.006865)scale(0.1 -0.1)">
       <use transform="scale(0.996264)" xlink:href="#CMR17-50"/>
      </g>
     </g>
    </g>
   </g>
   <g id="matplotlib.axis_4">
    <g id="ytick_3">
     <g id="line2d_12">
      <g>
       <use style="stroke:#000000;stroke-width:0.8;" x="268.235175" xlink:href="#mc66646910e" y="79.529805"/>
      </g>
     </g>
     <g id="text_11">
      <!-- $\mathdefault{0.00}$ -->
      <g transform="translate(243.523761 82.989054)scale(0.1 -0.1)">
       <use transform="scale(0.996264)" xlink:href="#CMR17-48"/>
       <use transform="translate(45.690477 0)scale(0.996264)" xlink:href="#CMMI12-58"/>
       <use transform="translate(72.787654 0)scale(0.996264)" xlink:href="#CMR17-48"/>
       <use transform="translate(118.478131 0)scale(0.996264)" xlink:href="#CMR17-48"/>
      </g>
     </g>
    </g>
    <g id="ytick_4">
     <g id="line2d_13">
      <g>
       <use style="stroke:#000000;stroke-width:0.8;" x="268.235175" xlink:href="#mc66646910e" y="45.42076"/>
      </g>
     </g>
     <g id="text_12">
      <!-- $\mathdefault{0.01}$ -->
      <g transform="translate(243.523761 48.880009)scale(0.1 -0.1)">
       <use transform="scale(0.996264)" xlink:href="#CMR17-48"/>
       <use transform="translate(45.690477 0)scale(0.996264)" xlink:href="#CMMI12-58"/>
       <use transform="translate(72.787654 0)scale(0.996264)" xlink:href="#CMR17-48"/>
       <use transform="translate(118.478131 0)scale(0.996264)" xlink:href="#CMR17-49"/>
      </g>
     </g>
    </g>
   </g>
   <g id="line2d_14">
    <path clip-path="url(#p5587b5544e)" d="M 276.157878 79.529805 
L 278.114101 28.358562 
L 280.070324 51.088536 
L 282.026547 60.459844 
L 283.98277 65.201458 
L 285.938993 68.04938 
L 287.895216 69.94628 
L 289.851439 71.298992 
L 291.807662 72.311389 
L 293.763885 73.096829 
L 295.720108 73.723352 
L 297.676331 74.234265 
L 299.632554 74.658436 
L 301.588777 75.015851 
L 303.545 75.320784 
L 305.501223 75.583698 
L 307.457446 75.812439 
L 309.413669 76.013004 
L 311.369892 76.190053 
L 313.326115 76.347263 
L 315.282338 76.487574 
L 317.238561 76.613361 
L 319.194783 76.726565 
L 321.151006 76.828786 
L 323.107229 76.921353 
L 325.063452 77.005382 
L 327.019675 77.081811 
L 328.975898 77.151436 
L 330.932121 77.214935 
L 332.888344 77.27289 
L 334.844567 77.325799 
L 336.80079 77.374093 
L 338.757013 77.418142 
L 340.713236 77.458269 
L 342.669459 77.494751 
L 344.625682 77.527829 
L 346.581905 77.557708 
L 348.538128 77.584568 
L 350.494351 77.608559 
L 352.450574 77.629809 
L 354.406797 77.648425 
L 356.36302 77.664491 
L 358.319243 77.678077 
L 360.275466 77.689229 
L 362.231689 77.69798 
L 364.187911 77.704344 
L 366.144134 77.708318 
L 368.100357 77.70988 
L 370.05658 77.708991 
L 372.012803 77.70559 
L 373.969026 77.699598 
L 375.925249 77.69091 
L 377.881472 77.679395 
L 379.837695 77.664893 
L 381.793918 77.647211 
L 383.750141 77.626116 
L 385.706364 77.601329 
L 387.662587 77.572518 
L 389.61881 77.539286 
L 391.575033 77.501157 
L 393.531256 77.45756 
L 395.487479 77.407804 
L 397.443702 77.351054 
L 399.399925 77.286284 
L 401.356148 77.212233 
L 403.312371 77.127328 
L 405.268594 77.029588 
L 407.224817 76.916484 
L 409.181039 76.784741 
L 411.137262 76.630039 
L 413.093485 76.446572 
L 415.049708 76.226345 
L 417.005931 75.95804 
L 418.962154 75.625101 
L 420.918377 75.202306 
L 422.8746 74.649254 
L 424.830823 73.89693 
L 426.787046 72.816938 
L 428.743269 71.14015 
L 430.699492 68.191134 
L 432.655715 61.656693 
L 434.611938 34.981021 
" style="fill:none;stroke:#000000;stroke-dasharray:5.55,2.4;stroke-dashoffset:0;stroke-width:1.5;"/>
   </g>
   <g id="patch_9">
    <path d="M 268.235175 82.088367 
L 268.235175 25.8 
" style="fill:none;stroke:#000000;stroke-linecap:square;stroke-linejoin:miter;stroke-width:0.8;"/>
   </g>
   <g id="patch_10">
    <path d="M 442.534641 82.088367 
L 442.534641 25.8 
" style="fill:none;stroke:#000000;stroke-linecap:square;stroke-linejoin:miter;stroke-width:0.8;"/>
   </g>
   <g id="patch_11">
    <path d="M 268.235175 82.088367 
L 442.534641 82.088367 
" style="fill:none;stroke:#000000;stroke-linecap:square;stroke-linejoin:miter;stroke-width:0.8;"/>
   </g>
   <g id="patch_12">
    <path d="M 268.235175 25.8 
L 442.534641 25.8 
" style="fill:none;stroke:#000000;stroke-linecap:square;stroke-linejoin:miter;stroke-width:0.8;"/>
   </g>
   <g id="text_13">
    <!-- Difference $\Delta/\theta_{exct}$ in [%] -->
    <g transform="translate(299.094198 19.8)scale(0.12 -0.12)">
     <defs>
      <path d="M 42.90625 71.296875 
C 42.90625 71.390625 43.5 72.890625 43.5 73.09375 
C 43.5 74.296875 42.5 75 41.703125 75 
C 41.203125 75 40.296875 75 39.5 72.796875 
L 6 -21.3125 
C 6 -21.40625 5.40625 -22.90625 5.40625 -23.109375 
C 5.40625 -24.3125 6.40625 -25 7.203125 -25 
C 7.796875 -25 8.703125 -24.90625 9.40625 -22.8125 
z
" id="CMMI12-61"/>
      <path d="M 23.5 -25 
L 23.5 -21.5 
L 14.09375 -21.5 
L 14.09375 71.484375 
L 23.5 71.484375 
L 23.5 75 
L 10.59375 75 
L 10.59375 -25 
z
" id="CMR17-91"/>
     </defs>
     <use transform="scale(0.996264)" xlink:href="#CMR17-68"/>
     <use transform="translate(70.393556 0)scale(0.996264)" xlink:href="#CMR17-105"/>
     <use transform="translate(95.264614 0)scale(0.996264)" xlink:href="#CMR17-11"/>
     <use transform="translate(147.609292 0)scale(0.996264)" xlink:href="#CMR17-101"/>
     <use transform="translate(188.094952 0)scale(0.996264)" xlink:href="#CMR17-114"/>
     <use transform="translate(223.37572 0)scale(0.996264)" xlink:href="#CMR17-101"/>
     <use transform="translate(263.86138 0)scale(0.996264)" xlink:href="#CMR17-110"/>
     <use transform="translate(314.75675 0)scale(0.996264)" xlink:href="#CMR17-99"/>
     <use transform="translate(355.242411 0)scale(0.996264)" xlink:href="#CMR17-101"/>
     <use transform="translate(425.804037 0)scale(0.996264)" xlink:href="#CMR17-1"/>
     <use transform="translate(502.723627 0)scale(0.996264)" xlink:href="#CMMI12-61"/>
     <use transform="translate(551.498546 0)scale(0.996264)" xlink:href="#CMMI12-18"/>
     <use transform="translate(596.958336 -14.943915)scale(0.697382)" xlink:href="#CMMI12-101"/>
     <use transform="translate(628.606592 -14.943915)scale(0.697382)" xlink:href="#CMMI12-120"/>
     <use transform="translate(667.410252 -14.943915)scale(0.697382)" xlink:href="#CMMI12-99"/>
     <use transform="translate(696.798383 -14.943915)scale(0.697382)" xlink:href="#CMMI12-116"/>
     <use transform="translate(752.030791 0)scale(0.996264)" xlink:href="#CMR17-105"/>
     <use transform="translate(776.901849 0)scale(0.996264)" xlink:href="#CMR17-110"/>
     <use transform="translate(857.873186 0)scale(0.996264)" xlink:href="#CMR17-91"/>
    </g>
   </g>
   <g id="legend_2">
    <g id="patch_13">
     <path d="M 328.64624 48.335616 
L 382.123576 48.335616 
Q 384.123576 48.335616 384.123576 46.335616 
L 384.123576 32.8 
Q 384.123576 30.8 382.123576 30.8 
L 328.64624 30.8 
Q 326.64624 30.8 326.64624 32.8 
L 326.64624 46.335616 
Q 326.64624 48.335616 328.64624 48.335616 
z
" style="fill:#ffffff;opacity:0.8;stroke:#cccccc;stroke-linejoin:miter;"/>
    </g>
    <g id="line2d_15">
     <path d="M 330.64624 38.898438 
L 350.64624 38.898438 
" style="fill:none;stroke:#000000;stroke-dasharray:5.55,2.4;stroke-dashoffset:0;stroke-width:1.5;"/>
    </g>
    <g id="line2d_16"/>
    <g id="text_14">
     <!-- $n=$0 -->
     <g transform="translate(358.64624 42.398438)scale(0.1 -0.1)">
      <use transform="scale(0.996264)" xlink:href="#CMMI12-110"/>
      <use transform="translate(85.904056 0)scale(0.996264)" xlink:href="#CMR17-61"/>
      <use transform="translate(157.618844 0)scale(0.996264)" xlink:href="#CMR17-48"/>
     </g>
    </g>
   </g>
  </g>
  <g id="axes_3">
   <g id="patch_14">
    <path d="M 45.57786 155.263243 
L 219.877325 155.263243 
L 219.877325 98.974877 
L 45.57786 98.974877 
z
" style="fill:#ffffff;"/>
   </g>
   <g id="matplotlib.axis_5">
    <g id="xtick_7">
     <g id="line2d_17">
      <g>
       <use style="stroke:#000000;stroke-width:0.8;" x="53.500563" xlink:href="#m3d158e77f3" y="155.263243"/>
      </g>
     </g>
     <g id="text_15">
      <!-- $\mathdefault{0}$ -->
      <g transform="translate(51.009895 169.181742)scale(0.1 -0.1)">
       <use transform="scale(0.996264)" xlink:href="#CMR17-48"/>
      </g>
     </g>
    </g>
    <g id="xtick_8">
     <g id="line2d_18">
      <g>
       <use style="stroke:#000000;stroke-width:0.8;" x="104.287121" xlink:href="#m3d158e77f3" y="155.263243"/>
      </g>
     </g>
     <g id="text_16">
      <!-- $\mathdefault{1}$ -->
      <g transform="translate(101.796453 169.181742)scale(0.1 -0.1)">
       <use transform="scale(0.996264)" xlink:href="#CMR17-49"/>
      </g>
     </g>
    </g>
    <g id="xtick_9">
     <g id="line2d_19">
      <g>
       <use style="stroke:#000000;stroke-width:0.8;" x="155.073678" xlink:href="#m3d158e77f3" y="155.263243"/>
      </g>
     </g>
     <g id="text_17">
      <!-- $\mathdefault{2}$ -->
      <g transform="translate(152.58301 169.181742)scale(0.1 -0.1)">
       <use transform="scale(0.996264)" xlink:href="#CMR17-50"/>
      </g>
     </g>
    </g>
    <g id="xtick_10">
     <g id="line2d_20">
      <g>
       <use style="stroke:#000000;stroke-width:0.8;" x="205.860236" xlink:href="#m3d158e77f3" y="155.263243"/>
      </g>
     </g>
     <g id="text_18">
      <!-- $\mathdefault{3}$ -->
      <g transform="translate(203.369568 169.181742)scale(0.1 -0.1)">
       <defs>
        <path d="M 22.09375 34 
C 31 34 34.90625 26.140625 34.90625 17.09375 
C 34.90625 5.03125 28.5 0.390625 22.703125 0.390625 
C 17.40625 0.390625 8.796875 3.015625 6.09375 10.796875 
C 6.59375 10.59375 7.09375 10.59375 7.59375 10.59375 
C 10 10.59375 11.796875 12.1875 11.796875 14.796875 
C 11.796875 17.6875 9.59375 19 7.59375 19 
C 5.90625 19 3.296875 18.1875 3.296875 14.484375 
C 3.296875 5.234375 12.296875 -2 22.90625 -2 
C 34 -2 42.5 6.75 42.5 16.984375 
C 42.5 26.84375 34.5 34 25 35.09375 
C 32.59375 36.671875 39.90625 43.375 39.90625 52.390625 
C 39.90625 60.25 32 66 23 66 
C 13.90625 66 5.90625 60.34375 5.90625 52.296875 
C 5.90625 48.796875 8.5 48.1875 9.796875 48.1875 
C 11.90625 48.1875 13.703125 49.484375 13.703125 52.09375 
C 13.703125 54.6875 11.90625 56 9.796875 56 
C 9.40625 56 8.90625 56 8.5 55.796875 
C 11.40625 62.484375 19.296875 63.6875 22.796875 63.6875 
C 26.296875 63.6875 32.90625 61.96875 32.90625 52.296875 
C 32.90625 49.484375 32.5 44.546875 29.09375 40.21875 
C 26.09375 36.390625 22.703125 36.1875 19.40625 35.890625 
C 18.90625 35.890625 16.59375 35.6875 16.203125 35.6875 
C 15.5 35.59375 15.09375 35.5 15.09375 34.796875 
C 15.09375 34.09375 15.203125 34 17.203125 34 
z
" id="CMR17-51"/>
       </defs>
       <use transform="scale(0.996264)" xlink:href="#CMR17-51"/>
      </g>
     </g>
    </g>
   </g>
   <g id="matplotlib.axis_6">
    <g id="ytick_5">
     <g id="line2d_21">
      <g>
       <use style="stroke:#000000;stroke-width:0.8;" x="45.57786" xlink:href="#mc66646910e" y="152.141572"/>
      </g>
     </g>
     <g id="text_19">
      <!-- $\mathdefault{0.0000}$ -->
      <g transform="translate(10.903775 155.600822)scale(0.1 -0.1)">
       <use transform="scale(0.996264)" xlink:href="#CMR17-48"/>
       <use transform="translate(45.690477 0)scale(0.996264)" xlink:href="#CMMI12-58"/>
       <use transform="translate(72.787654 0)scale(0.996264)" xlink:href="#CMR17-48"/>
       <use transform="translate(118.478131 0)scale(0.996264)" xlink:href="#CMR17-48"/>
       <use transform="translate(164.168608 0)scale(0.996264)" xlink:href="#CMR17-48"/>
       <use transform="translate(209.859086 0)scale(0.996264)" xlink:href="#CMR17-48"/>
      </g>
     </g>
    </g>
    <g id="ytick_6">
     <g id="line2d_22">
      <g>
       <use style="stroke:#000000;stroke-width:0.8;" x="45.57786" xlink:href="#mc66646910e" y="118.401298"/>
      </g>
     </g>
     <g id="text_20">
      <!-- $\mathdefault{0.0001}$ -->
      <g transform="translate(10.903775 121.860548)scale(0.1 -0.1)">
       <use transform="scale(0.996264)" xlink:href="#CMR17-48"/>
       <use transform="translate(45.690477 0)scale(0.996264)" xlink:href="#CMMI12-58"/>
       <use transform="translate(72.787654 0)scale(0.996264)" xlink:href="#CMR17-48"/>
       <use transform="translate(118.478131 0)scale(0.996264)" xlink:href="#CMR17-48"/>
       <use transform="translate(164.168608 0)scale(0.996264)" xlink:href="#CMR17-48"/>
       <use transform="translate(209.859086 0)scale(0.996264)" xlink:href="#CMR17-49"/>
      </g>
     </g>
    </g>
   </g>
   <g id="line2d_23">
    <path clip-path="url(#p785e19f576)" d="M 53.500563 152.141572 
L 55.02416 101.533439 
L 56.547756 124.035809 
L 58.071353 133.329702 
L 59.59495 138.048699 
L 61.118547 140.896569 
L 62.642143 142.804768 
L 64.16574 144.175281 
L 65.689337 145.209541 
L 67.212934 146.019549 
L 68.73653 146.672531 
L 70.260127 147.211272 
L 71.783724 147.664294 
L 73.30732 148.051342 
L 74.830917 148.386517 
L 76.354514 148.680157 
L 77.878111 148.940013 
L 79.401707 149.17201 
L 80.925304 149.380754 
L 82.448901 149.56988 
L 83.972497 149.742291 
L 85.496094 149.900339 
L 87.019691 150.045945 
L 88.543288 150.180694 
L 90.066884 150.305905 
L 91.590481 150.422685 
L 93.114078 150.53197 
L 94.637675 150.634555 
L 96.161271 150.73112 
L 97.684868 150.822252 
L 99.208465 150.908456 
L 100.732061 150.990173 
L 102.255658 151.067787 
L 103.779255 151.141634 
L 105.302852 151.212011 
L 106.826448 151.27918 
L 108.350045 151.343372 
L 109.873642 151.404793 
L 111.397239 151.463628 
L 112.920835 151.52004 
L 114.444432 151.574177 
L 115.968029 151.626172 
L 117.491625 151.676145 
L 119.015222 151.724203 
L 120.538819 151.770443 
L 122.062416 151.814956 
L 123.586012 151.857821 
L 125.109609 151.899113 
L 126.633206 151.938898 
L 128.156803 151.977239 
L 129.680399 152.014191 
L 131.203996 152.049807 
L 132.727593 152.084135 
L 134.251189 152.117219 
L 135.774786 152.149099 
L 137.298383 152.179814 
L 138.82198 152.209399 
L 140.345576 152.237887 
L 141.869173 152.265307 
L 143.39277 152.29169 
L 144.916367 152.31706 
L 146.439963 152.341444 
L 147.96356 152.364865 
L 149.487157 152.387346 
L 151.010753 152.408907 
L 152.53435 152.429568 
L 154.057947 152.449349 
L 155.581544 152.468267 
L 157.10514 152.486339 
L 158.628737 152.503583 
L 160.152334 152.520014 
L 161.675931 152.535646 
L 163.199527 152.550496 
L 164.723124 152.564576 
L 166.246721 152.577902 
L 167.770317 152.590485 
L 169.293914 152.602339 
L 170.817511 152.613477 
L 172.341108 152.623911 
L 173.864704 152.633652 
L 175.388301 152.642714 
L 176.911898 152.651108 
L 178.435495 152.658844 
L 179.959091 152.665936 
L 181.482688 152.672392 
L 183.006285 152.678226 
L 184.529881 152.683448 
L 186.053478 152.688068 
L 187.577075 152.692098 
L 189.100672 152.695549 
L 190.624268 152.69843 
L 192.147865 152.700754 
L 193.671462 152.70253 
L 195.195058 152.70377 
L 196.718655 152.704483 
L 198.242252 152.704681 
L 199.765849 152.704375 
L 201.289445 152.703574 
L 202.813042 152.70229 
L 204.336639 152.700534 
L 205.860236 152.698315 
L 207.383832 152.695645 
L 208.907429 152.692535 
L 210.431026 152.688995 
L 211.954622 152.685036 
" style="fill:none;stroke:#000000;stroke-dasharray:1.5,2.475;stroke-dashoffset:0;stroke-width:1.5;"/>
   </g>
   <g id="patch_15">
    <path d="M 45.57786 155.263243 
L 45.57786 98.974877 
" style="fill:none;stroke:#000000;stroke-linecap:square;stroke-linejoin:miter;stroke-width:0.8;"/>
   </g>
   <g id="patch_16">
    <path d="M 219.877325 155.263243 
L 219.877325 98.974877 
" style="fill:none;stroke:#000000;stroke-linecap:square;stroke-linejoin:miter;stroke-width:0.8;"/>
   </g>
   <g id="patch_17">
    <path d="M 45.57786 155.263243 
L 219.877325 155.263243 
" style="fill:none;stroke:#000000;stroke-linecap:square;stroke-linejoin:miter;stroke-width:0.8;"/>
   </g>
   <g id="patch_18">
    <path d="M 45.57786 98.974877 
L 219.877325 98.974877 
" style="fill:none;stroke:#000000;stroke-linecap:square;stroke-linejoin:miter;stroke-width:0.8;"/>
   </g>
   <g id="legend_3">
    <g id="patch_19">
     <path d="M 159.399989 121.510493 
L 212.877325 121.510493 
Q 214.877325 121.510493 214.877325 119.510493 
L 214.877325 105.974877 
Q 214.877325 103.974877 212.877325 103.974877 
L 159.399989 103.974877 
Q 157.399989 103.974877 157.399989 105.974877 
L 157.399989 119.510493 
Q 157.399989 121.510493 159.399989 121.510493 
z
" style="fill:#ffffff;opacity:0.8;stroke:#cccccc;stroke-linejoin:miter;"/>
    </g>
    <g id="line2d_24">
     <path d="M 161.399989 112.073314 
L 181.399989 112.073314 
" style="fill:none;stroke:#000000;stroke-dasharray:1.5,2.475;stroke-dashoffset:0;stroke-width:1.5;"/>
    </g>
    <g id="line2d_25"/>
    <g id="text_21">
     <!-- $n=$1 -->
     <g transform="translate(189.399989 115.573314)scale(0.1 -0.1)">
      <use transform="scale(0.996264)" xlink:href="#CMMI12-110"/>
      <use transform="translate(85.904056 0)scale(0.996264)" xlink:href="#CMR17-61"/>
      <use transform="translate(157.618844 0)scale(0.996264)" xlink:href="#CMR17-49"/>
     </g>
    </g>
   </g>
  </g>
  <g id="axes_4">
   <g id="patch_20">
    <path d="M 268.235175 155.263243 
L 442.534641 155.263243 
L 442.534641 98.974877 
L 268.235175 98.974877 
z
" style="fill:#ffffff;"/>
   </g>
   <g id="matplotlib.axis_7">
    <g id="xtick_11">
     <g id="line2d_26">
      <g>
       <use style="stroke:#000000;stroke-width:0.8;" x="276.157878" xlink:href="#m3d158e77f3" y="155.263243"/>
      </g>
     </g>
     <g id="text_22">
      <!-- $\mathdefault{0}$ -->
      <g transform="translate(273.667211 169.181742)scale(0.1 -0.1)">
       <use transform="scale(0.996264)" xlink:href="#CMR17-48"/>
      </g>
     </g>
    </g>
    <g id="xtick_12">
     <g id="line2d_27">
      <g>
       <use style="stroke:#000000;stroke-width:0.8;" x="326.944436" xlink:href="#m3d158e77f3" y="155.263243"/>
      </g>
     </g>
     <g id="text_23">
      <!-- $\mathdefault{1}$ -->
      <g transform="translate(324.453768 169.181742)scale(0.1 -0.1)">
       <use transform="scale(0.996264)" xlink:href="#CMR17-49"/>
      </g>
     </g>
    </g>
    <g id="xtick_13">
     <g id="line2d_28">
      <g>
       <use style="stroke:#000000;stroke-width:0.8;" x="377.730993" xlink:href="#m3d158e77f3" y="155.263243"/>
      </g>
     </g>
     <g id="text_24">
      <!-- $\mathdefault{2}$ -->
      <g transform="translate(375.240326 169.181742)scale(0.1 -0.1)">
       <use transform="scale(0.996264)" xlink:href="#CMR17-50"/>
      </g>
     </g>
    </g>
    <g id="xtick_14">
     <g id="line2d_29">
      <g>
       <use style="stroke:#000000;stroke-width:0.8;" x="428.517551" xlink:href="#m3d158e77f3" y="155.263243"/>
      </g>
     </g>
     <g id="text_25">
      <!-- $\mathdefault{3}$ -->
      <g transform="translate(426.026883 169.181742)scale(0.1 -0.1)">
       <use transform="scale(0.996264)" xlink:href="#CMR17-51"/>
      </g>
     </g>
    </g>
   </g>
   <g id="matplotlib.axis_8">
    <g id="ytick_7">
     <g id="line2d_30">
      <g>
       <use style="stroke:#000000;stroke-width:0.8;" x="268.235175" xlink:href="#mc66646910e" y="155.009705"/>
      </g>
     </g>
     <g id="text_26">
      <!-- $\mathdefault{−0.025}$ -->
      <g transform="translate(230.793682 158.468954)scale(0.1 -0.1)">
       <defs>
        <path d="M 11.40625 58.59375 
C 12.40625 58.1875 16.5 56.890625 20.703125 56.890625 
C 30 56.890625 35.09375 61.890625 38 64.6875 
C 38 65.484375 38 66 37.40625 66 
C 37.296875 66 37.09375 66 36.296875 65.59375 
C 32.796875 64.09375 28.703125 63 23.703125 63 
C 20.703125 63 16.203125 63.359375 11.296875 65.484375 
C 10.203125 66 10 66 9.90625 66 
C 9.40625 66 9.296875 65.890625 9.296875 63.90625 
L 9.296875 34.859375 
C 9.296875 33.015625 9.296875 32.5 10.296875 32.5 
C 10.796875 32.5 11 32.703125 11.5 33.421875 
C 14.703125 38.046875 19.09375 40 24.09375 40 
C 27.59375 40 35.09375 37.734375 35.09375 20.203125 
C 35.09375 16.984375 35.09375 11.1875 32.09375 6.59375 
C 29.59375 2.484375 25.703125 0.390625 21.40625 0.390625 
C 14.796875 0.390625 8.09375 4.984375 6.296875 12.6875 
C 6.703125 12.59375 7.5 12.390625 7.90625 12.390625 
C 9.203125 12.390625 11.703125 13.09375 11.703125 16.1875 
C 11.703125 18.890625 9.796875 20 7.90625 20 
C 5.59375 20 4.09375 18.59375 4.09375 15.796875 
C 4.09375 7.09375 11 -2 21.59375 -2 
C 31.90625 -2 41.703125 6.890625 41.703125 19.796875 
C 41.703125 32.09375 33.90625 41.59375 24.203125 41.59375 
C 19.09375 41.59375 14.796875 39.6875 11.40625 36 
z
" id="CMR17-53"/>
       </defs>
       <use transform="scale(0.996264)" xlink:href="#CMSY10-0"/>
       <use transform="translate(77.487468 0)scale(0.996264)" xlink:href="#CMR17-48"/>
       <use transform="translate(123.177945 0)scale(0.996264)" xlink:href="#CMMI12-58"/>
       <use transform="translate(150.275122 0)scale(0.996264)" xlink:href="#CMR17-48"/>
       <use transform="translate(195.965599 0)scale(0.996264)" xlink:href="#CMR17-50"/>
       <use transform="translate(241.656076 0)scale(0.996264)" xlink:href="#CMR17-53"/>
      </g>
     </g>
    </g>
    <g id="ytick_8">
     <g id="line2d_31">
      <g>
       <use style="stroke:#000000;stroke-width:0.8;" x="268.235175" xlink:href="#mc66646910e" y="121.588355"/>
      </g>
     </g>
     <g id="text_27">
      <!-- $\mathdefault{0.000}$ -->
      <g transform="translate(238.542426 125.047604)scale(0.1 -0.1)">
       <use transform="scale(0.996264)" xlink:href="#CMR17-48"/>
       <use transform="translate(45.690477 0)scale(0.996264)" xlink:href="#CMMI12-58"/>
       <use transform="translate(72.787654 0)scale(0.996264)" xlink:href="#CMR17-48"/>
       <use transform="translate(118.478131 0)scale(0.996264)" xlink:href="#CMR17-48"/>
       <use transform="translate(164.168608 0)scale(0.996264)" xlink:href="#CMR17-48"/>
      </g>
     </g>
    </g>
   </g>
   <g id="line2d_32">
    <path clip-path="url(#pb3ef8ceb1e)" d="M 276.157878 121.588355 
L 277.681475 101.533439 
L 279.205072 110.445631 
L 280.728669 114.124661 
L 282.252265 115.991066 
L 283.775862 117.116118 
L 285.299459 117.868882 
L 286.823056 118.408639 
L 288.346652 118.815206 
L 289.870249 119.132968 
L 291.393846 119.388567 
L 292.917442 119.598964 
L 294.441039 119.775466 
L 295.964636 119.925903 
L 297.488233 120.055871 
L 299.011829 120.169471 
L 300.535426 120.269783 
L 302.059023 120.359161 
L 303.582619 120.439437 
L 305.106216 120.512059 
L 306.629813 120.578185 
L 308.15341 120.638754 
L 309.677006 120.694534 
L 311.200603 120.746162 
L 312.7242 120.794167 
L 314.247797 120.838996 
L 315.771393 120.881027 
L 317.29499 120.920583 
L 318.818587 120.957942 
L 320.342183 120.993344 
L 321.86578 121.026998 
L 323.389377 121.059086 
L 324.912974 121.08977 
L 326.43657 121.119191 
L 327.960167 121.147476 
L 329.483764 121.174737 
L 331.007361 121.201076 
L 332.530957 121.226583 
L 334.054554 121.251342 
L 335.578151 121.275428 
L 337.101747 121.298908 
L 338.625344 121.321848 
L 340.148941 121.344304 
L 341.672538 121.366332 
L 343.196134 121.387982 
L 344.719731 121.409302 
L 346.243328 121.430337 
L 347.766925 121.45113 
L 349.290521 121.471721 
L 350.814118 121.492151 
L 352.337715 121.512458 
L 353.861311 121.532679 
L 355.384908 121.55285 
L 356.908505 121.573009 
L 358.432102 121.593192 
L 359.955698 121.613434 
L 361.479295 121.633774 
L 363.002892 121.654248 
L 364.526489 121.674896 
L 366.050085 121.695757 
L 367.573682 121.716872 
L 369.097279 121.738286 
L 370.620875 121.760044 
L 372.144472 121.782195 
L 373.668069 121.804789 
L 375.191666 121.827884 
L 376.715262 121.851538 
L 378.238859 121.875817 
L 379.762456 121.90079 
L 381.286053 121.926536 
L 382.809649 121.953139 
L 384.333246 121.980694 
L 385.856843 122.009304 
L 387.380439 122.039086 
L 388.904036 122.07017 
L 390.427633 122.102705 
L 391.95123 122.136856 
L 393.474826 122.172813 
L 394.998423 122.210794 
L 396.52202 122.25105 
L 398.045616 122.293869 
L 399.569213 122.339589 
L 401.09281 122.388608 
L 402.616407 122.441395 
L 404.140003 122.498506 
L 405.6636 122.560613 
L 407.187197 122.62853 
L 408.710794 122.703251 
L 410.23439 122.786011 
L 411.757987 122.878354 
L 413.281584 122.982248 
L 414.80518 123.100228 
L 416.328777 123.235629 
L 417.852374 123.392923 
L 419.375971 123.578248 
L 420.899567 123.800267 
L 422.423164 124.071618 
L 423.946761 124.411482 
L 425.470358 124.85046 
L 426.993954 125.440548 
L 428.517551 126.277811 
L 430.041148 127.561609 
L 431.564744 129.784504 
L 433.088341 134.584706 
L 434.611938 152.704681 
" style="fill:none;stroke:#000000;stroke-dasharray:1.5,2.475;stroke-dashoffset:0;stroke-width:1.5;"/>
   </g>
   <g id="patch_21">
    <path d="M 268.235175 155.263243 
L 268.235175 98.974877 
" style="fill:none;stroke:#000000;stroke-linecap:square;stroke-linejoin:miter;stroke-width:0.8;"/>
   </g>
   <g id="patch_22">
    <path d="M 442.534641 155.263243 
L 442.534641 98.974877 
" style="fill:none;stroke:#000000;stroke-linecap:square;stroke-linejoin:miter;stroke-width:0.8;"/>
   </g>
   <g id="patch_23">
    <path d="M 268.235175 155.263243 
L 442.534641 155.263243 
" style="fill:none;stroke:#000000;stroke-linecap:square;stroke-linejoin:miter;stroke-width:0.8;"/>
   </g>
   <g id="patch_24">
    <path d="M 268.235175 98.974877 
L 442.534641 98.974877 
" style="fill:none;stroke:#000000;stroke-linecap:square;stroke-linejoin:miter;stroke-width:0.8;"/>
   </g>
   <g id="legend_4">
    <g id="patch_25">
     <path d="M 382.057304 121.510493 
L 435.534641 121.510493 
Q 437.534641 121.510493 437.534641 119.510493 
L 437.534641 105.974877 
Q 437.534641 103.974877 435.534641 103.974877 
L 382.057304 103.974877 
Q 380.057304 103.974877 380.057304 105.974877 
L 380.057304 119.510493 
Q 380.057304 121.510493 382.057304 121.510493 
z
" style="fill:#ffffff;opacity:0.8;stroke:#cccccc;stroke-linejoin:miter;"/>
    </g>
    <g id="line2d_33">
     <path d="M 384.057304 112.073314 
L 404.057304 112.073314 
" style="fill:none;stroke:#000000;stroke-dasharray:1.5,2.475;stroke-dashoffset:0;stroke-width:1.5;"/>
    </g>
    <g id="line2d_34"/>
    <g id="text_28">
     <!-- $n=$1 -->
     <g transform="translate(412.057304 115.573314)scale(0.1 -0.1)">
      <use transform="scale(0.996264)" xlink:href="#CMMI12-110"/>
      <use transform="translate(85.904056 0)scale(0.996264)" xlink:href="#CMR17-61"/>
      <use transform="translate(157.618844 0)scale(0.996264)" xlink:href="#CMR17-49"/>
     </g>
    </g>
   </g>
  </g>
  <g id="axes_5">
   <g id="patch_26">
    <path d="M 45.57786 228.43812 
L 219.877325 228.43812 
L 219.877325 172.149754 
L 45.57786 172.149754 
z
" style="fill:#ffffff;"/>
   </g>
   <g id="matplotlib.axis_9">
    <g id="xtick_15">
     <g id="line2d_35">
      <g>
       <use style="stroke:#000000;stroke-width:0.8;" x="53.500563" xlink:href="#m3d158e77f3" y="228.43812"/>
      </g>
     </g>
     <g id="text_29">
      <!-- $\mathdefault{0}$ -->
      <g transform="translate(51.009895 242.356619)scale(0.1 -0.1)">
       <use transform="scale(0.996264)" xlink:href="#CMR17-48"/>
      </g>
     </g>
    </g>
    <g id="xtick_16">
     <g id="line2d_36">
      <g>
       <use style="stroke:#000000;stroke-width:0.8;" x="93.106157" xlink:href="#m3d158e77f3" y="228.43812"/>
      </g>
     </g>
     <g id="text_30">
      <!-- $\mathdefault{25}$ -->
      <g transform="translate(88.124821 242.356619)scale(0.1 -0.1)">
       <use transform="scale(0.996264)" xlink:href="#CMR17-50"/>
       <use transform="translate(45.690477 0)scale(0.996264)" xlink:href="#CMR17-53"/>
      </g>
     </g>
    </g>
    <g id="xtick_17">
     <g id="line2d_37">
      <g>
       <use style="stroke:#000000;stroke-width:0.8;" x="132.71175" xlink:href="#m3d158e77f3" y="228.43812"/>
      </g>
     </g>
     <g id="text_31">
      <!-- $\mathdefault{50}$ -->
      <g transform="translate(127.730415 242.356619)scale(0.1 -0.1)">
       <use transform="scale(0.996264)" xlink:href="#CMR17-53"/>
       <use transform="translate(45.690477 0)scale(0.996264)" xlink:href="#CMR17-48"/>
      </g>
     </g>
    </g>
    <g id="xtick_18">
     <g id="line2d_38">
      <g>
       <use style="stroke:#000000;stroke-width:0.8;" x="172.317344" xlink:href="#m3d158e77f3" y="228.43812"/>
      </g>
     </g>
     <g id="text_32">
      <!-- $\mathdefault{75}$ -->
      <g transform="translate(167.336009 242.356619)scale(0.1 -0.1)">
       <defs>
        <path d="M 45.09375 61.796875 
L 45.09375 64 
L 21.59375 64 
C 9.90625 64 9.703125 65.09375 9.296875 67 
L 7.5 67 
L 4.59375 48.5 
L 6.40625 48.5 
C 6.703125 50.40625 7.40625 55.5 8.59375 57.390625 
C 9.203125 58.1875 16.59375 58.1875 18.296875 58.1875 
L 40.296875 58.1875 
L 29.203125 41.71875 
C 21.796875 30.640625 16.703125 15.671875 16.703125 2.59375 
C 16.703125 1.390625 16.703125 -2 20.296875 -2 
C 23.90625 -2 23.90625 1.390625 23.90625 2.6875 
L 23.90625 7.28125 
C 23.90625 23.65625 26.703125 34.4375 31.296875 41.3125 
z
" id="CMR17-55"/>
       </defs>
       <use transform="scale(0.996264)" xlink:href="#CMR17-55"/>
       <use transform="translate(45.690477 0)scale(0.996264)" xlink:href="#CMR17-53"/>
      </g>
     </g>
    </g>
    <g id="xtick_19">
     <g id="line2d_39">
      <g>
       <use style="stroke:#000000;stroke-width:0.8;" x="211.922938" xlink:href="#m3d158e77f3" y="228.43812"/>
      </g>
     </g>
     <g id="text_33">
      <!-- $\mathdefault{100}$ -->
      <g transform="translate(204.450935 242.356619)scale(0.1 -0.1)">
       <use transform="scale(0.996264)" xlink:href="#CMR17-49"/>
       <use transform="translate(45.690477 0)scale(0.996264)" xlink:href="#CMR17-48"/>
       <use transform="translate(91.380954 0)scale(0.996264)" xlink:href="#CMR17-48"/>
      </g>
     </g>
    </g>
   </g>
   <g id="matplotlib.axis_10">
    <g id="ytick_9">
     <g id="line2d_40">
      <g>
       <use style="stroke:#000000;stroke-width:0.8;" x="45.57786" xlink:href="#mc66646910e" y="224.503679"/>
      </g>
     </g>
     <g id="text_34">
      <!-- $\mathdefault{0.0000}$ -->
      <g transform="translate(10.903775 227.962929)scale(0.1 -0.1)">
       <use transform="scale(0.996264)" xlink:href="#CMR17-48"/>
       <use transform="translate(45.690477 0)scale(0.996264)" xlink:href="#CMMI12-58"/>
       <use transform="translate(72.787654 0)scale(0.996264)" xlink:href="#CMR17-48"/>
       <use transform="translate(118.478131 0)scale(0.996264)" xlink:href="#CMR17-48"/>
       <use transform="translate(164.168608 0)scale(0.996264)" xlink:href="#CMR17-48"/>
       <use transform="translate(209.859086 0)scale(0.996264)" xlink:href="#CMR17-48"/>
      </g>
     </g>
    </g>
    <g id="ytick_10">
     <g id="line2d_41">
      <g>
       <use style="stroke:#000000;stroke-width:0.8;" x="45.57786" xlink:href="#mc66646910e" y="191.299301"/>
      </g>
     </g>
     <g id="text_35">
      <!-- $\mathdefault{0.0001}$ -->
      <g transform="translate(10.903775 194.75855)scale(0.1 -0.1)">
       <use transform="scale(0.996264)" xlink:href="#CMR17-48"/>
       <use transform="translate(45.690477 0)scale(0.996264)" xlink:href="#CMMI12-58"/>
       <use transform="translate(72.787654 0)scale(0.996264)" xlink:href="#CMR17-48"/>
       <use transform="translate(118.478131 0)scale(0.996264)" xlink:href="#CMR17-48"/>
       <use transform="translate(164.168608 0)scale(0.996264)" xlink:href="#CMR17-48"/>
       <use transform="translate(209.859086 0)scale(0.996264)" xlink:href="#CMR17-49"/>
      </g>
     </g>
    </g>
   </g>
   <g id="line2d_42">
    <path clip-path="url(#p610f846680)" d="M 53.500563 224.503679 
L 53.54809 174.708316 
L 53.595616 196.888065 
L 53.785723 215.671461 
L 54.070884 220.973442 
L 54.403571 223.331946 
L 54.831311 224.820992 
L 55.259051 225.537551 
L 55.686792 225.828144 
L 56.162059 225.871375 
L 56.87496 225.682703 
L 60.106776 224.603023 
L 62.197951 224.246974 
L 65.192134 223.980299 
L 70.182439 223.784978 
L 80.163049 223.654469 
L 107.490908 223.580528 
L 211.954622 223.552496 
L 211.954622 223.552496 
" style="fill:none;stroke:#000000;stroke-dasharray:9.6,2.4,1.5,2.4;stroke-dashoffset:0;stroke-width:1.5;"/>
   </g>
   <g id="patch_27">
    <path d="M 45.57786 228.43812 
L 45.57786 172.149754 
" style="fill:none;stroke:#000000;stroke-linecap:square;stroke-linejoin:miter;stroke-width:0.8;"/>
   </g>
   <g id="patch_28">
    <path d="M 219.877325 228.43812 
L 219.877325 172.149754 
" style="fill:none;stroke:#000000;stroke-linecap:square;stroke-linejoin:miter;stroke-width:0.8;"/>
   </g>
   <g id="patch_29">
    <path d="M 45.57786 228.43812 
L 219.877325 228.43812 
" style="fill:none;stroke:#000000;stroke-linecap:square;stroke-linejoin:miter;stroke-width:0.8;"/>
   </g>
   <g id="patch_30">
    <path d="M 45.57786 172.149754 
L 219.877325 172.149754 
" style="fill:none;stroke:#000000;stroke-linecap:square;stroke-linejoin:miter;stroke-width:0.8;"/>
   </g>
   <g id="legend_5">
    <g id="patch_31">
     <path d="M 159.399989 194.685369 
L 212.877325 194.685369 
Q 214.877325 194.685369 214.877325 192.685369 
L 214.877325 179.149754 
Q 214.877325 177.149754 212.877325 177.149754 
L 159.399989 177.149754 
Q 157.399989 177.149754 157.399989 179.149754 
L 157.399989 192.685369 
Q 157.399989 194.685369 159.399989 194.685369 
z
" style="fill:#ffffff;opacity:0.8;stroke:#cccccc;stroke-linejoin:miter;"/>
    </g>
    <g id="line2d_43">
     <path d="M 161.399989 185.248191 
L 181.399989 185.248191 
" style="fill:none;stroke:#000000;stroke-dasharray:9.6,2.4,1.5,2.4;stroke-dashoffset:0;stroke-width:1.5;"/>
    </g>
    <g id="line2d_44"/>
    <g id="text_36">
     <!-- $n=$5 -->
     <g transform="translate(189.399989 188.748191)scale(0.1 -0.1)">
      <use transform="scale(0.996264)" xlink:href="#CMMI12-110"/>
      <use transform="translate(85.904056 0)scale(0.996264)" xlink:href="#CMR17-61"/>
      <use transform="translate(157.618844 0)scale(0.996264)" xlink:href="#CMR17-53"/>
     </g>
    </g>
   </g>
  </g>
  <g id="axes_6">
   <g id="patch_32">
    <path d="M 268.235175 228.43812 
L 442.534641 228.43812 
L 442.534641 172.149754 
L 268.235175 172.149754 
z
" style="fill:#ffffff;"/>
   </g>
   <g id="matplotlib.axis_11">
    <g id="xtick_20">
     <g id="line2d_45">
      <g>
       <use style="stroke:#000000;stroke-width:0.8;" x="276.157878" xlink:href="#m3d158e77f3" y="228.43812"/>
      </g>
     </g>
     <g id="text_37">
      <!-- $\mathdefault{0}$ -->
      <g transform="translate(273.667211 242.356619)scale(0.1 -0.1)">
       <use transform="scale(0.996264)" xlink:href="#CMR17-48"/>
      </g>
     </g>
    </g>
    <g id="xtick_21">
     <g id="line2d_46">
      <g>
       <use style="stroke:#000000;stroke-width:0.8;" x="315.763472" xlink:href="#m3d158e77f3" y="228.43812"/>
      </g>
     </g>
     <g id="text_38">
      <!-- $\mathdefault{25}$ -->
      <g transform="translate(310.782137 242.356619)scale(0.1 -0.1)">
       <use transform="scale(0.996264)" xlink:href="#CMR17-50"/>
       <use transform="translate(45.690477 0)scale(0.996264)" xlink:href="#CMR17-53"/>
      </g>
     </g>
    </g>
    <g id="xtick_22">
     <g id="line2d_47">
      <g>
       <use style="stroke:#000000;stroke-width:0.8;" x="355.369066" xlink:href="#m3d158e77f3" y="228.43812"/>
      </g>
     </g>
     <g id="text_39">
      <!-- $\mathdefault{50}$ -->
      <g transform="translate(350.387731 242.356619)scale(0.1 -0.1)">
       <use transform="scale(0.996264)" xlink:href="#CMR17-53"/>
       <use transform="translate(45.690477 0)scale(0.996264)" xlink:href="#CMR17-48"/>
      </g>
     </g>
    </g>
    <g id="xtick_23">
     <g id="line2d_48">
      <g>
       <use style="stroke:#000000;stroke-width:0.8;" x="394.97466" xlink:href="#m3d158e77f3" y="228.43812"/>
      </g>
     </g>
     <g id="text_40">
      <!-- $\mathdefault{75}$ -->
      <g transform="translate(389.993324 242.356619)scale(0.1 -0.1)">
       <use transform="scale(0.996264)" xlink:href="#CMR17-55"/>
       <use transform="translate(45.690477 0)scale(0.996264)" xlink:href="#CMR17-53"/>
      </g>
     </g>
    </g>
    <g id="xtick_24">
     <g id="line2d_49">
      <g>
       <use style="stroke:#000000;stroke-width:0.8;" x="434.580253" xlink:href="#m3d158e77f3" y="228.43812"/>
      </g>
     </g>
     <g id="text_41">
      <!-- $\mathdefault{100}$ -->
      <g transform="translate(427.108251 242.356619)scale(0.1 -0.1)">
       <use transform="scale(0.996264)" xlink:href="#CMR17-49"/>
       <use transform="translate(45.690477 0)scale(0.996264)" xlink:href="#CMR17-48"/>
       <use transform="translate(91.380954 0)scale(0.996264)" xlink:href="#CMR17-48"/>
      </g>
     </g>
    </g>
   </g>
   <g id="matplotlib.axis_12">
    <g id="ytick_11">
     <g id="line2d_50">
      <g>
       <use style="stroke:#000000;stroke-width:0.8;" x="268.235175" xlink:href="#mc66646910e" y="224.143319"/>
      </g>
     </g>
     <g id="text_42">
      <!-- $\mathdefault{0.00}$ -->
      <g transform="translate(243.523761 227.602568)scale(0.1 -0.1)">
       <use transform="scale(0.996264)" xlink:href="#CMR17-48"/>
       <use transform="translate(45.690477 0)scale(0.996264)" xlink:href="#CMMI12-58"/>
       <use transform="translate(72.787654 0)scale(0.996264)" xlink:href="#CMR17-48"/>
       <use transform="translate(118.478131 0)scale(0.996264)" xlink:href="#CMR17-48"/>
      </g>
     </g>
    </g>
    <g id="ytick_12">
     <g id="line2d_51">
      <g>
       <use style="stroke:#000000;stroke-width:0.8;" x="268.235175" xlink:href="#mc66646910e" y="194.263746"/>
      </g>
     </g>
     <g id="text_43">
      <!-- $\mathdefault{0.01}$ -->
      <g transform="translate(243.523761 197.722995)scale(0.1 -0.1)">
       <use transform="scale(0.996264)" xlink:href="#CMR17-48"/>
       <use transform="translate(45.690477 0)scale(0.996264)" xlink:href="#CMMI12-58"/>
       <use transform="translate(72.787654 0)scale(0.996264)" xlink:href="#CMR17-48"/>
       <use transform="translate(118.478131 0)scale(0.996264)" xlink:href="#CMR17-49"/>
      </g>
     </g>
    </g>
   </g>
   <g id="line2d_52">
    <path clip-path="url(#p15a99602ec)" d="M 276.157878 224.143319 
L 276.205405 179.32732 
L 276.252932 199.277992 
L 276.443039 216.152681 
L 276.728199 220.898677 
L 277.108413 223.240717 
L 277.536153 224.572531 
L 278.01142 225.367555 
L 278.486687 225.749247 
L 279.009481 225.87833 
L 279.674855 225.789887 
L 280.720443 225.387504 
L 289.893098 221.268413 
L 295.881464 219.064637 
L 305.62444 215.740379 
L 323.256851 209.989276 
L 360.090053 198.248124 
L 434.611938 174.708316 
L 434.611938 174.708316 
" style="fill:none;stroke:#000000;stroke-dasharray:9.6,2.4,1.5,2.4;stroke-dashoffset:0;stroke-width:1.5;"/>
   </g>
   <g id="patch_33">
    <path d="M 268.235175 228.43812 
L 268.235175 172.149754 
" style="fill:none;stroke:#000000;stroke-linecap:square;stroke-linejoin:miter;stroke-width:0.8;"/>
   </g>
   <g id="patch_34">
    <path d="M 442.534641 228.43812 
L 442.534641 172.149754 
" style="fill:none;stroke:#000000;stroke-linecap:square;stroke-linejoin:miter;stroke-width:0.8;"/>
   </g>
   <g id="patch_35">
    <path d="M 268.235175 228.43812 
L 442.534641 228.43812 
" style="fill:none;stroke:#000000;stroke-linecap:square;stroke-linejoin:miter;stroke-width:0.8;"/>
   </g>
   <g id="patch_36">
    <path d="M 268.235175 172.149754 
L 442.534641 172.149754 
" style="fill:none;stroke:#000000;stroke-linecap:square;stroke-linejoin:miter;stroke-width:0.8;"/>
   </g>
   <g id="legend_6">
    <g id="patch_37">
     <path d="M 382.057304 223.43812 
L 435.534641 223.43812 
Q 437.534641 223.43812 437.534641 221.43812 
L 437.534641 207.902504 
Q 437.534641 205.902504 435.534641 205.902504 
L 382.057304 205.902504 
Q 380.057304 205.902504 380.057304 207.902504 
L 380.057304 221.43812 
Q 380.057304 223.43812 382.057304 223.43812 
z
" style="fill:#ffffff;opacity:0.8;stroke:#cccccc;stroke-linejoin:miter;"/>
    </g>
    <g id="line2d_53">
     <path d="M 384.057304 214.000942 
L 404.057304 214.000942 
" style="fill:none;stroke:#000000;stroke-dasharray:9.6,2.4,1.5,2.4;stroke-dashoffset:0;stroke-width:1.5;"/>
    </g>
    <g id="line2d_54"/>
    <g id="text_44">
     <!-- $n=$5 -->
     <g transform="translate(412.057304 217.500942)scale(0.1 -0.1)">
      <use transform="scale(0.996264)" xlink:href="#CMMI12-110"/>
      <use transform="translate(85.904056 0)scale(0.996264)" xlink:href="#CMR17-61"/>
      <use transform="translate(157.618844 0)scale(0.996264)" xlink:href="#CMR17-53"/>
     </g>
    </g>
   </g>
  </g>
 </g>
 <defs>
  <clipPath id="p7c4d3817f5">
   <rect height="56.288367" width="174.299465" x="45.57786" y="25.8"/>
  </clipPath>
  <clipPath id="p5587b5544e">
   <rect height="56.288367" width="174.299465" x="268.235175" y="25.8"/>
  </clipPath>
  <clipPath id="p785e19f576">
   <rect height="56.288367" width="174.299465" x="45.57786" y="98.974877"/>
  </clipPath>
  <clipPath id="pb3ef8ceb1e">
   <rect height="56.288367" width="174.299465" x="268.235175" y="98.974877"/>
  </clipPath>
  <clipPath id="p610f846680">
   <rect height="56.288367" width="174.299465" x="45.57786" y="172.149754"/>
  </clipPath>
  <clipPath id="p15a99602ec">
   <rect height="56.288367" width="174.299465" x="268.235175" y="172.149754"/>
  </clipPath>
 </defs>
</svg>
