<?xml version="1.0" encoding="utf-8" standalone="no"?>
<!DOCTYPE svg PUBLIC "-//W3C//DTD SVG 1.1//EN"
  "http://www.w3.org/Graphics/SVG/1.1/DTD/svg11.dtd">
<!-- Created with matplotlib (https://matplotlib.org/) -->
<svg height="288pt" version="1.1" viewBox="0 0 460.8 288" width="460.8pt" xmlns="http://www.w3.org/2000/svg" xmlns:xlink="http://www.w3.org/1999/xlink">
 <metadata>
  <rdf:RDF xmlns:cc="http://creativecommons.org/ns#" xmlns:dc="http://purl.org/dc/elements/1.1/" xmlns:rdf="http://www.w3.org/1999/02/22-rdf-syntax-ns#">
   <cc:Work>
    <dc:type rdf:resource="http://purl.org/dc/dcmitype/StillImage"/>
    <dc:date>2020-10-29T03:03:13.969242</dc:date>
    <dc:format>image/svg+xml</dc:format>
    <dc:creator>
     <cc:Agent>
      <dc:title>Matplotlib v3.3.2, https://matplotlib.org/</dc:title>
     </cc:Agent>
    </dc:creator>
   </cc:Work>
  </rdf:RDF>
 </metadata>
 <defs>
  <style type="text/css">*{stroke-linecap:butt;stroke-linejoin:round;}</style>
 </defs>
 <g id="figure_1">
  <g id="patch_1">
   <path d="M 0 288 
L 460.8 288 
L 460.8 0 
L 0 0 
z
" style="fill:#ffffff;"/>
  </g>
  <g id="axes_1">
   <g id="patch_2">
    <path d="M 57.6 252 
L 414.72 252 
L 414.72 34.56 
L 57.6 34.56 
z
" style="fill:#ffffff;"/>
   </g>
   <g id="matplotlib.axis_1">
    <g id="xtick_1">
     <g id="line2d_1">
      <defs>
       <path d="M 0 0 
L 0 3.5 
" id="m05612f9e62" style="stroke:#000000;stroke-width:0.8;"/>
      </defs>
      <g>
       <use style="stroke:#000000;stroke-width:0.8;" x="73.182117" xlink:href="#m05612f9e62" y="252"/>
      </g>
     </g>
     <g id="text_1">
      <!-- 0 -->
      <g transform="translate(70.000867 266.598437)scale(0.1 -0.1)">
       <defs>
        <path d="M 31.78125 66.40625 
Q 24.171875 66.40625 20.328125 58.90625 
Q 16.5 51.421875 16.5 36.375 
Q 16.5 21.390625 20.328125 13.890625 
Q 24.171875 6.390625 31.78125 6.390625 
Q 39.453125 6.390625 43.28125 13.890625 
Q 47.125 21.390625 47.125 36.375 
Q 47.125 51.421875 43.28125 58.90625 
Q 39.453125 66.40625 31.78125 66.40625 
z
M 31.78125 74.21875 
Q 44.046875 74.21875 50.515625 64.515625 
Q 56.984375 54.828125 56.984375 36.375 
Q 56.984375 17.96875 50.515625 8.265625 
Q 44.046875 -1.421875 31.78125 -1.421875 
Q 19.53125 -1.421875 13.0625 8.265625 
Q 6.59375 17.96875 6.59375 36.375 
Q 6.59375 54.828125 13.0625 64.515625 
Q 19.53125 74.21875 31.78125 74.21875 
z
" id="DejaVuSans-48"/>
       </defs>
       <use xlink:href="#DejaVuSans-48"/>
      </g>
     </g>
    </g>
    <g id="xtick_2">
     <g id="line2d_2">
      <g>
       <use style="stroke:#000000;stroke-width:0.8;" x="138.243148" xlink:href="#m05612f9e62" y="252"/>
      </g>
     </g>
     <g id="text_2">
      <!-- 1 -->
      <g transform="translate(135.061898 266.598437)scale(0.1 -0.1)">
       <defs>
        <path d="M 12.40625 8.296875 
L 28.515625 8.296875 
L 28.515625 63.921875 
L 10.984375 60.40625 
L 10.984375 69.390625 
L 28.421875 72.90625 
L 38.28125 72.90625 
L 38.28125 8.296875 
L 54.390625 8.296875 
L 54.390625 0 
L 12.40625 0 
z
" id="DejaVuSans-49"/>
       </defs>
       <use xlink:href="#DejaVuSans-49"/>
      </g>
     </g>
    </g>
    <g id="xtick_3">
     <g id="line2d_3">
      <g>
       <use style="stroke:#000000;stroke-width:0.8;" x="203.304179" xlink:href="#m05612f9e62" y="252"/>
      </g>
     </g>
     <g id="text_3">
      <!-- 2 -->
      <g transform="translate(200.122929 266.598437)scale(0.1 -0.1)">
       <defs>
        <path d="M 19.1875 8.296875 
L 53.609375 8.296875 
L 53.609375 0 
L 7.328125 0 
L 7.328125 8.296875 
Q 12.9375 14.109375 22.625 23.890625 
Q 32.328125 33.6875 34.8125 36.53125 
Q 39.546875 41.84375 41.421875 45.53125 
Q 43.3125 49.21875 43.3125 52.78125 
Q 43.3125 58.59375 39.234375 62.25 
Q 35.15625 65.921875 28.609375 65.921875 
Q 23.96875 65.921875 18.8125 64.3125 
Q 13.671875 62.703125 7.8125 59.421875 
L 7.8125 69.390625 
Q 13.765625 71.78125 18.9375 73 
Q 24.125 74.21875 28.421875 74.21875 
Q 39.75 74.21875 46.484375 68.546875 
Q 53.21875 62.890625 53.21875 53.421875 
Q 53.21875 48.921875 51.53125 44.890625 
Q 49.859375 40.875 45.40625 35.40625 
Q 44.1875 33.984375 37.640625 27.21875 
Q 31.109375 20.453125 19.1875 8.296875 
z
" id="DejaVuSans-50"/>
       </defs>
       <use xlink:href="#DejaVuSans-50"/>
      </g>
     </g>
    </g>
    <g id="xtick_4">
     <g id="line2d_4">
      <g>
       <use style="stroke:#000000;stroke-width:0.8;" x="268.36521" xlink:href="#m05612f9e62" y="252"/>
      </g>
     </g>
     <g id="text_4">
      <!-- 3 -->
      <g transform="translate(265.18396 266.598437)scale(0.1 -0.1)">
       <defs>
        <path d="M 40.578125 39.3125 
Q 47.65625 37.796875 51.625 33 
Q 55.609375 28.21875 55.609375 21.1875 
Q 55.609375 10.40625 48.1875 4.484375 
Q 40.765625 -1.421875 27.09375 -1.421875 
Q 22.515625 -1.421875 17.65625 -0.515625 
Q 12.796875 0.390625 7.625 2.203125 
L 7.625 11.71875 
Q 11.71875 9.328125 16.59375 8.109375 
Q 21.484375 6.890625 26.8125 6.890625 
Q 36.078125 6.890625 40.9375 10.546875 
Q 45.796875 14.203125 45.796875 21.1875 
Q 45.796875 27.640625 41.28125 31.265625 
Q 36.765625 34.90625 28.71875 34.90625 
L 20.21875 34.90625 
L 20.21875 43.015625 
L 29.109375 43.015625 
Q 36.375 43.015625 40.234375 45.921875 
Q 44.09375 48.828125 44.09375 54.296875 
Q 44.09375 59.90625 40.109375 62.90625 
Q 36.140625 65.921875 28.71875 65.921875 
Q 24.65625 65.921875 20.015625 65.03125 
Q 15.375 64.15625 9.8125 62.3125 
L 9.8125 71.09375 
Q 15.4375 72.65625 20.34375 73.4375 
Q 25.25 74.21875 29.59375 74.21875 
Q 40.828125 74.21875 47.359375 69.109375 
Q 53.90625 64.015625 53.90625 55.328125 
Q 53.90625 49.265625 50.4375 45.09375 
Q 46.96875 40.921875 40.578125 39.3125 
z
" id="DejaVuSans-51"/>
       </defs>
       <use xlink:href="#DejaVuSans-51"/>
      </g>
     </g>
    </g>
    <g id="xtick_5">
     <g id="line2d_5">
      <g>
       <use style="stroke:#000000;stroke-width:0.8;" x="333.426242" xlink:href="#m05612f9e62" y="252"/>
      </g>
     </g>
     <g id="text_5">
      <!-- 4 -->
      <g transform="translate(330.244992 266.598437)scale(0.1 -0.1)">
       <defs>
        <path d="M 37.796875 64.3125 
L 12.890625 25.390625 
L 37.796875 25.390625 
z
M 35.203125 72.90625 
L 47.609375 72.90625 
L 47.609375 25.390625 
L 58.015625 25.390625 
L 58.015625 17.1875 
L 47.609375 17.1875 
L 47.609375 0 
L 37.796875 0 
L 37.796875 17.1875 
L 4.890625 17.1875 
L 4.890625 26.703125 
z
" id="DejaVuSans-52"/>
       </defs>
       <use xlink:href="#DejaVuSans-52"/>
      </g>
     </g>
    </g>
    <g id="xtick_6">
     <g id="line2d_6">
      <g>
       <use style="stroke:#000000;stroke-width:0.8;" x="398.487273" xlink:href="#m05612f9e62" y="252"/>
      </g>
     </g>
     <g id="text_6">
      <!-- 5 -->
      <g transform="translate(395.306023 266.598437)scale(0.1 -0.1)">
       <defs>
        <path d="M 10.796875 72.90625 
L 49.515625 72.90625 
L 49.515625 64.59375 
L 19.828125 64.59375 
L 19.828125 46.734375 
Q 21.96875 47.46875 24.109375 47.828125 
Q 26.265625 48.1875 28.421875 48.1875 
Q 40.625 48.1875 47.75 41.5 
Q 54.890625 34.8125 54.890625 23.390625 
Q 54.890625 11.625 47.5625 5.09375 
Q 40.234375 -1.421875 26.90625 -1.421875 
Q 22.3125 -1.421875 17.546875 -0.640625 
Q 12.796875 0.140625 7.71875 1.703125 
L 7.71875 11.625 
Q 12.109375 9.234375 16.796875 8.0625 
Q 21.484375 6.890625 26.703125 6.890625 
Q 35.15625 6.890625 40.078125 11.328125 
Q 45.015625 15.765625 45.015625 23.390625 
Q 45.015625 31 40.078125 35.4375 
Q 35.15625 39.890625 26.703125 39.890625 
Q 22.75 39.890625 18.8125 39.015625 
Q 14.890625 38.140625 10.796875 36.28125 
z
" id="DejaVuSans-53"/>
       </defs>
       <use xlink:href="#DejaVuSans-53"/>
      </g>
     </g>
    </g>
    <g id="text_7">
     <!-- Exponent $n=\frac{1}{\gamma-1}$ -->
     <g transform="translate(192.31 282.178125)scale(0.1 -0.1)">
      <defs>
       <path d="M 9.8125 72.90625 
L 55.90625 72.90625 
L 55.90625 64.59375 
L 19.671875 64.59375 
L 19.671875 43.015625 
L 54.390625 43.015625 
L 54.390625 34.71875 
L 19.671875 34.71875 
L 19.671875 8.296875 
L 56.78125 8.296875 
L 56.78125 0 
L 9.8125 0 
z
" id="DejaVuSans-69"/>
       <path d="M 54.890625 54.6875 
L 35.109375 28.078125 
L 55.90625 0 
L 45.3125 0 
L 29.390625 21.484375 
L 13.484375 0 
L 2.875 0 
L 24.125 28.609375 
L 4.6875 54.6875 
L 15.28125 54.6875 
L 29.78125 35.203125 
L 44.28125 54.6875 
z
" id="DejaVuSans-120"/>
       <path d="M 18.109375 8.203125 
L 18.109375 -20.796875 
L 9.078125 -20.796875 
L 9.078125 54.6875 
L 18.109375 54.6875 
L 18.109375 46.390625 
Q 20.953125 51.265625 25.265625 53.625 
Q 29.59375 56 35.59375 56 
Q 45.5625 56 51.78125 48.09375 
Q 58.015625 40.1875 58.015625 27.296875 
Q 58.015625 14.40625 51.78125 6.484375 
Q 45.5625 -1.421875 35.59375 -1.421875 
Q 29.59375 -1.421875 25.265625 0.953125 
Q 20.953125 3.328125 18.109375 8.203125 
z
M 48.6875 27.296875 
Q 48.6875 37.203125 44.609375 42.84375 
Q 40.53125 48.484375 33.40625 48.484375 
Q 26.265625 48.484375 22.1875 42.84375 
Q 18.109375 37.203125 18.109375 27.296875 
Q 18.109375 17.390625 22.1875 11.75 
Q 26.265625 6.109375 33.40625 6.109375 
Q 40.53125 6.109375 44.609375 11.75 
Q 48.6875 17.390625 48.6875 27.296875 
z
" id="DejaVuSans-112"/>
       <path d="M 30.609375 48.390625 
Q 23.390625 48.390625 19.1875 42.75 
Q 14.984375 37.109375 14.984375 27.296875 
Q 14.984375 17.484375 19.15625 11.84375 
Q 23.34375 6.203125 30.609375 6.203125 
Q 37.796875 6.203125 41.984375 11.859375 
Q 46.1875 17.53125 46.1875 27.296875 
Q 46.1875 37.015625 41.984375 42.703125 
Q 37.796875 48.390625 30.609375 48.390625 
z
M 30.609375 56 
Q 42.328125 56 49.015625 48.375 
Q 55.71875 40.765625 55.71875 27.296875 
Q 55.71875 13.875 49.015625 6.21875 
Q 42.328125 -1.421875 30.609375 -1.421875 
Q 18.84375 -1.421875 12.171875 6.21875 
Q 5.515625 13.875 5.515625 27.296875 
Q 5.515625 40.765625 12.171875 48.375 
Q 18.84375 56 30.609375 56 
z
" id="DejaVuSans-111"/>
       <path d="M 54.890625 33.015625 
L 54.890625 0 
L 45.90625 0 
L 45.90625 32.71875 
Q 45.90625 40.484375 42.875 44.328125 
Q 39.84375 48.1875 33.796875 48.1875 
Q 26.515625 48.1875 22.3125 43.546875 
Q 18.109375 38.921875 18.109375 30.90625 
L 18.109375 0 
L 9.078125 0 
L 9.078125 54.6875 
L 18.109375 54.6875 
L 18.109375 46.1875 
Q 21.34375 51.125 25.703125 53.5625 
Q 30.078125 56 35.796875 56 
Q 45.21875 56 50.046875 50.171875 
Q 54.890625 44.34375 54.890625 33.015625 
z
" id="DejaVuSans-110"/>
       <path d="M 56.203125 29.59375 
L 56.203125 25.203125 
L 14.890625 25.203125 
Q 15.484375 15.921875 20.484375 11.0625 
Q 25.484375 6.203125 34.421875 6.203125 
Q 39.59375 6.203125 44.453125 7.46875 
Q 49.3125 8.734375 54.109375 11.28125 
L 54.109375 2.78125 
Q 49.265625 0.734375 44.1875 -0.34375 
Q 39.109375 -1.421875 33.890625 -1.421875 
Q 20.796875 -1.421875 13.15625 6.1875 
Q 5.515625 13.8125 5.515625 26.8125 
Q 5.515625 40.234375 12.765625 48.109375 
Q 20.015625 56 32.328125 56 
Q 43.359375 56 49.78125 48.890625 
Q 56.203125 41.796875 56.203125 29.59375 
z
M 47.21875 32.234375 
Q 47.125 39.59375 43.09375 43.984375 
Q 39.0625 48.390625 32.421875 48.390625 
Q 24.90625 48.390625 20.390625 44.140625 
Q 15.875 39.890625 15.1875 32.171875 
z
" id="DejaVuSans-101"/>
       <path d="M 18.3125 70.21875 
L 18.3125 54.6875 
L 36.8125 54.6875 
L 36.8125 47.703125 
L 18.3125 47.703125 
L 18.3125 18.015625 
Q 18.3125 11.328125 20.140625 9.421875 
Q 21.96875 7.515625 27.59375 7.515625 
L 36.8125 7.515625 
L 36.8125 0 
L 27.59375 0 
Q 17.1875 0 13.234375 3.875 
Q 9.28125 7.765625 9.28125 18.015625 
L 9.28125 47.703125 
L 2.6875 47.703125 
L 2.6875 54.6875 
L 9.28125 54.6875 
L 9.28125 70.21875 
z
" id="DejaVuSans-116"/>
       <path id="DejaVuSans-32"/>
       <path d="M 55.71875 33.015625 
L 49.3125 0 
L 40.28125 0 
L 46.6875 32.671875 
Q 47.125 34.96875 47.359375 36.71875 
Q 47.609375 38.484375 47.609375 39.5 
Q 47.609375 43.609375 45.015625 45.890625 
Q 42.4375 48.1875 37.796875 48.1875 
Q 30.5625 48.1875 25.34375 43.375 
Q 20.125 38.578125 18.5 30.328125 
L 12.5 0 
L 3.515625 0 
L 14.109375 54.6875 
L 23.09375 54.6875 
L 21.296875 46.09375 
Q 25.046875 50.828125 30.3125 53.40625 
Q 35.59375 56 41.40625 56 
Q 48.640625 56 52.609375 52.09375 
Q 56.59375 48.1875 56.59375 41.109375 
Q 56.59375 39.359375 56.375 37.359375 
Q 56.15625 35.359375 55.71875 33.015625 
z
" id="DejaVuSans-Oblique-110"/>
       <path d="M 10.59375 45.40625 
L 73.1875 45.40625 
L 73.1875 37.203125 
L 10.59375 37.203125 
z
M 10.59375 25.484375 
L 73.1875 25.484375 
L 73.1875 17.1875 
L 10.59375 17.1875 
z
" id="DejaVuSans-61"/>
       <path d="M 23.296875 46.09375 
L 28.71875 12.3125 
L 54 54.6875 
L 63.53125 54.6875 
L 30.8125 0 
L 26.765625 -20.796875 
L 17.78125 -20.796875 
L 21.828125 0 
L 15.4375 40.828125 
Q 14.453125 46.96875 9.8125 46.96875 
L 7.421875 46.96875 
L 8.890625 54.6875 
L 12.3125 54.6875 
Q 21.921875 54.6875 23.296875 46.09375 
z
" id="DejaVuSans-Oblique-947"/>
       <path d="M 10.59375 35.5 
L 73.1875 35.5 
L 73.1875 27.203125 
L 10.59375 27.203125 
z
" id="DejaVuSans-8722"/>
      </defs>
      <use transform="translate(0 0.16875)" xlink:href="#DejaVuSans-69"/>
      <use transform="translate(63.183594 0.16875)" xlink:href="#DejaVuSans-120"/>
      <use transform="translate(122.363281 0.16875)" xlink:href="#DejaVuSans-112"/>
      <use transform="translate(185.839844 0.16875)" xlink:href="#DejaVuSans-111"/>
      <use transform="translate(247.021484 0.16875)" xlink:href="#DejaVuSans-110"/>
      <use transform="translate(310.400391 0.16875)" xlink:href="#DejaVuSans-101"/>
      <use transform="translate(371.923828 0.16875)" xlink:href="#DejaVuSans-110"/>
      <use transform="translate(435.302734 0.16875)" xlink:href="#DejaVuSans-116"/>
      <use transform="translate(474.511719 0.16875)" xlink:href="#DejaVuSans-32"/>
      <use transform="translate(506.298828 0.16875)" xlink:href="#DejaVuSans-Oblique-110"/>
      <use transform="translate(589.160156 0.16875)" xlink:href="#DejaVuSans-61"/>
      <use transform="translate(756.431641 43.965625)scale(0.7)" xlink:href="#DejaVuSans-49"/>
      <use transform="translate(692.431641 -38.31875)scale(0.7)" xlink:href="#DejaVuSans-Oblique-947"/>
      <use transform="translate(747.495117 -38.31875)scale(0.7)" xlink:href="#DejaVuSans-8722"/>
      <use transform="translate(819.785156 -38.31875)scale(0.7)" xlink:href="#DejaVuSans-49"/>
      <path d="M 692.431641 18.965625 
L 692.431641 25.215625 
L 864.321289 25.215625 
L 864.321289 18.965625 
L 692.431641 18.965625 
z
"/>
     </g>
    </g>
   </g>
   <g id="matplotlib.axis_2">
    <g id="ytick_1">
     <g id="line2d_7">
      <defs>
       <path d="M 0 0 
L -3.5 0 
" id="m19a879b406" style="stroke:#000000;stroke-width:0.8;"/>
      </defs>
      <g>
       <use style="stroke:#000000;stroke-width:0.8;" x="57.6" xlink:href="#m19a879b406" y="214.816926"/>
      </g>
     </g>
     <g id="text_8">
      <!-- $\mathdefault{10^{0}}$ -->
      <g transform="translate(33 218.616145)scale(0.1 -0.1)">
       <use transform="translate(0 0.765625)" xlink:href="#DejaVuSans-49"/>
       <use transform="translate(63.623047 0.765625)" xlink:href="#DejaVuSans-48"/>
       <use transform="translate(128.203125 39.046875)scale(0.7)" xlink:href="#DejaVuSans-48"/>
      </g>
     </g>
    </g>
    <g id="ytick_2">
     <g id="line2d_8">
      <g>
       <use style="stroke:#000000;stroke-width:0.8;" x="57.6" xlink:href="#m19a879b406" y="162.607043"/>
      </g>
     </g>
     <g id="text_9">
      <!-- $\mathdefault{10^{1}}$ -->
      <g transform="translate(33 166.406261)scale(0.1 -0.1)">
       <use transform="translate(0 0.684375)" xlink:href="#DejaVuSans-49"/>
       <use transform="translate(63.623047 0.684375)" xlink:href="#DejaVuSans-48"/>
       <use transform="translate(128.203125 38.965625)scale(0.7)" xlink:href="#DejaVuSans-49"/>
      </g>
     </g>
    </g>
    <g id="ytick_3">
     <g id="line2d_9">
      <g>
       <use style="stroke:#000000;stroke-width:0.8;" x="57.6" xlink:href="#m19a879b406" y="110.397159"/>
      </g>
     </g>
     <g id="text_10">
      <!-- $\mathdefault{10^{2}}$ -->
      <g transform="translate(33 114.196378)scale(0.1 -0.1)">
       <use transform="translate(0 0.765625)" xlink:href="#DejaVuSans-49"/>
       <use transform="translate(63.623047 0.765625)" xlink:href="#DejaVuSans-48"/>
       <use transform="translate(128.203125 39.046875)scale(0.7)" xlink:href="#DejaVuSans-50"/>
      </g>
     </g>
    </g>
    <g id="ytick_4">
     <g id="line2d_10">
      <g>
       <use style="stroke:#000000;stroke-width:0.8;" x="57.6" xlink:href="#m19a879b406" y="58.187275"/>
      </g>
     </g>
     <g id="text_11">
      <!-- $\mathdefault{10^{3}}$ -->
      <g transform="translate(33 61.986494)scale(0.1 -0.1)">
       <use transform="translate(0 0.765625)" xlink:href="#DejaVuSans-49"/>
       <use transform="translate(63.623047 0.765625)" xlink:href="#DejaVuSans-48"/>
       <use transform="translate(128.203125 39.046875)scale(0.7)" xlink:href="#DejaVuSans-51"/>
      </g>
     </g>
    </g>
    <g id="ytick_5">
     <g id="line2d_11">
      <defs>
       <path d="M 0 0 
L -2 0 
" id="meec7ad2d21" style="stroke:#000000;stroke-width:0.6;"/>
      </defs>
      <g>
       <use style="stroke:#000000;stroke-width:0.6;" x="57.6" xlink:href="#meec7ad2d21" y="251.310069"/>
      </g>
     </g>
    </g>
    <g id="ytick_6">
     <g id="line2d_12">
      <g>
       <use style="stroke:#000000;stroke-width:0.6;" x="57.6" xlink:href="#meec7ad2d21" y="242.116365"/>
      </g>
     </g>
    </g>
    <g id="ytick_7">
     <g id="line2d_13">
      <g>
       <use style="stroke:#000000;stroke-width:0.6;" x="57.6" xlink:href="#meec7ad2d21" y="235.593328"/>
      </g>
     </g>
    </g>
    <g id="ytick_8">
     <g id="line2d_14">
      <g>
       <use style="stroke:#000000;stroke-width:0.6;" x="57.6" xlink:href="#meec7ad2d21" y="230.533667"/>
      </g>
     </g>
    </g>
    <g id="ytick_9">
     <g id="line2d_15">
      <g>
       <use style="stroke:#000000;stroke-width:0.6;" x="57.6" xlink:href="#meec7ad2d21" y="226.399624"/>
      </g>
     </g>
    </g>
    <g id="ytick_10">
     <g id="line2d_16">
      <g>
       <use style="stroke:#000000;stroke-width:0.6;" x="57.6" xlink:href="#meec7ad2d21" y="222.904339"/>
      </g>
     </g>
    </g>
    <g id="ytick_11">
     <g id="line2d_17">
      <g>
       <use style="stroke:#000000;stroke-width:0.6;" x="57.6" xlink:href="#meec7ad2d21" y="219.876587"/>
      </g>
     </g>
    </g>
    <g id="ytick_12">
     <g id="line2d_18">
      <g>
       <use style="stroke:#000000;stroke-width:0.6;" x="57.6" xlink:href="#meec7ad2d21" y="217.205919"/>
      </g>
     </g>
    </g>
    <g id="ytick_13">
     <g id="line2d_19">
      <g>
       <use style="stroke:#000000;stroke-width:0.6;" x="57.6" xlink:href="#meec7ad2d21" y="199.100185"/>
      </g>
     </g>
    </g>
    <g id="ytick_14">
     <g id="line2d_20">
      <g>
       <use style="stroke:#000000;stroke-width:0.6;" x="57.6" xlink:href="#meec7ad2d21" y="189.906481"/>
      </g>
     </g>
    </g>
    <g id="ytick_15">
     <g id="line2d_21">
      <g>
       <use style="stroke:#000000;stroke-width:0.6;" x="57.6" xlink:href="#meec7ad2d21" y="183.383444"/>
      </g>
     </g>
    </g>
    <g id="ytick_16">
     <g id="line2d_22">
      <g>
       <use style="stroke:#000000;stroke-width:0.6;" x="57.6" xlink:href="#meec7ad2d21" y="178.323784"/>
      </g>
     </g>
    </g>
    <g id="ytick_17">
     <g id="line2d_23">
      <g>
       <use style="stroke:#000000;stroke-width:0.6;" x="57.6" xlink:href="#meec7ad2d21" y="174.18974"/>
      </g>
     </g>
    </g>
    <g id="ytick_18">
     <g id="line2d_24">
      <g>
       <use style="stroke:#000000;stroke-width:0.6;" x="57.6" xlink:href="#meec7ad2d21" y="170.694456"/>
      </g>
     </g>
    </g>
    <g id="ytick_19">
     <g id="line2d_25">
      <g>
       <use style="stroke:#000000;stroke-width:0.6;" x="57.6" xlink:href="#meec7ad2d21" y="167.666703"/>
      </g>
     </g>
    </g>
    <g id="ytick_20">
     <g id="line2d_26">
      <g>
       <use style="stroke:#000000;stroke-width:0.6;" x="57.6" xlink:href="#meec7ad2d21" y="164.996036"/>
      </g>
     </g>
    </g>
    <g id="ytick_21">
     <g id="line2d_27">
      <g>
       <use style="stroke:#000000;stroke-width:0.6;" x="57.6" xlink:href="#meec7ad2d21" y="146.890302"/>
      </g>
     </g>
    </g>
    <g id="ytick_22">
     <g id="line2d_28">
      <g>
       <use style="stroke:#000000;stroke-width:0.6;" x="57.6" xlink:href="#meec7ad2d21" y="137.696597"/>
      </g>
     </g>
    </g>
    <g id="ytick_23">
     <g id="line2d_29">
      <g>
       <use style="stroke:#000000;stroke-width:0.6;" x="57.6" xlink:href="#meec7ad2d21" y="131.173561"/>
      </g>
     </g>
    </g>
    <g id="ytick_24">
     <g id="line2d_30">
      <g>
       <use style="stroke:#000000;stroke-width:0.6;" x="57.6" xlink:href="#meec7ad2d21" y="126.1139"/>
      </g>
     </g>
    </g>
    <g id="ytick_25">
     <g id="line2d_31">
      <g>
       <use style="stroke:#000000;stroke-width:0.6;" x="57.6" xlink:href="#meec7ad2d21" y="121.979856"/>
      </g>
     </g>
    </g>
    <g id="ytick_26">
     <g id="line2d_32">
      <g>
       <use style="stroke:#000000;stroke-width:0.6;" x="57.6" xlink:href="#meec7ad2d21" y="118.484572"/>
      </g>
     </g>
    </g>
    <g id="ytick_27">
     <g id="line2d_33">
      <g>
       <use style="stroke:#000000;stroke-width:0.6;" x="57.6" xlink:href="#meec7ad2d21" y="115.45682"/>
      </g>
     </g>
    </g>
    <g id="ytick_28">
     <g id="line2d_34">
      <g>
       <use style="stroke:#000000;stroke-width:0.6;" x="57.6" xlink:href="#meec7ad2d21" y="112.786152"/>
      </g>
     </g>
    </g>
    <g id="ytick_29">
     <g id="line2d_35">
      <g>
       <use style="stroke:#000000;stroke-width:0.6;" x="57.6" xlink:href="#meec7ad2d21" y="94.680418"/>
      </g>
     </g>
    </g>
    <g id="ytick_30">
     <g id="line2d_36">
      <g>
       <use style="stroke:#000000;stroke-width:0.6;" x="57.6" xlink:href="#meec7ad2d21" y="85.486714"/>
      </g>
     </g>
    </g>
    <g id="ytick_31">
     <g id="line2d_37">
      <g>
       <use style="stroke:#000000;stroke-width:0.6;" x="57.6" xlink:href="#meec7ad2d21" y="78.963677"/>
      </g>
     </g>
    </g>
    <g id="ytick_32">
     <g id="line2d_38">
      <g>
       <use style="stroke:#000000;stroke-width:0.6;" x="57.6" xlink:href="#meec7ad2d21" y="73.904016"/>
      </g>
     </g>
    </g>
    <g id="ytick_33">
     <g id="line2d_39">
      <g>
       <use style="stroke:#000000;stroke-width:0.6;" x="57.6" xlink:href="#meec7ad2d21" y="69.769973"/>
      </g>
     </g>
    </g>
    <g id="ytick_34">
     <g id="line2d_40">
      <g>
       <use style="stroke:#000000;stroke-width:0.6;" x="57.6" xlink:href="#meec7ad2d21" y="66.274689"/>
      </g>
     </g>
    </g>
    <g id="ytick_35">
     <g id="line2d_41">
      <g>
       <use style="stroke:#000000;stroke-width:0.6;" x="57.6" xlink:href="#meec7ad2d21" y="63.246936"/>
      </g>
     </g>
    </g>
    <g id="ytick_36">
     <g id="line2d_42">
      <g>
       <use style="stroke:#000000;stroke-width:0.6;" x="57.6" xlink:href="#meec7ad2d21" y="60.576269"/>
      </g>
     </g>
    </g>
    <g id="ytick_37">
     <g id="line2d_43">
      <g>
       <use style="stroke:#000000;stroke-width:0.6;" x="57.6" xlink:href="#meec7ad2d21" y="42.470534"/>
      </g>
     </g>
    </g>
   </g>
   <g id="LineCollection_1">
    <path clip-path="url(#p94db161797)" d="M 398.487273 289 
L 398.487273 69.597923 
" style="fill:none;stroke:#000000;stroke-width:1.5;"/>
   </g>
   <g id="line2d_44">
    <path clip-path="url(#p94db161797)" d="M 73.832727 242.116364 
L 76.435169 242.116364 
L 77.085779 241.372873 
L 79.03761 241.372873 
L 79.68822 240.652989 
L 82.290661 240.652989 
L 82.941272 239.955256 
L 84.893103 239.955256 
L 85.543713 239.278357 
L 87.495544 239.278357 
L 88.146154 238.621081 
L 90.097985 238.621081 
L 90.748595 237.98232 
L 93.351037 237.98232 
L 94.001647 237.361064 
L 95.953478 237.361064 
L 96.604088 236.756376 
L 98.555919 236.756376 
L 99.206529 236.167396 
L 100.50775 236.167396 
L 101.15836 235.593327 
L 103.110191 235.593327 
L 103.760802 235.033436 
L 105.712633 235.033436 
L 106.363243 234.487038 
L 107.664463 234.487038 
L 108.315074 233.953495 
L 110.266905 233.953495 
L 110.917515 233.43222 
L 112.218736 233.43222 
L 112.869346 232.922661 
L 114.170567 232.922661 
L 114.821177 232.4243 
L 116.122398 232.4243 
L 116.773008 231.936659 
L 118.074228 231.936659 
L 118.724839 231.459285 
L 120.026059 231.459285 
L 120.67667 230.991752 
L 121.97789 230.991752 
L 122.628501 230.533667 
L 123.929721 230.533667 
L 124.580332 230.084654 
L 125.230942 230.084654 
L 125.881552 229.644359 
L 127.182773 229.644359 
L 127.833383 229.212452 
L 129.134604 229.212452 
L 129.785214 228.788616 
L 130.435824 228.788616 
L 131.086435 228.372559 
L 131.737045 228.372559 
L 132.387655 227.964 
L 133.688876 227.964 
L 134.339486 227.562672 
L 134.990097 227.562672 
L 135.640707 227.168324 
L 136.291317 227.168324 
L 136.941927 226.780717 
L 137.592538 226.780717 
L 138.243148 226.02483 
L 138.893758 226.399623 
L 139.544369 226.02483 
L 140.194979 226.02483 
L 140.845589 225.656132 
L 141.4962 225.656132 
L 142.14681 225.293333 
L 142.79742 225.293333 
L 143.448031 224.936248 
L 144.098641 224.936248 
L 144.749251 224.584699 
L 146.050472 224.238515 
L 146.701082 224.238515 
L 148.002303 223.561616 
L 148.652913 223.561616 
L 149.303523 223.230596 
L 149.954134 223.230596 
L 151.255354 222.582711 
L 151.905965 222.582711 
L 153.207185 221.952823 
L 153.857796 221.952823 
L 155.159016 221.339963 
L 155.809627 221.339963 
L 157.761457 220.450655 
L 158.412068 220.450655 
L 161.014509 219.316695 
L 161.665119 219.316695 
L 167.520612 216.95537 
L 175.978546 213.710636 
L 176.629156 213.282801 
L 177.279767 213.071875 
L 177.930377 212.655818 
L 179.231598 212.247259 
L 179.882208 211.845931 
L 180.532818 211.647899 
L 181.183429 211.256951 
L 184.43648 209.757266 
L 188.990752 207.35014 
L 190.291973 206.706851 
L 190.942583 206.236082 
L 192.243804 205.623222 
L 192.894414 205.174208 
L 193.545025 204.879731 
L 195.496856 203.599954 
L 196.147466 203.325109 
L 200.701738 200.382888 
L 203.95479 198.102127 
L 205.25601 197.146151 
L 212.412724 191.390022 
L 215.015165 189.089964 
L 221.521268 182.494136 
L 223.473099 180.313217 
L 228.027371 174.72508 
L 230.629812 171.218744 
L 233.882864 166.506489 
L 235.834695 163.509053 
L 239.738357 157.062827 
L 244.292629 148.966539 
L 255.353004 128.802147 
L 258.606056 123.423087 
L 261.859107 118.455439 
L 265.112159 113.875066 
L 269.015821 108.765766 
L 275.521924 100.72186 
L 281.377417 93.395595 
L 285.281079 88.176662 
L 288.53413 83.477277 
L 291.787182 78.332555 
L 294.389623 73.79544 
L 296.992064 68.771552 
L 298.293285 66.033682 
L 300.245116 61.579701 
L 302.196947 56.611868 
L 304.799388 48.915103 
L 306.100608 44.443636 
L 306.100608 44.443636 
" style="fill:none;stroke:#000000;stroke-dasharray:5.55,2.4;stroke-dashoffset:0;stroke-width:1.5;"/>
   </g>
   <g id="line2d_45">
    <path clip-path="url(#p94db161797)" d="M 73.832727 235.033436 
L 75.133948 235.033436 
L 75.784558 234.487038 
L 76.435169 234.487038 
L 77.085779 233.953495 
L 77.736389 233.953495 
L 78.386999 233.43222 
L 79.68822 233.43222 
L 80.33883 232.922661 
L 80.989441 232.922661 
L 81.640051 232.4243 
L 82.290661 232.4243 
L 82.941272 231.936659 
L 83.591882 231.936659 
L 84.242492 231.459285 
L 84.893103 231.459285 
L 85.543713 230.991752 
L 86.844934 230.991752 
L 87.495544 230.533667 
L 88.146154 230.533667 
L 88.796764 230.084654 
L 89.447375 230.084654 
L 90.097985 229.644359 
L 90.748595 229.644359 
L 91.399206 229.212452 
L 92.049816 229.212452 
L 92.700426 228.788616 
L 93.351037 228.788616 
L 94.001647 228.372559 
L 94.652257 228.372559 
L 95.953478 227.562672 
L 96.604088 227.562672 
L 97.254698 227.168324 
L 97.905309 227.168324 
L 98.555919 226.780717 
L 99.206529 226.780717 
L 99.85714 226.399623 
L 100.50775 226.399623 
L 101.15836 226.02483 
L 101.808971 226.02483 
L 103.110191 225.293333 
L 103.760802 225.293333 
L 104.411412 224.936248 
L 105.062022 224.936248 
L 106.363243 224.238515 
L 107.013853 224.238515 
L 107.664463 223.89754 
L 108.315074 223.89754 
L 109.616294 223.230596 
L 110.266905 223.230596 
L 111.568125 222.582711 
L 112.218736 222.582711 
L 113.519956 221.952823 
L 114.170567 221.952823 
L 115.471787 221.339963 
L 116.122398 221.339963 
L 117.423618 220.743233 
L 118.074228 220.743233 
L 120.026059 219.876586 
L 120.67667 219.876586 
L 122.628501 219.04185 
L 123.279111 219.04185 
L 125.881552 217.974619 
L 126.532163 217.974619 
L 129.785214 216.707559 
L 130.435824 216.707559 
L 136.941927 214.367913 
L 138.243148 213.927618 
L 138.893758 213.927618 
L 141.4962 213.071875 
L 142.14681 212.655818 
L 151.255354 209.757266 
L 151.905965 209.397346 
L 153.857796 208.867958 
L 154.508406 208.521774 
L 155.809627 208.180799 
L 156.460237 207.844875 
L 157.761457 207.513855 
L 158.412068 207.187599 
L 159.713288 206.86597 
L 160.363899 206.548838 
L 161.014509 206.391921 
L 161.665119 206.081307 
L 162.31573 205.927582 
L 162.96634 205.623222 
L 172.074884 202.388567 
L 172.725495 202.127938 
L 173.376105 201.998738 
L 179.231598 199.790831 
L 184.43648 197.886178 
L 186.388311 197.042378 
L 188.340142 196.328966 
L 190.291973 195.54021 
L 191.593194 195.060815 
L 194.195635 194.040525 
L 210.460893 187.202246 
L 211.762113 186.606387 
L 214.364555 185.459681 
L 229.979202 177.963864 
L 237.135915 174.18974 
L 240.388967 172.409726 
L 252.099953 165.454122 
L 263.160328 157.968477 
L 268.36521 154.057281 
L 274.220703 149.266701 
L 278.774975 145.218852 
L 283.329248 140.810894 
L 287.232909 136.691306 
L 290.485961 132.978097 
L 294.389623 128.098382 
L 297.642674 123.60505 
L 300.245116 119.661263 
L 302.196947 116.462292 
L 305.449998 110.556438 
L 306.100608 109.271442 
L 314.558543 87.414348 
L 315.209153 85.095571 
L 315.209153 85.095571 
" style="fill:none;stroke:#000000;stroke-dasharray:9.6,2.4,1.5,2.4;stroke-dashoffset:0;stroke-width:1.5;"/>
   </g>
   <g id="line2d_46">
    <path clip-path="url(#p94db161797)" d="M 73.832727 227.562672 
L 74.483338 227.168324 
L 75.133948 227.168324 
L 75.784558 226.780717 
L 76.435169 226.780717 
L 77.085779 226.399623 
L 77.736389 226.399623 
L 78.386999 226.02483 
L 79.03761 226.02483 
L 79.68822 225.656132 
L 80.989441 225.656132 
L 81.640051 225.293333 
L 82.290661 225.293333 
L 82.941272 224.936248 
L 83.591882 224.936248 
L 84.242492 224.584699 
L 84.893103 224.584699 
L 85.543713 224.238515 
L 86.194323 224.238515 
L 86.844934 223.89754 
L 87.495544 223.89754 
L 88.146154 223.561616 
L 88.796764 223.561616 
L 89.447375 223.230596 
L 90.097985 223.230596 
L 90.748595 222.90434 
L 91.399206 222.90434 
L 92.049816 222.582711 
L 92.700426 222.582711 
L 93.351037 222.265579 
L 94.001647 222.265579 
L 94.652257 221.952823 
L 95.302868 221.952823 
L 95.953478 221.644323 
L 96.604088 221.644323 
L 97.254698 221.339963 
L 97.905309 221.339963 
L 98.555919 221.039635 
L 99.206529 221.039635 
L 99.85714 220.743233 
L 100.50775 220.743233 
L 101.15836 220.450655 
L 101.808971 220.450655 
L 102.459581 220.161803 
L 103.110191 220.161803 
L 103.760802 219.876586 
L 104.411412 219.876586 
L 105.062022 219.594913 
L 105.712633 219.594913 
L 106.363243 219.316695 
L 107.013853 219.316695 
L 107.664463 219.04185 
L 108.315074 219.04185 
L 109.616294 218.501955 
L 110.266905 218.501955 
L 110.917515 218.236754 
L 111.568125 218.236754 
L 112.218736 217.974619 
L 112.869346 217.974619 
L 113.519956 217.715479 
L 114.170567 217.715479 
L 115.471787 217.20592 
L 116.122398 217.20592 
L 116.773008 216.95537 
L 117.423618 216.95537 
L 118.724839 216.462428 
L 119.375449 216.462428 
L 120.026059 216.219918 
L 120.67667 216.219918 
L 121.97789 215.742543 
L 122.628501 215.742543 
L 123.279111 215.507572 
L 123.929721 215.507572 
L 125.230942 215.044812 
L 125.881552 215.044812 
L 126.532163 214.816926 
L 127.182773 214.816926 
L 128.483993 214.367913 
L 129.134604 214.367913 
L 130.435824 213.927618 
L 131.086435 213.927618 
L 132.387655 213.495711 
L 133.038266 213.495711 
L 134.339486 213.071875 
L 134.990097 213.071875 
L 136.291317 212.655818 
L 136.941927 212.655818 
L 137.592538 212.450618 
L 138.243148 212.045707 
L 139.544369 212.045707 
L 140.845589 211.647899 
L 141.4962 211.647899 
L 143.448031 211.063976 
L 144.098641 211.063976 
L 146.050472 210.494711 
L 146.701082 210.494711 
L 149.303523 209.757266 
L 149.954134 209.757266 
L 152.556575 209.043051 
L 153.207185 209.043051 
L 156.460237 208.180799 
L 157.110847 208.180799 
L 162.31573 206.86597 
L 162.96634 206.86597 
L 172.725495 204.589027 
L 176.629156 203.738636 
L 177.279767 203.462115 
L 185.087091 201.742527 
L 185.737701 201.489179 
L 187.689532 201.114385 
L 188.340142 200.867921 
L 190.291973 200.503177 
L 190.942583 200.263233 
L 192.243804 200.025802 
L 192.894414 199.790831 
L 193.545025 199.674252 
L 194.846245 199.328071 
L 196.798076 198.874567 
L 198.749907 198.320152 
L 200.701738 197.886178 
L 203.304179 197.146151 
L 205.25601 196.733877 
L 207.858451 196.029958 
L 209.159672 195.734842 
L 212.412724 194.87186 
L 216.316385 193.770051 
L 217.617606 193.502766 
L 219.569437 192.891084 
L 227.376761 190.753503 
L 229.328592 190.134367 
L 231.280423 189.606153 
L 234.533474 188.585264 
L 235.834695 188.231522 
L 254.051784 182.277154 
L 267.06399 177.390912 
L 269.015821 176.578733 
L 272.268872 175.233762 
L 283.329248 170.182017 
L 295.040233 163.865763 
L 302.196947 159.300416 
L 306.100608 156.484321 
L 315.209153 148.756302 
L 324.317697 138.278419 
L 332.775631 123.031794 
L 333.426242 121.408907 
L 341.884176 73.822083 
L 342.534786 58.760181 
L 342.534786 58.760181 
" style="fill:none;stroke:#000000;stroke-dasharray:1.5,2.475;stroke-dashoffset:0;stroke-width:1.5;"/>
   </g>
   <g id="line2d_47">
    <path clip-path="url(#p94db161797)" d="M 73.832727 223.230596 
L 74.483338 222.90434 
L 75.133948 222.90434 
L 75.784558 222.582711 
L 76.435169 222.582711 
L 77.085779 222.265579 
L 77.736389 222.265579 
L 78.386999 221.952823 
L 79.03761 221.952823 
L 79.68822 221.644323 
L 80.33883 221.644323 
L 80.989441 221.339963 
L 81.640051 221.339963 
L 82.290661 221.039635 
L 82.941272 221.039635 
L 83.591882 220.743233 
L 84.242492 220.743233 
L 84.893103 220.450655 
L 85.543713 220.450655 
L 86.194323 220.161803 
L 86.844934 220.161803 
L 87.495544 219.876586 
L 88.146154 219.876586 
L 88.796764 219.594913 
L 89.447375 219.594913 
L 90.097985 219.316695 
L 90.748595 219.316695 
L 91.399206 219.04185 
L 92.049816 219.04185 
L 92.700426 218.770296 
L 93.351037 218.770296 
L 94.001647 218.501955 
L 94.652257 218.501955 
L 95.302868 218.236754 
L 95.953478 218.236754 
L 97.254698 217.715479 
L 97.905309 217.715479 
L 98.555919 217.459268 
L 99.206529 217.459268 
L 99.85714 217.20592 
L 100.50775 217.20592 
L 101.15836 216.95537 
L 101.808971 216.95537 
L 102.459581 216.707559 
L 103.110191 216.707559 
L 104.411412 216.219918 
L 105.062022 216.219918 
L 105.712633 215.979974 
L 106.363243 215.979974 
L 107.013853 215.742543 
L 107.664463 215.742543 
L 108.315074 215.507572 
L 108.965684 215.507572 
L 110.266905 215.044812 
L 110.917515 215.044812 
L 111.568125 214.816926 
L 112.218736 214.816926 
L 112.869346 214.591308 
L 113.519956 214.591308 
L 114.821177 214.146697 
L 115.471787 214.146697 
L 116.122398 213.927618 
L 116.773008 213.927618 
L 117.423618 213.710636 
L 118.074228 213.710636 
L 119.375449 213.282801 
L 120.026059 213.282801 
L 120.67667 213.071875 
L 121.32728 213.071875 
L 122.628501 212.655818 
L 123.279111 212.655818 
L 123.929721 212.450618 
L 124.580332 212.450618 
L 125.881552 212.045707 
L 126.532163 212.045707 
L 127.833383 211.647899 
L 128.483993 211.647899 
L 130.435824 211.256951 
L 131.086435 211.063976 
L 131.737045 211.063976 
L 133.038266 210.682882 
L 133.688876 210.682882 
L 134.990097 210.308089 
L 135.640707 210.308089 
L 136.941927 209.939391 
L 137.592538 209.939391 
L 138.243148 209.757266 
L 138.893758 209.757266 
L 140.845589 209.219507 
L 141.4962 209.219507 
L 142.79742 208.867958 
L 143.448031 208.867958 
L 144.749251 208.521774 
L 148.002303 208.012215 
L 149.303523 207.678761 
L 149.954134 207.678761 
L 151.905965 207.187599 
L 152.556575 207.187599 
L 153.857796 206.86597 
L 154.508406 206.86597 
L 157.110847 206.236082 
L 157.761457 206.236082 
L 159.713288 205.774891 
L 160.363899 205.774891 
L 162.96634 205.174208 
L 164.918171 204.879731 
L 166.219392 204.589027 
L 166.870002 204.589027 
L 170.123053 203.878172 
L 170.773664 203.878172 
L 175.327936 202.918987 
L 175.978546 202.918987 
L 184.43648 201.238629 
L 185.087091 201.238629 
L 221.521268 194.22265 
L 222.822489 193.950008 
L 224.77432 193.591511 
L 226.72615 193.151217 
L 228.677981 192.805033 
L 231.280423 192.21165 
L 233.232254 191.879417 
L 237.135915 190.99011 
L 237.786526 190.910967 
L 242.991408 189.75582 
L 244.292629 189.531688 
L 274.220703 182.603411 
L 287.232909 179.2494 
L 306.100608 173.740726 
L 315.209153 170.791842 
L 324.317697 167.525428 
L 333.426242 163.913753 
L 342.534786 159.835823 
L 351.64333 155.12395 
L 360.751875 149.507181 
L 369.860419 142.493253 
L 378.968963 132.996518 
L 387.426897 119.282331 
L 388.077508 117.836367 
L 396.535442 78.88163 
L 397.186052 69.597923 
L 397.186052 69.597923 
" style="fill:none;stroke:#000000;stroke-linecap:square;stroke-width:1.5;"/>
   </g>
   <g id="patch_3">
    <path d="M 57.6 252 
L 57.6 34.56 
" style="fill:none;stroke:#000000;stroke-linecap:square;stroke-linejoin:miter;stroke-width:0.8;"/>
   </g>
   <g id="patch_4">
    <path d="M 414.72 252 
L 414.72 34.56 
" style="fill:none;stroke:#000000;stroke-linecap:square;stroke-linejoin:miter;stroke-width:0.8;"/>
   </g>
   <g id="patch_5">
    <path d="M 57.6 252 
L 414.72 252 
" style="fill:none;stroke:#000000;stroke-linecap:square;stroke-linejoin:miter;stroke-width:0.8;"/>
   </g>
   <g id="patch_6">
    <path d="M 57.6 34.56 
L 414.72 34.56 
" style="fill:none;stroke:#000000;stroke-linecap:square;stroke-linejoin:miter;stroke-width:0.8;"/>
   </g>
   <g id="text_12">
    <!-- $r_0$ where $p(r_0)=0$ -->
    <g transform="translate(183.48 28.56)scale(0.12 -0.12)">
     <defs>
      <path d="M 44.578125 46.390625 
Q 43.21875 47.125 41.453125 47.515625 
Q 39.703125 47.90625 37.703125 47.90625 
Q 30.515625 47.90625 25.140625 42.453125 
Q 19.78125 37.015625 18.015625 27.875 
L 12.5 0 
L 3.515625 0 
L 14.203125 54.6875 
L 23.1875 54.6875 
L 21.484375 46.1875 
Q 25.046875 50.921875 30 53.453125 
Q 34.96875 56 40.578125 56 
Q 42.046875 56 43.453125 55.828125 
Q 44.875 55.671875 46.296875 55.28125 
z
" id="DejaVuSans-Oblique-114"/>
      <path d="M 4.203125 54.6875 
L 13.1875 54.6875 
L 24.421875 12.015625 
L 35.59375 54.6875 
L 46.1875 54.6875 
L 57.421875 12.015625 
L 68.609375 54.6875 
L 77.59375 54.6875 
L 63.28125 0 
L 52.6875 0 
L 40.921875 44.828125 
L 29.109375 0 
L 18.5 0 
z
" id="DejaVuSans-119"/>
      <path d="M 54.890625 33.015625 
L 54.890625 0 
L 45.90625 0 
L 45.90625 32.71875 
Q 45.90625 40.484375 42.875 44.328125 
Q 39.84375 48.1875 33.796875 48.1875 
Q 26.515625 48.1875 22.3125 43.546875 
Q 18.109375 38.921875 18.109375 30.90625 
L 18.109375 0 
L 9.078125 0 
L 9.078125 75.984375 
L 18.109375 75.984375 
L 18.109375 46.1875 
Q 21.34375 51.125 25.703125 53.5625 
Q 30.078125 56 35.796875 56 
Q 45.21875 56 50.046875 50.171875 
Q 54.890625 44.34375 54.890625 33.015625 
z
" id="DejaVuSans-104"/>
      <path d="M 41.109375 46.296875 
Q 39.59375 47.171875 37.8125 47.578125 
Q 36.03125 48 33.890625 48 
Q 26.265625 48 22.1875 43.046875 
Q 18.109375 38.09375 18.109375 28.8125 
L 18.109375 0 
L 9.078125 0 
L 9.078125 54.6875 
L 18.109375 54.6875 
L 18.109375 46.1875 
Q 20.953125 51.171875 25.484375 53.578125 
Q 30.03125 56 36.53125 56 
Q 37.453125 56 38.578125 55.875 
Q 39.703125 55.765625 41.0625 55.515625 
z
" id="DejaVuSans-114"/>
      <path d="M 49.609375 33.6875 
Q 49.609375 40.875 46.484375 44.671875 
Q 43.359375 48.484375 37.5 48.484375 
Q 33.5 48.484375 29.859375 46.4375 
Q 26.21875 44.390625 23.390625 40.484375 
Q 20.609375 36.625 18.9375 31.15625 
Q 17.28125 25.6875 17.28125 20.3125 
Q 17.28125 13.484375 20.40625 9.796875 
Q 23.53125 6.109375 29.296875 6.109375 
Q 33.546875 6.109375 37.1875 8.109375 
Q 40.828125 10.109375 43.40625 13.921875 
Q 46.1875 17.921875 47.890625 23.34375 
Q 49.609375 28.765625 49.609375 33.6875 
z
M 21.78125 46.390625 
Q 25.390625 51.125 30.296875 53.5625 
Q 35.203125 56 41.21875 56 
Q 49.609375 56 54.25 50.5 
Q 58.890625 45.015625 58.890625 35.109375 
Q 58.890625 27 56 19.65625 
Q 53.125 12.3125 47.703125 6.5 
Q 44.09375 2.640625 39.546875 0.609375 
Q 35.015625 -1.421875 29.984375 -1.421875 
Q 24.171875 -1.421875 20.21875 1 
Q 16.265625 3.421875 14.3125 8.203125 
L 8.6875 -20.796875 
L -0.296875 -20.796875 
L 14.40625 54.6875 
L 23.390625 54.6875 
z
" id="DejaVuSans-Oblique-112"/>
      <path d="M 31 75.875 
Q 24.46875 64.65625 21.28125 53.65625 
Q 18.109375 42.671875 18.109375 31.390625 
Q 18.109375 20.125 21.3125 9.0625 
Q 24.515625 -2 31 -13.1875 
L 23.1875 -13.1875 
Q 15.875 -1.703125 12.234375 9.375 
Q 8.59375 20.453125 8.59375 31.390625 
Q 8.59375 42.28125 12.203125 53.3125 
Q 15.828125 64.359375 23.1875 75.875 
z
" id="DejaVuSans-40"/>
      <path d="M 8.015625 75.875 
L 15.828125 75.875 
Q 23.140625 64.359375 26.78125 53.3125 
Q 30.421875 42.28125 30.421875 31.390625 
Q 30.421875 20.453125 26.78125 9.375 
Q 23.140625 -1.703125 15.828125 -13.1875 
L 8.015625 -13.1875 
Q 14.5 -2 17.703125 9.0625 
Q 20.90625 20.125 20.90625 31.390625 
Q 20.90625 42.671875 17.703125 53.65625 
Q 14.5 64.65625 8.015625 75.875 
z
" id="DejaVuSans-41"/>
     </defs>
     <use transform="translate(0 0.015625)" xlink:href="#DejaVuSans-Oblique-114"/>
     <use transform="translate(41.113281 -16.390625)scale(0.7)" xlink:href="#DejaVuSans-48"/>
     <use transform="translate(88.383789 0.015625)" xlink:href="#DejaVuSans-32"/>
     <use transform="translate(120.170898 0.015625)" xlink:href="#DejaVuSans-119"/>
     <use transform="translate(201.958008 0.015625)" xlink:href="#DejaVuSans-104"/>
     <use transform="translate(265.336914 0.015625)" xlink:href="#DejaVuSans-101"/>
     <use transform="translate(326.860352 0.015625)" xlink:href="#DejaVuSans-114"/>
     <use transform="translate(367.973633 0.015625)" xlink:href="#DejaVuSans-101"/>
     <use transform="translate(429.49707 0.015625)" xlink:href="#DejaVuSans-32"/>
     <use transform="translate(461.28418 0.015625)" xlink:href="#DejaVuSans-Oblique-112"/>
     <use transform="translate(524.760742 0.015625)" xlink:href="#DejaVuSans-40"/>
     <use transform="translate(563.774414 0.015625)" xlink:href="#DejaVuSans-Oblique-114"/>
     <use transform="translate(604.887695 -16.390625)scale(0.7)" xlink:href="#DejaVuSans-48"/>
     <use transform="translate(652.158203 0.015625)" xlink:href="#DejaVuSans-41"/>
     <use transform="translate(710.654297 0.015625)" xlink:href="#DejaVuSans-61"/>
     <use transform="translate(813.925781 0.015625)" xlink:href="#DejaVuSans-48"/>
    </g>
   </g>
   <g id="legend_1">
    <g id="patch_7">
     <path d="M 64.6 101.36 
L 130.1 101.36 
Q 132.1 101.36 132.1 99.36 
L 132.1 41.56 
Q 132.1 39.56 130.1 39.56 
L 64.6 39.56 
Q 62.6 39.56 62.6 41.56 
L 62.6 99.36 
Q 62.6 101.36 64.6 101.36 
z
" style="fill:#ffffff;opacity:0.8;stroke:#cccccc;stroke-linejoin:miter;"/>
    </g>
    <g id="line2d_48">
     <path d="M 66.6 47.66 
L 86.6 47.66 
" style="fill:none;stroke:#000000;stroke-dasharray:5.55,2.4;stroke-dashoffset:0;stroke-width:1.5;"/>
    </g>
    <g id="line2d_49"/>
    <g id="text_13">
     <!-- $r_0$ $j=$0 -->
     <g transform="translate(94.6 51.16)scale(0.1 -0.1)">
      <defs>
       <path d="M 14.5 54.6875 
L 23.484375 54.6875 
L 12.703125 -0.984375 
L 12.640625 -1.21875 
Q 10.84375 -10.546875 8.5 -14.015625 
Q 6.296875 -17.28125 2.0625 -19.03125 
Q -2.15625 -20.796875 -7.90625 -20.796875 
L -11.28125 -20.796875 
L -9.8125 -13.1875 
L -7.515625 -13.1875 
Q -2.25 -13.1875 -0.015625 -10.984375 
Q 2.203125 -8.796875 3.71875 -0.984375 
z
M 18.703125 75.984375 
L 27.6875 75.984375 
L 25.484375 64.59375 
L 16.5 64.59375 
z
" id="DejaVuSans-Oblique-106"/>
      </defs>
      <use transform="translate(0 0.015625)" xlink:href="#DejaVuSans-Oblique-114"/>
      <use transform="translate(41.113281 -16.390625)scale(0.7)" xlink:href="#DejaVuSans-48"/>
      <use transform="translate(88.383789 0.015625)" xlink:href="#DejaVuSans-32"/>
      <use transform="translate(120.170898 0.015625)" xlink:href="#DejaVuSans-Oblique-106"/>
      <use transform="translate(167.436523 0.015625)" xlink:href="#DejaVuSans-61"/>
      <use transform="translate(270.708008 0.015625)" xlink:href="#DejaVuSans-48"/>
     </g>
    </g>
    <g id="line2d_50">
     <path d="M 66.6 62.36 
L 86.6 62.36 
" style="fill:none;stroke:#000000;stroke-dasharray:9.6,2.4,1.5,2.4;stroke-dashoffset:0;stroke-width:1.5;"/>
    </g>
    <g id="line2d_51"/>
    <g id="text_14">
     <!-- $r_0$ $j=$1 -->
     <g transform="translate(94.6 65.86)scale(0.1 -0.1)">
      <use transform="translate(0 0.015625)" xlink:href="#DejaVuSans-Oblique-114"/>
      <use transform="translate(41.113281 -16.390625)scale(0.7)" xlink:href="#DejaVuSans-48"/>
      <use transform="translate(88.383789 0.015625)" xlink:href="#DejaVuSans-32"/>
      <use transform="translate(120.170898 0.015625)" xlink:href="#DejaVuSans-Oblique-106"/>
      <use transform="translate(167.436523 0.015625)" xlink:href="#DejaVuSans-61"/>
      <use transform="translate(270.708008 0.015625)" xlink:href="#DejaVuSans-49"/>
     </g>
    </g>
    <g id="line2d_52">
     <path d="M 66.6 77.06 
L 86.6 77.06 
" style="fill:none;stroke:#000000;stroke-dasharray:1.5,2.475;stroke-dashoffset:0;stroke-width:1.5;"/>
    </g>
    <g id="line2d_53"/>
    <g id="text_15">
     <!-- $r_0$ $j=$2 -->
     <g transform="translate(94.6 80.56)scale(0.1 -0.1)">
      <use transform="translate(0 0.015625)" xlink:href="#DejaVuSans-Oblique-114"/>
      <use transform="translate(41.113281 -16.390625)scale(0.7)" xlink:href="#DejaVuSans-48"/>
      <use transform="translate(88.383789 0.015625)" xlink:href="#DejaVuSans-32"/>
      <use transform="translate(120.170898 0.015625)" xlink:href="#DejaVuSans-Oblique-106"/>
      <use transform="translate(167.436523 0.015625)" xlink:href="#DejaVuSans-61"/>
      <use transform="translate(270.708008 0.015625)" xlink:href="#DejaVuSans-50"/>
     </g>
    </g>
    <g id="line2d_54">
     <path d="M 66.6 91.76 
L 86.6 91.76 
" style="fill:none;stroke:#000000;stroke-linecap:square;stroke-width:1.5;"/>
    </g>
    <g id="line2d_55"/>
    <g id="text_16">
     <!-- $\xi_0[r]$ -->
     <g transform="translate(94.6 95.26)scale(0.1 -0.1)">
      <defs>
       <path d="M 31.5 6.203125 
Q 37.9375 6.15625 41.0625 2.484375 
Q 44.4375 -1.375 43.3125 -7.234375 
Q 42.1875 -12.84375 37.84375 -16.75 
Q 33.109375 -21 25.140625 -21 
Q 25.875 -17.328125 26.5625 -13.625 
Q 29.890625 -13.875 32.375 -11.71875 
Q 34.28125 -10.015625 34.625 -8.203125 
Q 35.109375 -5.609375 33.984375 -3.46875 
Q 32.8125 -1.421875 30.03125 -1.421875 
Q -0.390625 -1.421875 3.765625 19.921875 
Q 6.59375 34.578125 23.6875 38.875 
Q 10.359375 40.625 12.84375 53.328125 
Q 14.703125 62.9375 26.21875 66.9375 
L 16.0625 66.9375 
L 17.828125 75.984375 
L 56.34375 75.984375 
L 54.59375 66.9375 
Q 23.875 66.9375 21.09375 52.734375 
Q 19.28125 43.40625 45.015625 42.96875 
L 43.40625 34.671875 
Q 15.765625 35.75 12.796875 19.921875 
Q 10.296875 6.6875 31.5 6.203125 
z
" id="DejaVuSans-Oblique-958"/>
       <path d="M 8.59375 75.984375 
L 29.296875 75.984375 
L 29.296875 69 
L 17.578125 69 
L 17.578125 -6.203125 
L 29.296875 -6.203125 
L 29.296875 -13.1875 
L 8.59375 -13.1875 
z
" id="DejaVuSans-91"/>
       <path d="M 30.421875 75.984375 
L 30.421875 -13.1875 
L 9.71875 -13.1875 
L 9.71875 -6.203125 
L 21.390625 -6.203125 
L 21.390625 69 
L 9.71875 69 
L 9.71875 75.984375 
z
" id="DejaVuSans-93"/>
      </defs>
      <use transform="translate(0 0.015625)" xlink:href="#DejaVuSans-Oblique-958"/>
      <use transform="translate(55.761719 -16.390625)scale(0.7)" xlink:href="#DejaVuSans-48"/>
      <use transform="translate(103.032227 0.015625)" xlink:href="#DejaVuSans-91"/>
      <use transform="translate(142.045898 0.015625)" xlink:href="#DejaVuSans-Oblique-114"/>
      <use transform="translate(183.15918 0.015625)" xlink:href="#DejaVuSans-93"/>
     </g>
    </g>
   </g>
  </g>
 </g>
 <defs>
  <clipPath id="p94db161797">
   <rect height="217.44" width="357.12" x="57.6" y="34.56"/>
  </clipPath>
 </defs>
</svg>
