<?xml version="1.0" encoding="utf-8" standalone="no"?>
<!DOCTYPE svg PUBLIC "-//W3C//DTD SVG 1.1//EN"
  "http://www.w3.org/Graphics/SVG/1.1/DTD/svg11.dtd">
<svg height="288pt" version="1.1" viewBox="0 0 432 288" width="432pt" xmlns="http://www.w3.org/2000/svg" xmlns:xlink="http://www.w3.org/1999/xlink">
 <metadata>
  <rdf:RDF xmlns:cc="http://creativecommons.org/ns#" xmlns:dc="http://purl.org/dc/elements/1.1/" xmlns:rdf="http://www.w3.org/1999/02/22-rdf-syntax-ns#">
   <cc:Work>
    <dc:type rdf:resource="http://purl.org/dc/dcmitype/StillImage"/>
    <dc:date>2021-04-09T12:33:02.252873</dc:date>
    <dc:format>image/svg+xml</dc:format>
    <dc:creator>
     <cc:Agent>
      <dc:title>Matplotlib v3.4.1, https://matplotlib.org/</dc:title>
     </cc:Agent>
    </dc:creator>
   </cc:Work>
  </rdf:RDF>
 </metadata>
 <defs>
  <style type="text/css">*{stroke-linecap:butt;stroke-linejoin:round;}</style>
 </defs>
 <g id="figure_1">
  <g id="patch_1">
   <path d="M 0 288 
L 432 288 
L 432 0 
L 0 0 
z
" style="fill:#ffffff;"/>
  </g>
  <g id="axes_1">
   <g id="patch_2">
    <path d="M 51.41617 235.30653 
L 421.2 235.30653 
L 421.2 10.8 
L 51.41617 10.8 
z
" style="fill:#ffffff;"/>
   </g>
   <g id="matplotlib.axis_1">
    <g id="xtick_1">
     <g id="line2d_1">
      <defs>
       <path d="M 0 0 
L 0 3.5 
" id="m0e4952816a" style="stroke:#000000;stroke-width:0.8;"/>
      </defs>
      <g>
       <use style="stroke:#000000;stroke-width:0.8;" x="67.548133" xlink:href="#m0e4952816a" y="235.30653"/>
      </g>
     </g>
     <g id="text_1">
      <!-- $\mathdefault{0}$ -->
      <g transform="translate(65.057466 249.225028)scale(0.1 -0.1)">
       <defs>
        <path d="M 2688 2038 
C 2688 2430 2682 3099 2413 3613 
C 2176 4063 1798 4224 1466 4224 
C 1158 4224 768 4082 525 3620 
C 269 3137 243 2539 243 2038 
C 243 1671 250 1112 448 623 
C 723 -39 1216 -128 1466 -128 
C 1760 -128 2208 -7 2470 604 
C 2662 1048 2688 1568 2688 2038 
z
M 1466 -26 
C 1056 -26 813 328 723 816 
C 653 1196 653 1749 653 2109 
C 653 2604 653 3015 736 3407 
C 858 3954 1216 4121 1466 4121 
C 1728 4121 2067 3947 2189 3420 
C 2272 3054 2278 2623 2278 2109 
C 2278 1691 2278 1176 2202 797 
C 2067 96 1690 -26 1466 -26 
z
" id="CMR17-30" transform="scale(0.015625)"/>
       </defs>
       <use transform="scale(0.996264)" xlink:href="#CMR17-30"/>
      </g>
     </g>
    </g>
    <g id="xtick_2">
     <g id="line2d_2">
      <g>
       <use style="stroke:#000000;stroke-width:0.8;" x="135.187393" xlink:href="#m0e4952816a" y="235.30653"/>
      </g>
     </g>
     <g id="text_2">
      <!-- $\mathdefault{1}$ -->
      <g transform="translate(132.696725 249.225028)scale(0.1 -0.1)">
       <defs>
        <path d="M 1702 4083 
C 1702 4217 1696 4224 1606 4224 
C 1357 3927 979 3833 621 3820 
C 602 3820 570 3820 563 3808 
C 557 3795 557 3782 557 3648 
C 755 3648 1088 3686 1344 3839 
L 1344 467 
C 1344 243 1331 166 781 166 
L 589 166 
L 589 0 
C 896 6 1216 12 1523 12 
C 1830 12 2150 6 2458 0 
L 2458 166 
L 2266 166 
C 1715 166 1702 236 1702 467 
L 1702 4083 
z
" id="CMR17-31" transform="scale(0.015625)"/>
       </defs>
       <use transform="scale(0.996264)" xlink:href="#CMR17-31"/>
      </g>
     </g>
    </g>
    <g id="xtick_3">
     <g id="line2d_3">
      <g>
       <use style="stroke:#000000;stroke-width:0.8;" x="202.826652" xlink:href="#m0e4952816a" y="235.30653"/>
      </g>
     </g>
     <g id="text_3">
      <!-- $\mathdefault{2}$ -->
      <g transform="translate(200.335984 249.225028)scale(0.1 -0.1)">
       <defs>
        <path d="M 2669 990 
L 2554 990 
C 2490 537 2438 460 2413 422 
C 2381 371 1920 371 1830 371 
L 602 371 
C 832 620 1280 1073 1824 1596 
C 2214 1966 2669 2400 2669 3033 
C 2669 3788 2067 4224 1395 4224 
C 691 4224 262 3603 262 3027 
C 262 2777 448 2745 525 2745 
C 589 2745 781 2783 781 3007 
C 781 3206 614 3264 525 3264 
C 486 3264 448 3257 422 3244 
C 544 3788 915 4057 1306 4057 
C 1862 4057 2227 3616 2227 3033 
C 2227 2477 1901 1998 1536 1583 
L 262 147 
L 262 0 
L 2515 0 
L 2669 990 
z
" id="CMR17-32" transform="scale(0.015625)"/>
       </defs>
       <use transform="scale(0.996264)" xlink:href="#CMR17-32"/>
      </g>
     </g>
    </g>
    <g id="xtick_4">
     <g id="line2d_4">
      <g>
       <use style="stroke:#000000;stroke-width:0.8;" x="270.465911" xlink:href="#m0e4952816a" y="235.30653"/>
      </g>
     </g>
     <g id="text_4">
      <!-- $\mathdefault{3}$ -->
      <g transform="translate(267.975243 249.225028)scale(0.1 -0.1)">
       <defs>
        <path d="M 1414 2176 
C 1984 2176 2234 1673 2234 1094 
C 2234 322 1824 25 1453 25 
C 1114 25 563 193 390 691 
C 422 678 454 678 486 678 
C 640 678 755 780 755 947 
C 755 1132 614 1216 486 1216 
C 378 1216 211 1164 211 927 
C 211 335 787 -128 1466 -128 
C 2176 -128 2720 432 2720 1087 
C 2720 1718 2208 2176 1600 2246 
C 2086 2347 2554 2776 2554 3353 
C 2554 3856 2048 4224 1472 4224 
C 890 4224 378 3862 378 3347 
C 378 3123 544 3084 627 3084 
C 762 3084 877 3167 877 3334 
C 877 3500 762 3584 627 3584 
C 602 3584 570 3584 544 3571 
C 730 3999 1235 4076 1459 4076 
C 1683 4076 2106 3966 2106 3347 
C 2106 3167 2080 2851 1862 2574 
C 1670 2329 1453 2316 1242 2297 
C 1210 2297 1062 2284 1037 2284 
C 992 2278 966 2272 966 2227 
C 966 2182 973 2176 1101 2176 
L 1414 2176 
z
" id="CMR17-33" transform="scale(0.015625)"/>
       </defs>
       <use transform="scale(0.996264)" xlink:href="#CMR17-33"/>
      </g>
     </g>
    </g>
    <g id="xtick_5">
     <g id="line2d_5">
      <g>
       <use style="stroke:#000000;stroke-width:0.8;" x="338.10517" xlink:href="#m0e4952816a" y="235.30653"/>
      </g>
     </g>
     <g id="text_5">
      <!-- $\mathdefault{4}$ -->
      <g transform="translate(335.614502 249.225028)scale(0.1 -0.1)">
       <defs>
        <path d="M 2150 4147 
C 2150 4281 2144 4288 2029 4288 
L 128 1254 
L 128 1088 
L 1779 1088 
L 1779 460 
C 1779 230 1766 166 1318 166 
L 1197 166 
L 1197 0 
C 1402 12 1747 12 1965 12 
C 2182 12 2528 12 2733 0 
L 2733 166 
L 2611 166 
C 2163 166 2150 230 2150 460 
L 2150 1088 
L 2803 1088 
L 2803 1254 
L 2150 1254 
L 2150 4147 
z
M 1798 3723 
L 1798 1254 
L 256 1254 
L 1798 3723 
z
" id="CMR17-34" transform="scale(0.015625)"/>
       </defs>
       <use transform="scale(0.996264)" xlink:href="#CMR17-34"/>
      </g>
     </g>
    </g>
    <g id="xtick_6">
     <g id="line2d_6">
      <g>
       <use style="stroke:#000000;stroke-width:0.8;" x="405.744429" xlink:href="#m0e4952816a" y="235.30653"/>
      </g>
     </g>
     <g id="text_6">
      <!-- $\mathdefault{5}$ -->
      <g transform="translate(403.253762 249.225028)scale(0.1 -0.1)">
       <defs>
        <path d="M 730 3750 
C 794 3724 1056 3641 1325 3641 
C 1920 3641 2246 3961 2432 4140 
C 2432 4191 2432 4224 2394 4224 
C 2387 4224 2374 4224 2323 4198 
C 2099 4102 1837 4032 1517 4032 
C 1325 4032 1037 4055 723 4191 
C 653 4224 640 4224 634 4224 
C 602 4224 595 4217 595 4090 
L 595 2231 
C 595 2113 595 2080 659 2080 
C 691 2080 704 2093 736 2139 
C 941 2435 1222 2560 1542 2560 
C 1766 2560 2246 2415 2246 1293 
C 2246 1087 2246 716 2054 422 
C 1894 159 1645 25 1370 25 
C 947 25 518 319 403 812 
C 429 806 480 793 506 793 
C 589 793 749 838 749 1036 
C 749 1209 627 1280 506 1280 
C 358 1280 262 1190 262 1011 
C 262 454 704 -128 1382 -128 
C 2042 -128 2669 441 2669 1267 
C 2669 2054 2170 2662 1549 2662 
C 1222 2662 947 2540 730 2304 
L 730 3750 
z
" id="CMR17-35" transform="scale(0.015625)"/>
       </defs>
       <use transform="scale(0.996264)" xlink:href="#CMR17-35"/>
      </g>
     </g>
    </g>
    <g id="text_7">
     <!-- $n=\frac{1}{\gamma-1}$ -->
     <g transform="translate(218.672824 263.579069)scale(0.1 -0.1)">
      <defs>
       <path d="M 1318 1870 
C 1331 1909 1491 2228 1728 2432 
C 1894 2585 2112 2687 2362 2687 
C 2618 2687 2707 2496 2707 2241 
C 2707 1877 2445 1149 2317 804 
C 2259 651 2227 568 2227 453 
C 2227 166 2426 -64 2733 -64 
C 3328 -64 3552 874 3552 913 
C 3552 945 3526 970 3488 970 
C 3430 970 3424 951 3392 842 
C 3245 319 3002 64 2752 64 
C 2688 64 2586 70 2586 274 
C 2586 434 2656 625 2694 715 
C 2822 1066 3091 1781 3091 2145 
C 3091 2528 2867 2816 2381 2816 
C 1811 2816 1510 2413 1395 2253 
C 1376 2617 1114 2816 832 2816 
C 627 2816 486 2694 378 2477 
C 262 2247 173 1864 173 1838 
C 173 1813 198 1781 243 1781 
C 294 1781 301 1787 339 1934 
C 442 2324 557 2687 813 2687 
C 960 2687 1011 2585 1011 2394 
C 1011 2253 947 2004 902 1807 
L 723 1117 
C 698 996 627 708 595 593 
C 550 427 480 127 480 95 
C 480 6 550 -64 646 -64 
C 723 -64 813 -26 864 70 
C 877 102 934 325 966 453 
L 1107 1028 
L 1318 1870 
z
" id="CMMI12-6e" transform="scale(0.015625)"/>
       <path d="M 4115 2048 
C 4211 2048 4307 2048 4307 2156 
C 4307 2272 4198 2272 4090 2272 
L 512 2272 
C 403 2272 294 2272 294 2156 
C 294 2048 390 2048 486 2048 
L 4115 2048 
z
M 4090 927 
C 4198 927 4307 927 4307 1043 
C 4307 1152 4211 1152 4115 1152 
L 486 1152 
C 390 1152 294 1152 294 1043 
C 294 927 403 927 512 927 
L 4090 927 
z
" id="CMR17-3d" transform="scale(0.015625)"/>
       <path d="M 2419 785 
C 2406 1097 2394 1586 2150 2158 
C 2022 2476 1805 2816 1338 2816 
C 550 2816 122 1815 122 1649 
C 122 1592 166 1592 186 1592 
C 243 1592 243 1605 275 1688 
C 410 2081 819 2393 1261 2393 
C 2150 2393 2278 1408 2278 779 
C 2278 378 2234 245 2195 118 
C 2074 -276 1862 -1064 1862 -1242 
C 1862 -1293 1882 -1351 1933 -1351 
C 2029 -1351 2086 -1140 2157 -886 
C 2310 -327 2349 -47 2381 207 
C 2400 360 2765 1409 3270 2407 
C 3315 2509 3405 2681 3405 2700 
C 3405 2707 3398 2752 3341 2752 
C 3328 2752 3296 2752 3283 2726 
C 3270 2713 3046 2280 2854 1848 
C 2758 1630 2630 1344 2419 785 
z
" id="CMMI12-d" transform="scale(0.015625)"/>
       <path d="M 4218 1472 
C 4326 1472 4442 1472 4442 1600 
C 4442 1728 4326 1728 4218 1728 
L 755 1728 
C 646 1728 531 1728 531 1600 
C 531 1472 646 1472 755 1472 
L 4218 1472 
z
" id="CMSY10-0" transform="scale(0.015625)"/>
      </defs>
      <use transform="scale(0.996264)" xlink:href="#CMMI12-6e"/>
      <use transform="translate(85.904056 0)scale(0.996264)" xlink:href="#CMR17-3d"/>
      <use transform="translate(233.215271 39.226102)scale(0.697382)" xlink:href="#CMR17-31"/>
      <use transform="translate(186.488367 -34.355253)scale(0.697382)" xlink:href="#CMMI12-d"/>
      <use transform="translate(225.701167 -34.355253)scale(0.697382)" xlink:href="#CMSY10-0"/>
      <use transform="translate(279.94216 -34.355253)scale(0.697382)" xlink:href="#CMR17-31"/>
      <path d="M 186.488367 22.914133 
L 311.925342 22.914133 
L 311.925342 26.899083 
L 186.488367 26.899083 
L 186.488367 22.914133 
z
"/>
     </g>
    </g>
   </g>
   <g id="matplotlib.axis_2">
    <g id="ytick_1">
     <g id="line2d_7">
      <defs>
       <path d="M 0 0 
L -3.5 0 
" id="m911214660b" style="stroke:#000000;stroke-width:0.8;"/>
      </defs>
      <g>
       <use style="stroke:#000000;stroke-width:0.8;" x="51.41617" xlink:href="#m911214660b" y="218.956219"/>
      </g>
     </g>
     <g id="text_8">
      <!-- $\mathdefault{10^{-1}}$ -->
      <g transform="translate(24.255597 222.415468)scale(0.1 -0.1)">
       <use transform="scale(0.996264)" xlink:href="#CMR17-31"/>
       <use transform="translate(45.690477 0)scale(0.996264)" xlink:href="#CMR17-30"/>
       <use transform="translate(91.380954 36.153639)scale(0.697382)" xlink:href="#CMSY10-0"/>
       <use transform="translate(145.621947 36.153639)scale(0.697382)" xlink:href="#CMR17-31"/>
      </g>
     </g>
    </g>
    <g id="ytick_2">
     <g id="line2d_8">
      <g>
       <use style="stroke:#000000;stroke-width:0.8;" x="51.41617" xlink:href="#m911214660b" y="179.282937"/>
      </g>
     </g>
     <g id="text_9">
      <!-- $\mathdefault{10^{0}}$ -->
      <g transform="translate(30.482262 182.742187)scale(0.1 -0.1)">
       <use transform="scale(0.996264)" xlink:href="#CMR17-31"/>
       <use transform="translate(45.690477 0)scale(0.996264)" xlink:href="#CMR17-30"/>
       <use transform="translate(91.380954 36.153639)scale(0.697382)" xlink:href="#CMR17-30"/>
      </g>
     </g>
    </g>
    <g id="ytick_3">
     <g id="line2d_9">
      <g>
       <use style="stroke:#000000;stroke-width:0.8;" x="51.41617" xlink:href="#m911214660b" y="139.609656"/>
      </g>
     </g>
     <g id="text_10">
      <!-- $\mathdefault{10^{1}}$ -->
      <g transform="translate(30.482262 143.068905)scale(0.1 -0.1)">
       <use transform="scale(0.996264)" xlink:href="#CMR17-31"/>
       <use transform="translate(45.690477 0)scale(0.996264)" xlink:href="#CMR17-30"/>
       <use transform="translate(91.380954 36.153639)scale(0.697382)" xlink:href="#CMR17-31"/>
      </g>
     </g>
    </g>
    <g id="ytick_4">
     <g id="line2d_10">
      <g>
       <use style="stroke:#000000;stroke-width:0.8;" x="51.41617" xlink:href="#m911214660b" y="99.936375"/>
      </g>
     </g>
     <g id="text_11">
      <!-- $\mathdefault{10^{2}}$ -->
      <g transform="translate(30.482262 103.395624)scale(0.1 -0.1)">
       <use transform="scale(0.996264)" xlink:href="#CMR17-31"/>
       <use transform="translate(45.690477 0)scale(0.996264)" xlink:href="#CMR17-30"/>
       <use transform="translate(91.380954 36.153639)scale(0.697382)" xlink:href="#CMR17-32"/>
      </g>
     </g>
    </g>
    <g id="ytick_5">
     <g id="line2d_11">
      <g>
       <use style="stroke:#000000;stroke-width:0.8;" x="51.41617" xlink:href="#m911214660b" y="60.263094"/>
      </g>
     </g>
     <g id="text_12">
      <!-- $\mathdefault{10^{3}}$ -->
      <g transform="translate(30.482262 63.722343)scale(0.1 -0.1)">
       <use transform="scale(0.996264)" xlink:href="#CMR17-31"/>
       <use transform="translate(45.690477 0)scale(0.996264)" xlink:href="#CMR17-30"/>
       <use transform="translate(91.380954 36.153639)scale(0.697382)" xlink:href="#CMR17-33"/>
      </g>
     </g>
    </g>
    <g id="ytick_6">
     <g id="line2d_12">
      <g>
       <use style="stroke:#000000;stroke-width:0.8;" x="51.41617" xlink:href="#m911214660b" y="20.589812"/>
      </g>
     </g>
     <g id="text_13">
      <!-- $\mathdefault{10^{4}}$ -->
      <g transform="translate(30.482262 24.049061)scale(0.1 -0.1)">
       <use transform="scale(0.996264)" xlink:href="#CMR17-31"/>
       <use transform="translate(45.690477 0)scale(0.996264)" xlink:href="#CMR17-30"/>
       <use transform="translate(91.380954 36.153639)scale(0.697382)" xlink:href="#CMR17-34"/>
      </g>
     </g>
    </g>
    <g id="ytick_7">
     <g id="line2d_13">
      <defs>
       <path d="M 0 0 
L -2 0 
" id="m4070755b26" style="stroke:#000000;stroke-width:0.6;"/>
      </defs>
      <g>
       <use style="stroke:#000000;stroke-width:0.6;" x="51.41617" xlink:href="#m4070755b26" y="234.743805"/>
      </g>
     </g>
    </g>
    <g id="ytick_8">
     <g id="line2d_14">
      <g>
       <use style="stroke:#000000;stroke-width:0.6;" x="51.41617" xlink:href="#m4070755b26" y="230.899066"/>
      </g>
     </g>
    </g>
    <g id="ytick_9">
     <g id="line2d_15">
      <g>
       <use style="stroke:#000000;stroke-width:0.6;" x="51.41617" xlink:href="#m4070755b26" y="227.757687"/>
      </g>
     </g>
    </g>
    <g id="ytick_10">
     <g id="line2d_16">
      <g>
       <use style="stroke:#000000;stroke-width:0.6;" x="51.41617" xlink:href="#m4070755b26" y="225.101688"/>
      </g>
     </g>
    </g>
    <g id="ytick_11">
     <g id="line2d_17">
      <g>
       <use style="stroke:#000000;stroke-width:0.6;" x="51.41617" xlink:href="#m4070755b26" y="222.800957"/>
      </g>
     </g>
    </g>
    <g id="ytick_12">
     <g id="line2d_18">
      <g>
       <use style="stroke:#000000;stroke-width:0.6;" x="51.41617" xlink:href="#m4070755b26" y="220.771568"/>
      </g>
     </g>
    </g>
    <g id="ytick_13">
     <g id="line2d_19">
      <g>
       <use style="stroke:#000000;stroke-width:0.6;" x="51.41617" xlink:href="#m4070755b26" y="207.013371"/>
      </g>
     </g>
    </g>
    <g id="ytick_14">
     <g id="line2d_20">
      <g>
       <use style="stroke:#000000;stroke-width:0.6;" x="51.41617" xlink:href="#m4070755b26" y="200.027253"/>
      </g>
     </g>
    </g>
    <g id="ytick_15">
     <g id="line2d_21">
      <g>
       <use style="stroke:#000000;stroke-width:0.6;" x="51.41617" xlink:href="#m4070755b26" y="195.070523"/>
      </g>
     </g>
    </g>
    <g id="ytick_16">
     <g id="line2d_22">
      <g>
       <use style="stroke:#000000;stroke-width:0.6;" x="51.41617" xlink:href="#m4070755b26" y="191.225785"/>
      </g>
     </g>
    </g>
    <g id="ytick_17">
     <g id="line2d_23">
      <g>
       <use style="stroke:#000000;stroke-width:0.6;" x="51.41617" xlink:href="#m4070755b26" y="188.084405"/>
      </g>
     </g>
    </g>
    <g id="ytick_18">
     <g id="line2d_24">
      <g>
       <use style="stroke:#000000;stroke-width:0.6;" x="51.41617" xlink:href="#m4070755b26" y="185.428406"/>
      </g>
     </g>
    </g>
    <g id="ytick_19">
     <g id="line2d_25">
      <g>
       <use style="stroke:#000000;stroke-width:0.6;" x="51.41617" xlink:href="#m4070755b26" y="183.127676"/>
      </g>
     </g>
    </g>
    <g id="ytick_20">
     <g id="line2d_26">
      <g>
       <use style="stroke:#000000;stroke-width:0.6;" x="51.41617" xlink:href="#m4070755b26" y="181.098287"/>
      </g>
     </g>
    </g>
    <g id="ytick_21">
     <g id="line2d_27">
      <g>
       <use style="stroke:#000000;stroke-width:0.6;" x="51.41617" xlink:href="#m4070755b26" y="167.34009"/>
      </g>
     </g>
    </g>
    <g id="ytick_22">
     <g id="line2d_28">
      <g>
       <use style="stroke:#000000;stroke-width:0.6;" x="51.41617" xlink:href="#m4070755b26" y="160.353972"/>
      </g>
     </g>
    </g>
    <g id="ytick_23">
     <g id="line2d_29">
      <g>
       <use style="stroke:#000000;stroke-width:0.6;" x="51.41617" xlink:href="#m4070755b26" y="155.397242"/>
      </g>
     </g>
    </g>
    <g id="ytick_24">
     <g id="line2d_30">
      <g>
       <use style="stroke:#000000;stroke-width:0.6;" x="51.41617" xlink:href="#m4070755b26" y="151.552504"/>
      </g>
     </g>
    </g>
    <g id="ytick_25">
     <g id="line2d_31">
      <g>
       <use style="stroke:#000000;stroke-width:0.6;" x="51.41617" xlink:href="#m4070755b26" y="148.411124"/>
      </g>
     </g>
    </g>
    <g id="ytick_26">
     <g id="line2d_32">
      <g>
       <use style="stroke:#000000;stroke-width:0.6;" x="51.41617" xlink:href="#m4070755b26" y="145.755125"/>
      </g>
     </g>
    </g>
    <g id="ytick_27">
     <g id="line2d_33">
      <g>
       <use style="stroke:#000000;stroke-width:0.6;" x="51.41617" xlink:href="#m4070755b26" y="143.454394"/>
      </g>
     </g>
    </g>
    <g id="ytick_28">
     <g id="line2d_34">
      <g>
       <use style="stroke:#000000;stroke-width:0.6;" x="51.41617" xlink:href="#m4070755b26" y="141.425006"/>
      </g>
     </g>
    </g>
    <g id="ytick_29">
     <g id="line2d_35">
      <g>
       <use style="stroke:#000000;stroke-width:0.6;" x="51.41617" xlink:href="#m4070755b26" y="127.666808"/>
      </g>
     </g>
    </g>
    <g id="ytick_30">
     <g id="line2d_36">
      <g>
       <use style="stroke:#000000;stroke-width:0.6;" x="51.41617" xlink:href="#m4070755b26" y="120.68069"/>
      </g>
     </g>
    </g>
    <g id="ytick_31">
     <g id="line2d_37">
      <g>
       <use style="stroke:#000000;stroke-width:0.6;" x="51.41617" xlink:href="#m4070755b26" y="115.723961"/>
      </g>
     </g>
    </g>
    <g id="ytick_32">
     <g id="line2d_38">
      <g>
       <use style="stroke:#000000;stroke-width:0.6;" x="51.41617" xlink:href="#m4070755b26" y="111.879223"/>
      </g>
     </g>
    </g>
    <g id="ytick_33">
     <g id="line2d_39">
      <g>
       <use style="stroke:#000000;stroke-width:0.6;" x="51.41617" xlink:href="#m4070755b26" y="108.737843"/>
      </g>
     </g>
    </g>
    <g id="ytick_34">
     <g id="line2d_40">
      <g>
       <use style="stroke:#000000;stroke-width:0.6;" x="51.41617" xlink:href="#m4070755b26" y="106.081844"/>
      </g>
     </g>
    </g>
    <g id="ytick_35">
     <g id="line2d_41">
      <g>
       <use style="stroke:#000000;stroke-width:0.6;" x="51.41617" xlink:href="#m4070755b26" y="103.781113"/>
      </g>
     </g>
    </g>
    <g id="ytick_36">
     <g id="line2d_42">
      <g>
       <use style="stroke:#000000;stroke-width:0.6;" x="51.41617" xlink:href="#m4070755b26" y="101.751725"/>
      </g>
     </g>
    </g>
    <g id="ytick_37">
     <g id="line2d_43">
      <g>
       <use style="stroke:#000000;stroke-width:0.6;" x="51.41617" xlink:href="#m4070755b26" y="87.993527"/>
      </g>
     </g>
    </g>
    <g id="ytick_38">
     <g id="line2d_44">
      <g>
       <use style="stroke:#000000;stroke-width:0.6;" x="51.41617" xlink:href="#m4070755b26" y="81.007409"/>
      </g>
     </g>
    </g>
    <g id="ytick_39">
     <g id="line2d_45">
      <g>
       <use style="stroke:#000000;stroke-width:0.6;" x="51.41617" xlink:href="#m4070755b26" y="76.050679"/>
      </g>
     </g>
    </g>
    <g id="ytick_40">
     <g id="line2d_46">
      <g>
       <use style="stroke:#000000;stroke-width:0.6;" x="51.41617" xlink:href="#m4070755b26" y="72.205941"/>
      </g>
     </g>
    </g>
    <g id="ytick_41">
     <g id="line2d_47">
      <g>
       <use style="stroke:#000000;stroke-width:0.6;" x="51.41617" xlink:href="#m4070755b26" y="69.064561"/>
      </g>
     </g>
    </g>
    <g id="ytick_42">
     <g id="line2d_48">
      <g>
       <use style="stroke:#000000;stroke-width:0.6;" x="51.41617" xlink:href="#m4070755b26" y="66.408563"/>
      </g>
     </g>
    </g>
    <g id="ytick_43">
     <g id="line2d_49">
      <g>
       <use style="stroke:#000000;stroke-width:0.6;" x="51.41617" xlink:href="#m4070755b26" y="64.107832"/>
      </g>
     </g>
    </g>
    <g id="ytick_44">
     <g id="line2d_50">
      <g>
       <use style="stroke:#000000;stroke-width:0.6;" x="51.41617" xlink:href="#m4070755b26" y="62.078443"/>
      </g>
     </g>
    </g>
    <g id="ytick_45">
     <g id="line2d_51">
      <g>
       <use style="stroke:#000000;stroke-width:0.6;" x="51.41617" xlink:href="#m4070755b26" y="48.320246"/>
      </g>
     </g>
    </g>
    <g id="ytick_46">
     <g id="line2d_52">
      <g>
       <use style="stroke:#000000;stroke-width:0.6;" x="51.41617" xlink:href="#m4070755b26" y="41.334128"/>
      </g>
     </g>
    </g>
    <g id="ytick_47">
     <g id="line2d_53">
      <g>
       <use style="stroke:#000000;stroke-width:0.6;" x="51.41617" xlink:href="#m4070755b26" y="36.377398"/>
      </g>
     </g>
    </g>
    <g id="ytick_48">
     <g id="line2d_54">
      <g>
       <use style="stroke:#000000;stroke-width:0.6;" x="51.41617" xlink:href="#m4070755b26" y="32.53266"/>
      </g>
     </g>
    </g>
    <g id="ytick_49">
     <g id="line2d_55">
      <g>
       <use style="stroke:#000000;stroke-width:0.6;" x="51.41617" xlink:href="#m4070755b26" y="29.39128"/>
      </g>
     </g>
    </g>
    <g id="ytick_50">
     <g id="line2d_56">
      <g>
       <use style="stroke:#000000;stroke-width:0.6;" x="51.41617" xlink:href="#m4070755b26" y="26.735281"/>
      </g>
     </g>
    </g>
    <g id="ytick_51">
     <g id="line2d_57">
      <g>
       <use style="stroke:#000000;stroke-width:0.6;" x="51.41617" xlink:href="#m4070755b26" y="24.43455"/>
      </g>
     </g>
    </g>
    <g id="ytick_52">
     <g id="line2d_58">
      <g>
       <use style="stroke:#000000;stroke-width:0.6;" x="51.41617" xlink:href="#m4070755b26" y="22.405162"/>
      </g>
     </g>
    </g>
    <g id="text_14">
     <!-- $r_ 0$ -->
     <g transform="translate(18.318418 127.286247)rotate(-90)scale(0.1 -0.1)">
      <defs>
       <path d="M 2490 2633 
C 2291 2598 2189 2457 2189 2316 
C 2189 2163 2310 2111 2400 2111 
C 2579 2111 2726 2265 2726 2457 
C 2726 2651 2528 2816 2208 2816 
C 1952 2816 1658 2700 1389 2335 
C 1344 2660 1088 2816 832 2816 
C 582 2816 454 2642 378 2508 
C 269 2278 173 1892 173 1860 
C 173 1834 198 1801 243 1801 
C 294 1801 301 1808 339 1957 
C 435 2342 557 2687 813 2687 
C 966 2687 1011 2604 1011 2419 
C 1011 2278 947 2028 902 1827 
L 723 1130 
C 698 1007 627 716 595 600 
C 550 432 480 128 480 96 
C 480 6 550 -64 646 -64 
C 717 -64 838 -20 877 109 
C 896 160 1133 1136 1171 1285 
C 1203 1427 1242 1562 1274 1705 
C 1299 1795 1325 1898 1344 1982 
C 1363 2040 1536 2355 1696 2495 
C 1773 2566 1939 2687 2202 2687 
C 2304 2687 2406 2674 2490 2633 
z
" id="CMMI12-72" transform="scale(0.015625)"/>
      </defs>
      <use transform="scale(0.996264)" xlink:href="#CMMI12-72"/>
      <use transform="translate(43.960894 -14.943915)scale(0.697382)" xlink:href="#CMR17-30"/>
     </g>
    </g>
   </g>
   <g id="line2d_59">
    <path clip-path="url(#pffd5038ae8)" d="M 68.224526 145.860054 
L 80.399593 143.74763 
L 91.898267 141.910387 
L 104.073333 140.076832 
L 134.511 135.813229 
L 195.386333 127.636682 
L 231.235141 122.527977 
L 253.556096 119.054177 
L 269.789518 116.319967 
L 286.699333 113.211319 
L 298.8744 110.761848 
L 309.696681 108.393831 
L 319.84257 105.968989 
L 329.312066 103.480081 
L 337.428777 101.129422 
L 344.869096 98.754529 
L 350.280237 96.866936 
L 355.691377 94.803938 
L 362.455303 91.913811 
L 367.190052 89.646914 
L 371.9248 87.102084 
L 375.306763 85.083424 
L 378.688726 82.836804 
L 381.394296 80.847343 
L 384.099866 78.639326 
L 386.805437 76.15437 
L 389.511007 73.308746 
L 391.540185 70.857591 
L 393.569363 68.049762 
L 395.59854 64.750723 
L 396.951326 62.178283 
L 397.627718 60.743552 
L 397.627718 60.743552 
" style="fill:none;stroke:#000000;stroke-dasharray:1.5,3;stroke-dashoffset:0;stroke-width:1.5;"/>
   </g>
   <g id="line2d_60">
    <path clip-path="url(#pffd5038ae8)" d="M 68.224526 178.731873 
L 70.930096 177.837669 
L 74.988452 176.541004 
L 77.694022 175.618328 
L 84.457948 173.362926 
L 104.073333 166.214643 
L 110.160867 163.755758 
L 116.2484 161.147304 
L 123.012326 158.058626 
L 129.776252 154.721474 
L 136.540178 151.13546 
L 143.304104 147.265513 
L 148.715244 143.962558 
L 155.47917 139.566635 
L 162.243096 134.865296 
L 169.683415 129.36292 
L 177.800126 122.99127 
L 185.240444 116.858941 
L 193.357155 109.891236 
L 202.150259 102.050073 
L 211.619755 93.280775 
L 220.412859 84.809842 
L 228.52957 76.668996 
L 235.969889 68.878908 
L 242.733815 61.485711 
L 249.497741 53.747398 
L 255.585274 46.443152 
L 260.996415 39.63877 
L 266.407555 32.493764 
L 271.818696 24.950258 
L 274.524266 21.004842 
L 274.524266 21.004842 
" style="fill:none;stroke:#000000;stroke-dasharray:10.5,1.5,6,1.5;stroke-dashoffset:0;stroke-width:1.5;"/>
   </g>
   <g id="line2d_61">
    <path clip-path="url(#pffd5038ae8)" d="M 68.224526 185.551919 
L 71.606489 184.921502 
L 74.988452 184.354918 
L 78.370415 183.756041 
L 80.399593 183.453803 
L 82.42877 183.084655 
L 83.781556 182.863721 
L 98.662193 180.550932 
L 100.69137 180.257638 
L 106.778904 179.355455 
L 110.160867 178.899562 
L 112.866437 178.483361 
L 129.776252 176.12864 
L 132.481822 175.78629 
L 137.892963 175.026874 
L 141.274926 174.59755 
L 144.656889 174.117275 
L 148.038852 173.671161 
L 158.184741 172.310609 
L 161.566704 171.871368 
L 169.007022 170.868459 
L 179.152911 169.518187 
L 187.946015 168.322997 
L 192.680763 167.68818 
L 200.121081 166.65604 
L 203.503044 166.194479 
L 216.354504 164.373326 
L 221.765644 163.592803 
L 241.381029 160.658164 
L 254.908881 158.517098 
L 282.640978 153.667176 
L 306.991111 148.67882 
L 318.489785 145.978089 
L 327.959281 143.524533 
L 335.3996 141.415436 
L 344.192703 138.654522 
L 350.956629 136.296833 
L 359.749733 132.785106 
L 363.808089 130.96309 
L 367.866444 128.972863 
L 371.9248 126.777001 
L 375.983155 124.323803 
L 379.365118 122.036381 
L 382.747081 119.446639 
L 385.452652 117.108024 
L 388.158222 114.454859 
L 390.1874 112.199205 
L 392.216577 109.639767 
L 394.245755 106.688046 
L 396.274933 103.182139 
L 397.627718 100.416834 
L 398.304111 98.404186 
L 398.980503 97.162876 
L 401.686074 87.259871 
L 402.362466 83.875293 
L 403.038859 79.69734 
L 403.715251 74.213806 
L 404.391644 66.19574 
L 404.391644 66.19574 
" style="fill:none;stroke:#000000;stroke-dasharray:1.5,6;stroke-dashoffset:0;stroke-width:1.5;"/>
   </g>
   <g id="line2d_62">
    <path clip-path="url(#pffd5038ae8)" d="M 68.224526 200.027253 
L 69.577311 199.742455 
L 70.253704 199.585001 
L 70.930096 199.601802 
L 71.606489 199.345963 
L 72.282881 199.323895 
L 72.959274 199.104752 
L 73.635667 199.050399 
L 74.988452 198.781176 
L 77.01763 198.395515 
L 77.694022 198.385069 
L 78.370415 198.159432 
L 79.046807 198.125968 
L 79.7232 197.92654 
L 80.399593 197.870706 
L 81.752378 197.61917 
L 83.781556 197.231522 
L 91.221874 196.06803 
L 91.898267 195.854837 
L 92.574659 195.841318 
L 93.251052 195.626445 
L 93.927444 195.61755 
L 95.28023 195.287254 
L 101.367763 194.248345 
L 102.044156 194.229874 
L 102.720548 194.015836 
L 106.102511 193.526516 
L 106.778904 193.317097 
L 108.808081 193.041135 
L 110.160867 192.756337 
L 112.866437 192.291891 
L 114.895615 191.893285 
L 115.572007 191.839637 
L 116.924793 191.573875 
L 118.95397 191.162152 
L 123.688718 190.303284 
L 127.070681 189.649514 
L 127.747074 189.583601 
L 129.099859 189.273145 
L 131.80543 188.742952 
L 133.158215 188.520628 
L 135.187393 188.052846 
L 137.892963 187.501386 
L 141.274926 186.838328 
L 143.304104 186.353689 
L 145.333281 185.927858 
L 150.06803 184.835674 
L 152.097207 184.412833 
L 153.449992 184.068224 
L 165.625059 180.9079 
L 171.712592 179.122586 
L 174.418163 178.288726 
L 180.505696 176.285742 
L 187.269622 173.827371 
L 194.709941 170.757276 
L 198.091904 169.227381 
L 204.179437 166.176754 
L 208.914185 163.529846 
L 213.648933 160.583794 
L 217.707289 157.788544 
L 221.765644 154.703259 
L 225.147607 151.883022 
L 228.52957 148.807778 
L 231.911533 145.462259 
L 235.969889 141.060364 
L 240.028244 136.240063 
L 244.762992 130.140705 
L 251.526918 120.996578 
L 256.261666 114.772903 
L 259.643629 110.624333 
L 263.025592 106.790331 
L 266.407555 103.254054 
L 271.142303 98.594399 
L 271.818696 98.072419 
L 272.495089 97.349434 
L 273.171481 96.837044 
L 273.847874 96.133038 
L 274.524266 95.614825 
L 275.200659 94.906573 
L 275.877052 94.400652 
L 276.553444 93.701543 
L 277.229837 93.189976 
L 277.906229 92.496813 
L 278.582622 91.977473 
L 279.259015 91.276775 
L 279.935407 90.758526 
L 280.6118 90.059568 
L 281.288192 89.528552 
L 283.31737 87.576483 
L 283.993763 87.017012 
L 286.022941 85.003572 
L 287.375726 83.672983 
L 288.728511 82.30727 
L 290.757689 80.218527 
L 296.168829 73.888084 
L 299.550792 69.307484 
L 302.256363 65.162486 
L 304.961933 60.42756 
L 306.991111 56.353692 
L 309.020289 51.671379 
L 310.373074 48.096 
L 311.725859 44.031912 
L 313.078644 39.302187 
L 314.431429 33.605733 
L 315.784215 26.359852 
L 316.460607 21.785814 
L 316.460607 21.785814 
" style="fill:none;stroke:#000000;stroke-dasharray:7.5,3,1.5,3;stroke-dashoffset:0;stroke-width:1.5;"/>
   </g>
   <g id="line2d_63">
    <path clip-path="url(#pffd5038ae8)" d="M 68.224526 221.756402 
L 68.900919 221.237269 
L 69.577311 221.25695 
L 70.253704 220.993147 
L 70.930096 221.25695 
L 71.606489 220.752435 
L 72.282881 220.771568 
L 72.959274 220.515039 
L 73.635667 220.771568 
L 74.312059 220.28087 
L 74.988452 220.299487 
L 75.664844 220.049841 
L 76.341237 220.299487 
L 77.01763 219.812813 
L 77.694022 219.839996 
L 78.370415 219.587935 
L 79.046807 219.839996 
L 79.7232 219.365955 
L 80.399593 219.392442 
L 81.075985 219.138089 
L 81.752378 219.392442 
L 82.42877 218.913198 
L 83.105163 218.956219 
L 83.781556 218.69969 
L 84.457948 218.956219 
L 85.134341 218.480412 
L 85.810733 218.530768 
L 86.487126 218.263891 
L 87.163518 218.530768 
L 87.839911 218.050057 
L 89.192696 218.11557 
L 89.869089 218.11557 
L 90.545481 217.622214 
L 91.221874 217.710142 
L 91.898267 217.41615 
L 93.251052 217.204738 
L 93.927444 217.314035 
L 94.603837 216.995888 
L 95.956622 216.78954 
L 96.633015 216.92683 
L 97.309407 216.585633 
L 97.9858 216.548136 
L 98.662193 216.384112 
L 99.338585 216.548136 
L 100.014978 216.177587 
L 100.69137 216.177587 
L 101.367763 215.980755 
L 102.044156 216.177587 
L 102.720548 215.778981 
L 103.396941 215.814839 
L 104.073333 215.579542 
L 104.749726 215.814839 
L 105.426118 215.382385 
L 106.102511 215.459571 
L 106.778904 215.187459 
L 108.131689 214.98787 
L 108.808081 215.11148 
L 109.484474 214.797332 
L 111.513652 214.770283 
L 112.190044 214.409225 
L 112.866437 214.435712 
L 113.54283 214.218401 
L 114.219222 214.435712 
L 114.895615 214.023196 
L 115.572007 214.107514 
L 116.2484 213.836578 
L 118.277578 213.78545 
L 118.95397 213.456771 
L 119.630363 213.469297 
L 120.306755 213.263769 
L 120.983148 213.469297 
L 121.659541 213.079029 
L 122.335933 213.15884 
L 123.012326 212.89019 
L 123.688718 212.853878 
L 124.365111 212.703398 
L 125.041504 212.853878 
L 125.717896 212.518609 
L 126.394289 212.554221 
L 127.070681 212.329916 
L 128.423467 212.143267 
L 129.099859 212.259685 
L 129.776252 211.958618 
L 130.452644 211.970101 
L 131.80543 211.685303 
L 133.158215 211.685303 
L 133.834607 211.405136 
L 134.511 211.405136 
L 135.187393 211.22269 
L 135.863785 211.405136 
L 136.540178 211.042156 
L 137.21657 211.129452 
L 137.892963 210.858109 
L 138.569355 210.858109 
L 139.922141 210.590974 
L 140.598533 210.49581 
L 141.274926 210.590974 
L 141.951318 210.312261 
L 142.627711 210.327917 
L 143.304104 210.130646 
L 144.656889 209.945818 
L 145.333281 210.068816 
L 146.009674 209.768006 
L 146.686067 209.813554 
L 147.362459 209.587007 
L 148.038852 209.562018 
L 149.391637 209.314102 
L 150.06803 209.225718 
L 150.744422 209.314102 
L 151.420815 209.045452 
L 152.097207 209.069702 
L 152.7736 208.862256 
L 154.126385 208.828721 
L 154.802778 208.591063 
L 155.47917 208.501606 
L 156.155563 208.591063 
L 156.831955 208.319426 
L 157.508348 208.35664 
L 158.184741 208.139152 
L 158.861133 208.125362 
L 160.213918 207.897149 
L 160.890311 207.779661 
L 161.566704 207.897149 
L 162.243096 207.600462 
L 162.919489 207.671918 
L 163.595881 207.418696 
L 164.272274 207.449594 
L 164.948667 207.238828 
L 165.625059 207.230102 
L 166.301452 207.060818 
L 167.654237 206.880354 
L 169.007022 206.697531 
L 169.683415 206.799332 
L 170.359807 206.516627 
L 171.0362 206.58792 
L 171.712592 206.337603 
L 172.388985 206.37907 
L 173.065378 206.15632 
L 173.74177 206.172722 
L 174.418163 205.976926 
L 175.770948 205.968816 
L 177.123733 205.611728 
L 179.152911 205.371187 
L 181.858481 204.983983 
L 183.887659 204.702951 
L 184.564052 204.793595 
L 185.240444 204.519354 
L 185.916837 204.605289 
L 186.593229 204.337692 
L 187.269622 204.419018 
L 187.946015 204.154277 
L 188.622407 204.234739 
L 189.2988 203.969183 
L 189.975192 204.05241 
L 190.651585 203.786056 
L 196.739118 202.99719 
L 197.415511 202.99719 
L 198.768296 202.672726 
L 199.444689 202.659338 
L 200.121081 202.486239 
L 200.797474 202.492864 
L 201.473867 202.298472 
L 202.150259 202.327984 
L 202.826652 202.109489 
L 203.503044 202.164666 
L 204.179437 201.922556 
L 208.914185 201.370522 
L 209.590578 201.163767 
L 210.26697 201.215992 
L 210.943363 200.974626 
L 212.972541 200.76055 
L 213.648933 200.590591 
L 214.325326 200.611373 
L 215.001718 200.395867 
L 219.736466 199.742455 
L 223.118429 199.224935 
L 223.794822 199.186604 
L 224.471215 199.028705 
L 225.147607 199.050399 
L 225.824 198.829327 
L 227.853178 198.648126 
L 228.52957 198.429507 
L 229.205963 198.385069 
L 229.882355 198.229142 
L 230.558748 198.255032 
L 231.235141 198.028523 
L 231.911533 197.997865 
L 233.264318 197.744479 
L 233.940711 197.621668 
L 234.617104 197.61917 
L 237.999066 197.005942 
L 238.675459 197.005942 
L 244.0866 196.06803 
L 244.762992 196.06803 
L 278.582622 190.303284 
L 281.288192 189.740953 
L 283.31737 189.427674 
L 287.375726 188.594418 
L 288.728511 188.37399 
L 298.198007 186.442222 
L 303.609148 185.305773 
L 305.638326 184.823787 
L 306.991111 184.529252 
L 309.696681 183.89847 
L 311.725859 183.453803 
L 325.930103 179.941485 
L 327.959281 179.369303 
L 332.017637 178.238382 
L 344.192703 174.499374 
L 350.956629 172.125376 
L 357.720555 169.493765 
L 364.484481 166.478941 
L 369.219229 164.109204 
L 373.953977 161.420078 
L 377.33594 159.268923 
L 380.041511 157.368846 
L 382.747081 155.279192 
L 385.452652 152.942403 
L 388.158222 150.282402 
L 390.1874 148.027748 
L 392.216577 145.46831 
L 394.245755 142.516589 
L 396.274933 139.008602 
L 396.951326 137.473392 
L 397.627718 136.243605 
L 398.304111 134.451655 
L 398.980503 132.989219 
L 401.009681 126.277082 
L 401.686074 123.494392 
L 402.362466 120.199298 
L 403.038859 116.146935 
L 403.715251 110.888264 
L 404.391644 103.35146 
L 404.391644 103.35146 
" style="fill:none;stroke:#000000;stroke-dasharray:1.5,9;stroke-dashoffset:0;stroke-width:1.5;"/>
   </g>
   <g id="line2d_64">
    <path clip-path="url(#pffd5038ae8)" d="M 68.224526 225.101688 
L 68.900919 224.820925 
L 69.577311 225.101688 
L 70.253704 224.580448 
L 71.606489 224.355063 
L 72.282881 224.497068 
L 72.959274 224.132588 
L 73.635667 224.497068 
L 74.312059 223.901466 
L 74.988452 223.912948 
L 75.664844 223.684735 
L 76.341237 223.912948 
L 77.01763 223.470696 
L 77.694022 223.912948 
L 78.370415 223.248228 
L 79.046807 223.347983 
L 79.7232 223.028596 
L 80.399593 223.347983 
L 81.075985 222.822508 
L 81.752378 222.800957 
L 82.42877 222.608203 
L 83.105163 222.800957 
L 83.781556 222.396531 
L 84.457948 222.800957 
L 85.134341 222.187428 
L 85.810733 222.270765 
L 86.487126 221.980832 
L 87.163518 222.270765 
L 87.839911 221.776684 
L 89.869089 221.756402 
L 90.545481 221.375504 
L 91.221874 221.756402 
L 91.898267 221.168566 
L 92.574659 221.25695 
L 93.251052 220.973766 
L 93.927444 221.25695 
L 94.603837 220.771568 
L 95.28023 220.771568 
L 95.956622 220.571717 
L 96.633015 220.771568 
L 97.309407 220.383513 
L 98.662193 220.188087 
L 99.338585 220.299487 
L 100.014978 219.985705 
L 100.69137 220.299487 
L 101.367763 219.794714 
L 102.044156 219.839996 
L 102.720548 219.605818 
L 103.396941 219.839996 
L 104.073333 219.410122 
L 104.749726 219.392442 
L 105.426118 219.216625 
L 106.102511 219.392442 
L 106.778904 219.033928 
L 108.131689 218.83603 
L 108.808081 218.956219 
L 109.484474 218.648839 
L 110.160867 218.956219 
L 110.837259 218.530768 
L 111.513652 218.530768 
L 112.190044 218.272169 
L 112.866437 218.530768 
L 113.54283 218.090973 
L 114.219222 218.11557 
L 114.895615 217.903557 
L 115.572007 218.11557 
L 116.2484 217.710142 
L 116.924793 217.710142 
L 117.601185 217.526801 
L 118.277578 217.710142 
L 118.95397 217.345391 
L 119.630363 217.314035 
L 120.306755 217.158107 
L 120.983148 217.314035 
L 121.659541 216.972838 
L 123.688718 216.92683 
L 124.365111 216.600655 
L 126.394289 216.548136 
L 127.070681 216.236342 
L 128.423467 216.053394 
L 129.099859 216.177587 
L 129.776252 215.865166 
L 131.80543 215.814839 
L 132.481822 215.814839 
L 133.158215 215.459571 
L 133.834607 215.312515 
L 134.511 215.459571 
L 135.187393 215.12527 
L 135.863785 215.11148 
L 136.540178 214.946862 
L 137.21657 215.11148 
L 137.892963 214.763528 
L 138.569355 214.770283 
L 139.245748 214.582124 
L 139.922141 214.770283 
L 140.598533 214.395997 
L 141.274926 214.435712 
L 141.951318 214.211859 
L 142.627711 214.435712 
L 143.304104 214.029668 
L 143.980496 214.107514 
L 144.656889 213.842979 
L 146.009674 213.658292 
L 146.686067 213.78545 
L 147.362459 213.475563 
L 148.038852 213.469297 
L 148.715244 213.288551 
L 149.391637 213.469297 
L 150.06803 213.103547 
L 150.744422 213.15884 
L 151.420815 212.920508 
L 152.7736 212.733389 
L 153.449992 212.853878 
L 154.126385 212.554221 
L 154.802778 212.554221 
L 155.47917 212.359263 
L 156.155563 212.554221 
L 156.831955 212.172298 
L 157.508348 212.259685 
L 158.184741 211.987339 
L 158.861133 211.970101 
L 159.537526 211.798658 
L 160.213918 211.970101 
L 160.890311 211.61202 
L 161.566704 211.685303 
L 162.243096 211.421818 
L 162.919489 211.405136 
L 163.595881 211.233693 
L 164.272274 211.405136 
L 164.948667 211.042156 
L 165.625059 211.129452 
L 166.301452 210.852726 
L 166.977844 210.858109 
L 167.654237 210.660032 
L 169.007022 210.469469 
L 169.683415 210.590974 
L 170.359807 210.275784 
L 171.0362 210.327917 
L 171.712592 210.084253 
L 172.388985 210.068816 
L 173.74177 209.813554 
L 174.418163 209.692358 
L 175.094555 209.813554 
L 175.770948 209.562018 
L 176.447341 209.562018 
L 177.123733 209.304259 
L 177.800126 209.314102 
L 178.476518 209.10371 
L 179.152911 209.069702 
L 180.505696 208.828721 
L 181.182089 208.709482 
L 181.858481 208.828721 
L 182.534874 208.506303 
L 183.211267 208.591063 
L 183.887659 208.305492 
L 184.564052 208.35664 
L 185.240444 208.106994 
L 185.916837 208.125362 
L 186.593229 207.901683 
L 187.269622 207.897149 
L 187.946015 207.698791 
L 188.622407 207.671918 
L 189.2988 207.49383 
L 189.975192 207.449594 
L 191.327978 207.230102 
L 193.357155 206.871808 
L 195.386333 206.58792 
L 196.739118 206.37907 
L 197.415511 206.37907 
L 198.768296 206.025667 
L 200.797474 205.767294 
L 201.473867 205.595851 
L 202.150259 205.568103 
L 202.826652 205.375104 
L 203.503044 205.371187 
L 204.179437 205.161017 
L 204.855829 205.176497 
L 205.532222 204.938097 
L 206.208615 204.983983 
L 206.885007 204.718025 
L 210.943363 204.041532 
L 211.619755 204.05241 
L 212.296148 203.814654 
L 212.972541 203.871991 
L 213.648933 203.583663 
L 215.678111 203.341799 
L 217.030896 202.99719 
L 219.060074 202.659338 
L 219.736466 202.659338 
L 220.412859 202.403633 
L 222.442037 202.164666 
L 223.118429 201.919351 
L 225.147607 201.683801 
L 225.824 201.423379 
L 226.500392 201.370522 
L 227.853178 201.062837 
L 228.52957 200.920101 
L 229.205963 200.911031 
L 229.882355 200.664928 
L 230.558748 200.611373 
L 231.911533 200.316838 
L 233.940711 199.884266 
L 234.617104 199.884266 
L 248.821348 196.885873 
L 249.497741 196.648216 
L 253.556096 195.841318 
L 254.908881 195.506746 
L 256.938059 194.963172 
L 258.967237 194.540331 
L 261.672807 193.824446 
L 264.378378 193.137123 
L 267.760341 192.291891 
L 272.495089 190.969256 
L 273.847874 190.550017 
L 275.877052 189.979708 
L 278.582622 189.119989 
L 279.935407 188.742952 
L 290.081296 185.305773 
L 293.463259 184.011453 
L 303.609148 179.675038 
L 311.725859 175.403774 
L 316.460607 172.441003 
L 319.84257 170.039217 
L 323.224533 167.34009 
L 325.930103 164.857257 
L 327.959281 162.803024 
L 330.664852 159.664403 
L 332.694029 156.951348 
L 334.723207 153.804077 
L 336.075992 151.389593 
L 337.428777 148.627855 
L 338.781563 145.407896 
L 340.134348 141.540256 
L 341.487133 136.816367 
L 342.839918 130.305586 
L 343.516311 125.671914 
L 344.192703 120.16582 
L 345.139653 106.698247 
L 345.545489 94.900141 
L 345.816046 77.028571 
L 345.883685 66.688471 
L 345.951324 37.254376 
L 345.951324 37.254376 
" style="fill:none;stroke:#000000;stroke-dasharray:4.5,3,1.5,3,1.5,3;stroke-dashoffset:0;stroke-width:1.5;"/>
   </g>
   <g id="patch_3">
    <path d="M 51.41617 235.30653 
L 51.41617 10.8 
" style="fill:none;stroke:#000000;stroke-linecap:square;stroke-linejoin:miter;stroke-width:0.8;"/>
   </g>
   <g id="patch_4">
    <path d="M 421.2 235.30653 
L 421.2 10.8 
" style="fill:none;stroke:#000000;stroke-linecap:square;stroke-linejoin:miter;stroke-width:0.8;"/>
   </g>
   <g id="patch_5">
    <path d="M 51.41617 235.30653 
L 421.2 235.30653 
" style="fill:none;stroke:#000000;stroke-linecap:square;stroke-linejoin:miter;stroke-width:0.8;"/>
   </g>
   <g id="patch_6">
    <path d="M 51.41617 10.8 
L 421.2 10.8 
" style="fill:none;stroke:#000000;stroke-linecap:square;stroke-linejoin:miter;stroke-width:0.8;"/>
   </g>
   <g id="text_15">
    <!-- $r_0$ for fixed $p_0$$=1$ -->
    <g transform="translate(191.82352 4.8)scale(0.12 -0.12)">
     <defs>
      <path d="M 979 2585 
L 1709 2585 
L 1709 2752 
L 966 2752 
L 966 3539 
C 966 4076 1235 4377 1510 4377 
C 1594 4377 1690 4363 1754 4339 
C 1702 4326 1568 4281 1568 4121 
C 1568 3955 1696 3904 1786 3904 
C 1875 3904 2003 3955 2003 4121 
C 2003 4353 1773 4480 1517 4480 
C 1152 4480 653 4211 653 3526 
L 653 2752 
L 141 2752 
L 141 2585 
L 653 2585 
L 653 441 
C 653 198 627 166 218 166 
L 218 0 
C 371 12 666 12 832 12 
C 1018 12 1344 12 1517 0 
L 1517 166 
C 1056 166 979 166 979 454 
L 979 2585 
z
" id="CMR17-66" transform="scale(0.015625)"/>
      <path d="M 2758 1356 
C 2758 2176 2163 2816 1466 2816 
C 768 2816 173 2176 173 1356 
C 173 550 768 -64 1466 -64 
C 2163 -64 2758 550 2758 1356 
z
M 1466 51 
C 1165 51 909 230 762 480 
C 602 768 582 1126 582 1408 
C 582 1676 595 2009 762 2297 
C 890 2508 1139 2713 1466 2713 
C 1754 2713 1997 2553 2150 2329 
C 2349 2028 2349 1606 2349 1408 
C 2349 1158 2336 774 2163 467 
C 1984 172 1709 51 1466 51 
z
" id="CMR17-6f" transform="scale(0.015625)"/>
      <path d="M 960 1517 
C 960 2134 1222 2713 1702 2713 
C 1747 2713 1792 2707 1837 2687 
C 1837 2687 1696 2642 1696 2475 
C 1696 2321 1818 2257 1914 2257 
C 1990 2257 2131 2302 2131 2482 
C 2131 2687 1926 2816 1709 2816 
C 1222 2816 1011 2340 947 2115 
L 941 2115 
L 941 2816 
L 198 2745 
L 198 2578 
C 576 2578 634 2540 634 2231 
L 634 443 
C 634 198 608 166 198 166 
L 198 0 
C 352 12 646 12 813 12 
C 998 12 1325 12 1498 0 
L 1498 166 
C 1037 166 960 166 960 455 
L 960 1517 
z
" id="CMR17-72" transform="scale(0.015625)"/>
      <path d="M 2554 2816 
C 2400 2809 1926 2777 1805 2764 
C 1766 2758 1754 2758 1677 2758 
L 947 2758 
L 947 3517 
C 947 4127 1434 4416 1818 4416 
C 1939 4416 2214 4383 2355 4160 
C 2291 4160 2086 4160 2086 3935 
C 2086 3782 2189 3705 2317 3705 
C 2432 3705 2547 3769 2547 3942 
C 2547 4265 2240 4518 1843 4518 
C 1338 4518 634 4225 634 3517 
L 634 2758 
L 122 2758 
L 122 2591 
L 634 2591 
L 634 442 
C 634 198 608 166 198 166 
L 198 0 
C 352 12 634 12 794 12 
C 960 12 1242 12 1395 0 
L 1395 166 
C 986 166 960 192 960 442 
L 960 2591 
L 1901 2591 
C 2176 2591 2227 2534 2227 2251 
L 2227 442 
C 2227 198 2202 166 1792 166 
L 1792 0 
C 1946 12 2227 12 2387 12 
C 2554 12 2835 12 2989 0 
L 2989 166 
C 2579 166 2554 192 2554 442 
L 2554 2816 
z
" id="CMR17-c" transform="scale(0.015625)"/>
      <path d="M 1664 1491 
C 1856 1740 2074 2022 2253 2233 
C 2464 2476 2707 2579 2989 2585 
L 2989 2752 
C 2880 2745 2656 2739 2541 2739 
C 2368 2739 2170 2739 2022 2752 
L 2022 2585 
C 2112 2572 2163 2508 2163 2419 
C 2163 2304 2099 2233 2067 2188 
L 1594 1587 
L 1030 2323 
C 973 2393 973 2406 973 2438 
C 973 2515 1037 2579 1146 2585 
L 1146 2752 
C 992 2739 717 2739 557 2739 
C 384 2739 179 2739 38 2752 
L 38 2585 
C 384 2585 461 2560 614 2368 
L 1350 1414 
C 1363 1401 1395 1363 1395 1344 
C 1395 1318 838 633 768 544 
C 480 198 179 172 6 166 
L 6 0 
C 115 6 339 12 454 12 
C 582 12 864 12 979 0 
L 979 166 
C 941 172 838 185 838 332 
C 838 448 890 518 947 595 
L 1478 1248 
L 2035 524 
C 2086 454 2163 358 2163 313 
C 2163 224 2086 172 1984 166 
L 1984 0 
C 2138 12 2413 12 2573 12 
C 2746 12 2950 12 3091 0 
L 3091 166 
C 2771 166 2675 179 2522 377 
L 1664 1491 
z
" id="CMR17-78" transform="scale(0.015625)"/>
      <path d="M 2438 1503 
C 2464 1529 2464 1542 2464 1606 
C 2464 2251 2118 2816 1389 2816 
C 710 2816 173 2175 173 1394 
C 173 554 781 -64 1459 -64 
C 2176 -64 2458 619 2458 755 
C 2458 800 2419 800 2406 800 
C 2362 800 2355 787 2330 709 
C 2189 270 1837 51 1504 51 
C 1229 51 954 206 781 490 
C 582 819 582 1200 582 1503 
L 2438 1503 
z
M 589 1600 
C 634 2511 1126 2713 1382 2713 
C 1818 2713 2112 2308 2118 1600 
L 589 1600 
z
" id="CMR17-65" transform="scale(0.015625)"/>
      <path d="M 1869 4345 
L 1869 4179 
C 2246 4179 2304 4141 2304 3843 
L 2304 2371 
C 2278 2403 2016 2816 1498 2816 
C 845 2816 211 2228 211 1376 
C 211 529 806 -64 1434 -64 
C 1978 -64 2259 361 2291 406 
L 2291 -64 
L 3066 -13 
L 3066 154 
C 2688 154 2630 193 2630 503 
L 2630 4416 
L 1869 4345 
z
M 2291 762 
C 2291 568 2176 393 2029 264 
C 1811 70 1594 38 1472 38 
C 1286 38 621 135 621 1369 
C 621 2636 1363 2713 1530 2713 
C 1824 2713 2061 2545 2208 2313 
C 2291 2177 2291 2157 2291 2041 
L 2291 762 
z
" id="CMR17-64" transform="scale(0.015625)"/>
      <path d="M 275 -794 
C 230 -981 205 -1031 -58 -1031 
C -135 -1031 -199 -1031 -199 -1152 
C -199 -1165 -192 -1216 -122 -1216 
C -39 -1216 51 -1204 134 -1204 
L 410 -1204 
C 544 -1204 870 -1216 1005 -1216 
C 1043 -1216 1120 -1216 1120 -1101 
C 1120 -1031 1075 -1031 966 -1031 
C 672 -1031 653 -987 653 -937 
C 653 -863 941 217 979 364 
C 1050 185 1222 -64 1555 -64 
C 2278 -64 3059 874 3059 1813 
C 3059 2400 2726 2816 2246 2816 
C 1837 2816 1491 2419 1421 2330 
C 1370 2649 1120 2816 864 2816 
C 678 2816 531 2726 410 2483 
C 294 2253 205 1864 205 1838 
C 205 1813 230 1781 275 1781 
C 326 1781 333 1787 371 1934 
C 467 2311 589 2687 845 2687 
C 992 2687 1043 2585 1043 2394 
C 1043 2241 1024 2177 998 2062 
L 275 -794 
z
M 1382 1992 
C 1427 2170 1606 2356 1709 2445 
C 1779 2509 1990 2687 2234 2687 
C 2515 2687 2643 2407 2643 2075 
C 2643 1768 2464 1047 2304 715 
C 2144 370 1850 64 1555 64 
C 1120 64 1050 613 1050 638 
C 1050 657 1062 708 1069 740 
L 1382 1992 
z
" id="CMMI12-70" transform="scale(0.015625)"/>
     </defs>
     <use transform="scale(0.996264)" xlink:href="#CMMI12-72"/>
     <use transform="translate(43.960894 -14.943915)scale(0.697382)" xlink:href="#CMR17-30"/>
     <use transform="translate(106.518175 0)scale(0.996264)" xlink:href="#CMR17-66"/>
     <use transform="translate(133.991687 0)scale(0.996264)" xlink:href="#CMR17-6f"/>
     <use transform="translate(179.682164 0)scale(0.996264)" xlink:href="#CMR17-72"/>
     <use transform="translate(245.038898 0)scale(0.996264)" xlink:href="#CMR17-c"/>
     <use transform="translate(294.781122 0)scale(0.996264)" xlink:href="#CMR17-78"/>
     <use transform="translate(343.074038 0)scale(0.996264)" xlink:href="#CMR17-65"/>
     <use transform="translate(383.559698 0)scale(0.996264)" xlink:href="#CMR17-64"/>
     <use transform="translate(464.531034 0)scale(0.996264)" xlink:href="#CMMI12-70"/>
     <use transform="translate(513.490548 -14.943915)scale(0.697382)" xlink:href="#CMR17-30"/>
     <use transform="translate(545.971862 0)scale(0.996264)" xlink:href="#CMR17-3d"/>
     <use transform="translate(645.360659 0)scale(0.996264)" xlink:href="#CMR17-31"/>
    </g>
   </g>
   <g id="legend_1">
    <g id="patch_7">
     <path d="M 58.41617 102.42307 
L 159.075507 102.42307 
Q 161.075507 102.42307 161.075507 100.42307 
L 161.075507 17.8 
Q 161.075507 15.8 159.075507 15.8 
L 58.41617 15.8 
Q 56.41617 15.8 56.41617 17.8 
L 56.41617 100.42307 
Q 56.41617 102.42307 58.41617 102.42307 
z
" style="fill:#ffffff;opacity:0.8;stroke:#cccccc;stroke-linejoin:miter;"/>
    </g>
    <g id="line2d_65">
     <path d="M 60.41617 23.3 
L 80.41617 23.3 
" style="fill:none;stroke:#000000;stroke-dasharray:1.5,3;stroke-dashoffset:0;stroke-width:1.5;"/>
    </g>
    <g id="line2d_66"/>
    <g id="text_16">
     <!-- LE for A=0.1 -->
     <g transform="translate(88.41617 26.8)scale(0.1 -0.1)">
      <defs>
       <path d="M 3469 1612 
L 3354 1612 
C 3302 981 3219 166 2125 166 
L 1530 166 
C 1274 166 1261 198 1261 414 
L 1261 3892 
C 1261 4121 1274 4185 1760 4185 
L 1901 4185 
L 1901 4352 
C 1638 4339 1331 4339 1069 4339 
C 870 4339 512 4339 326 4352 
L 326 4185 
C 768 4185 838 4185 838 3898 
L 838 453 
C 838 166 768 166 326 166 
L 326 0 
L 3315 0 
L 3469 1612 
z
" id="CMR17-4c" transform="scale(0.015625)"/>
       <path d="M 3885 1614 
L 3770 1614 
C 3629 676 3546 166 2419 166 
L 1530 166 
C 1274 166 1261 198 1261 415 
L 1261 2176 
L 1862 2176 
C 2464 2176 2522 1959 2522 1429 
L 2637 1429 
L 2637 3086 
L 2522 3086 
C 2522 2558 2464 2342 1862 2342 
L 1261 2342 
L 1261 3924 
C 1261 4141 1274 4172 1530 4172 
L 2406 4172 
C 3398 4172 3514 3778 3603 2933 
L 3718 2933 
L 3565 4339 
L 326 4339 
L 326 4172 
C 768 4172 838 4172 838 3886 
L 838 453 
C 838 166 768 166 326 166 
L 326 0 
L 3654 0 
L 3885 1614 
z
" id="CMR17-45" transform="scale(0.015625)"/>
       <path d="M 2323 4441 
C 2291 4524 2278 4544 2214 4544 
C 2150 4544 2138 4524 2106 4441 
L 749 580 
C 627 236 371 166 147 166 
L 147 0 
C 262 12 518 12 640 12 
C 800 12 1056 12 1210 0 
L 1210 166 
C 909 179 864 382 864 459 
C 864 516 877 548 890 586 
L 1229 1536 
L 2906 1536 
L 3290 453 
C 3322 376 3322 363 3322 338 
C 3322 166 3046 166 2925 166 
L 2925 0 
C 3110 12 3443 12 3642 12 
C 3808 12 4128 12 4282 0 
L 4282 166 
C 3942 166 3827 166 3744 402 
L 2323 4441 
z
M 2067 3924 
L 2848 1702 
L 1286 1702 
L 2067 3924 
z
" id="CMR17-41" transform="scale(0.015625)"/>
       <path d="M 1062 262 
C 1062 422 934 524 800 524 
C 672 524 538 422 538 262 
C 538 102 666 0 800 0 
C 928 0 1062 102 1062 262 
z
" id="CMR17-2e" transform="scale(0.015625)"/>
      </defs>
      <use transform="scale(0.996264)" xlink:href="#CMR17-4c"/>
      <use transform="translate(57.381408 0)scale(0.996264)" xlink:href="#CMR17-45"/>
      <use transform="translate(150.043675 0)scale(0.996264)" xlink:href="#CMR17-66"/>
      <use transform="translate(177.517187 0)scale(0.996264)" xlink:href="#CMR17-6f"/>
      <use transform="translate(223.207664 0)scale(0.996264)" xlink:href="#CMR17-72"/>
      <use transform="translate(288.564398 0)scale(0.996264)" xlink:href="#CMR17-41"/>
      <use transform="translate(357.636828 0)scale(0.996264)" xlink:href="#CMR17-3d"/>
      <use transform="translate(429.351617 0)scale(0.996264)" xlink:href="#CMR17-30"/>
      <use transform="translate(475.042094 0)scale(0.996264)" xlink:href="#CMR17-2e"/>
      <use transform="translate(499.913152 0)scale(0.996264)" xlink:href="#CMR17-31"/>
     </g>
    </g>
    <g id="line2d_67">
     <path d="M 60.41617 37.237178 
L 80.41617 37.237178 
" style="fill:none;stroke:#000000;stroke-dasharray:10.5,1.5,6,1.5;stroke-dashoffset:0;stroke-width:1.5;"/>
    </g>
    <g id="line2d_68"/>
    <g id="text_17">
     <!-- TOV for A=0.1 -->
     <g transform="translate(88.41617 40.737178)scale(0.1 -0.1)">
      <defs>
       <path d="M 3981 4332 
L 288 4332 
L 179 2924 
L 294 2924 
C 378 3981 467 4166 1453 4166 
C 1568 4166 1754 4166 1805 4159 
C 1926 4140 1926 4064 1926 3917 
L 1926 465 
C 1926 236 1907 166 1376 166 
L 1197 166 
L 1197 0 
C 1504 6 1824 12 2138 12 
C 2451 12 2771 6 3078 0 
L 3078 166 
L 2899 166 
C 2368 166 2349 236 2349 465 
L 2349 3917 
C 2349 4057 2349 4134 2464 4159 
C 2515 4166 2701 4166 2816 4166 
C 3795 4166 3891 3981 3974 2924 
L 4090 2924 
L 3981 4332 
z
" id="CMR17-54" transform="scale(0.015625)"/>
       <path d="M 4307 2166 
C 4307 3488 3366 4480 2304 4480 
C 1216 4480 294 3475 294 2166 
C 294 857 1229 -128 2298 -128 
C 3392 -128 4307 876 4307 2166 
z
M 2304 -13 
C 1574 -13 781 722 781 2250 
C 781 3771 1651 4364 2298 4364 
C 2976 4364 3821 3752 3821 2250 
C 3821 696 3008 -13 2304 -13 
z
" id="CMR17-4f" transform="scale(0.015625)"/>
       <path d="M 3776 3762 
C 3834 3903 3936 4179 4365 4185 
L 4365 4352 
C 4218 4339 4051 4339 3891 4339 
C 3738 4339 3475 4339 3328 4352 
L 3328 4185 
C 3648 4166 3661 3942 3661 3903 
C 3661 3833 3642 3788 3622 3737 
L 2362 448 
L 1043 3903 
C 1024 3948 1011 3980 1011 4012 
C 1011 4185 1267 4185 1402 4185 
L 1402 4352 
C 1197 4339 896 4339 685 4339 
C 518 4339 218 4339 64 4352 
L 64 4185 
C 435 4185 506 4160 582 3955 
L 2106 -26 
C 2138 -116 2144 -128 2214 -128 
C 2285 -128 2291 -116 2323 -26 
L 3776 3762 
z
" id="CMR17-56" transform="scale(0.015625)"/>
      </defs>
      <use transform="scale(0.996264)" xlink:href="#CMR17-54"/>
      <use transform="translate(66.509881 0)scale(0.996264)" xlink:href="#CMR17-4f"/>
      <use transform="translate(135.622215 0)scale(0.996264)" xlink:href="#CMR17-56"/>
      <use transform="translate(234.770611 0)scale(0.996264)" xlink:href="#CMR17-66"/>
      <use transform="translate(262.244124 0)scale(0.996264)" xlink:href="#CMR17-6f"/>
      <use transform="translate(307.934601 0)scale(0.996264)" xlink:href="#CMR17-72"/>
      <use transform="translate(373.291335 0)scale(0.996264)" xlink:href="#CMR17-41"/>
      <use transform="translate(442.363765 0)scale(0.996264)" xlink:href="#CMR17-3d"/>
      <use transform="translate(514.078553 0)scale(0.996264)" xlink:href="#CMR17-30"/>
      <use transform="translate(559.76903 0)scale(0.996264)" xlink:href="#CMR17-2e"/>
      <use transform="translate(584.640089 0)scale(0.996264)" xlink:href="#CMR17-31"/>
     </g>
    </g>
    <g id="line2d_69">
     <path d="M 60.41617 51.174357 
L 80.41617 51.174357 
" style="fill:none;stroke:#000000;stroke-dasharray:1.5,6;stroke-dashoffset:0;stroke-width:1.5;"/>
    </g>
    <g id="line2d_70"/>
    <g id="text_18">
     <!-- LE for A=1 -->
     <g transform="translate(88.41617 54.674357)scale(0.1 -0.1)">
      <use transform="scale(0.996264)" xlink:href="#CMR17-4c"/>
      <use transform="translate(57.381408 0)scale(0.996264)" xlink:href="#CMR17-45"/>
      <use transform="translate(150.043675 0)scale(0.996264)" xlink:href="#CMR17-66"/>
      <use transform="translate(177.517187 0)scale(0.996264)" xlink:href="#CMR17-6f"/>
      <use transform="translate(223.207664 0)scale(0.996264)" xlink:href="#CMR17-72"/>
      <use transform="translate(288.564398 0)scale(0.996264)" xlink:href="#CMR17-41"/>
      <use transform="translate(357.636828 0)scale(0.996264)" xlink:href="#CMR17-3d"/>
      <use transform="translate(429.351617 0)scale(0.996264)" xlink:href="#CMR17-31"/>
     </g>
    </g>
    <g id="line2d_71">
     <path d="M 60.41617 65.111535 
L 80.41617 65.111535 
" style="fill:none;stroke:#000000;stroke-dasharray:7.5,3,1.5,3;stroke-dashoffset:0;stroke-width:1.5;"/>
    </g>
    <g id="line2d_72"/>
    <g id="text_19">
     <!-- TOV for A=1 -->
     <g transform="translate(88.41617 68.611535)scale(0.1 -0.1)">
      <use transform="scale(0.996264)" xlink:href="#CMR17-54"/>
      <use transform="translate(66.509881 0)scale(0.996264)" xlink:href="#CMR17-4f"/>
      <use transform="translate(135.622215 0)scale(0.996264)" xlink:href="#CMR17-56"/>
      <use transform="translate(234.770611 0)scale(0.996264)" xlink:href="#CMR17-66"/>
      <use transform="translate(262.244124 0)scale(0.996264)" xlink:href="#CMR17-6f"/>
      <use transform="translate(307.934601 0)scale(0.996264)" xlink:href="#CMR17-72"/>
      <use transform="translate(373.291335 0)scale(0.996264)" xlink:href="#CMR17-41"/>
      <use transform="translate(442.363765 0)scale(0.996264)" xlink:href="#CMR17-3d"/>
      <use transform="translate(514.078553 0)scale(0.996264)" xlink:href="#CMR17-31"/>
     </g>
    </g>
    <g id="line2d_73">
     <path d="M 60.41617 79.048713 
L 80.41617 79.048713 
" style="fill:none;stroke:#000000;stroke-dasharray:1.5,9;stroke-dashoffset:0;stroke-width:1.5;"/>
    </g>
    <g id="line2d_74"/>
    <g id="text_20">
     <!-- LE for A=8 -->
     <g transform="translate(88.41617 82.548713)scale(0.1 -0.1)">
      <defs>
       <path d="M 1741 2289 
C 2144 2494 2554 2803 2554 3298 
C 2554 3884 1990 4224 1472 4224 
C 890 4224 378 3800 378 3215 
C 378 3054 416 2777 666 2533 
C 730 2469 998 2276 1171 2154 
C 883 2006 211 1652 211 945 
C 211 282 838 -128 1459 -128 
C 2144 -128 2720 366 2720 1022 
C 2720 1607 2330 1877 2074 2051 
L 1741 2289 
z
M 902 2855 
C 851 2887 595 3086 595 3388 
C 595 3781 998 4076 1459 4076 
C 1965 4076 2336 3716 2336 3298 
C 2336 2700 1670 2359 1638 2359 
C 1632 2359 1626 2359 1574 2398 
L 902 2855 
z
M 2080 1536 
C 2176 1466 2483 1253 2483 861 
C 2483 385 2010 25 1472 25 
C 890 25 448 443 448 951 
C 448 1459 838 1884 1280 2083 
L 2080 1536 
z
" id="CMR17-38" transform="scale(0.015625)"/>
      </defs>
      <use transform="scale(0.996264)" xlink:href="#CMR17-4c"/>
      <use transform="translate(57.381408 0)scale(0.996264)" xlink:href="#CMR17-45"/>
      <use transform="translate(150.043675 0)scale(0.996264)" xlink:href="#CMR17-66"/>
      <use transform="translate(177.517187 0)scale(0.996264)" xlink:href="#CMR17-6f"/>
      <use transform="translate(223.207664 0)scale(0.996264)" xlink:href="#CMR17-72"/>
      <use transform="translate(288.564398 0)scale(0.996264)" xlink:href="#CMR17-41"/>
      <use transform="translate(357.636828 0)scale(0.996264)" xlink:href="#CMR17-3d"/>
      <use transform="translate(429.351617 0)scale(0.996264)" xlink:href="#CMR17-38"/>
     </g>
    </g>
    <g id="line2d_75">
     <path d="M 60.41617 92.985892 
L 80.41617 92.985892 
" style="fill:none;stroke:#000000;stroke-dasharray:4.5,3,1.5,3,1.5,3;stroke-dashoffset:0;stroke-width:1.5;"/>
    </g>
    <g id="line2d_76"/>
    <g id="text_21">
     <!-- TOV for A=8 -->
     <g transform="translate(88.41617 96.485892)scale(0.1 -0.1)">
      <use transform="scale(0.996264)" xlink:href="#CMR17-54"/>
      <use transform="translate(66.509881 0)scale(0.996264)" xlink:href="#CMR17-4f"/>
      <use transform="translate(135.622215 0)scale(0.996264)" xlink:href="#CMR17-56"/>
      <use transform="translate(234.770611 0)scale(0.996264)" xlink:href="#CMR17-66"/>
      <use transform="translate(262.244124 0)scale(0.996264)" xlink:href="#CMR17-6f"/>
      <use transform="translate(307.934601 0)scale(0.996264)" xlink:href="#CMR17-72"/>
      <use transform="translate(373.291335 0)scale(0.996264)" xlink:href="#CMR17-41"/>
      <use transform="translate(442.363765 0)scale(0.996264)" xlink:href="#CMR17-3d"/>
      <use transform="translate(514.078553 0)scale(0.996264)" xlink:href="#CMR17-38"/>
     </g>
    </g>
   </g>
  </g>
 </g>
 <defs>
  <clipPath id="pffd5038ae8">
   <rect height="224.50653" width="369.78383" x="51.41617" y="10.8"/>
  </clipPath>
 </defs>
</svg>
